{
.appVersion = "926";
copyright = "Copyright (c) 26.12.2011, Johan Aakerlund (aajohan@gmail.com), with Reserved Font Name \"Comfortaa\". This Font Software is licensed under the SIL Open Font License, Version 1.1. http://scripts.sil.org/OFL";
customParameters = (
{
name = licenseURL;
value = "http://scripts.sil.org/OFL";
},
{
name = license;
value = "This Font Software is licensed under the SIL Open Font License, Version 1.1.";
},
{
name = openTypeOS2Type;
value = (
3
);
},
{
name = glyphOrder;
value = (
NULL,
CR,
space,
exclam,
quotedbl,
numbersign,
dollar,
percent,
ampersand,
quotesingle,
parenleft,
parenright,
asterisk,
plus,
comma,
hyphen,
period,
slash,
zero,
one,
two,
three,
four,
five,
six,
seven,
eight,
nine,
colon,
semicolon,
less,
equal,
greater,
question,
at,
A,
B,
C,
D,
E,
F,
G,
H,
I,
J,
K,
L,
M,
N,
O,
P,
Q,
R,
S,
T,
U,
V,
W,
X,
Y,
Z,
bracketleft,
backslash,
bracketright,
asciicircum,
underscore,
grave,
a,
b,
c,
d,
e,
f,
g,
h,
i,
j,
k,
l,
m,
n,
o,
p,
q,
r,
s,
t,
u,
v,
w,
x,
y,
z,
braceleft,
bar,
braceright,
asciitilde,
exclamdown,
cent,
sterling,
currency,
yen,
brokenbar,
section,
dieresis,
copyright,
ordfeminine,
guillemotleft,
logicalnot,
registered,
overscore,
degree,
plusminus,
uni00B2,
uni00B3,
acute,
mu,
paragraph,
middot,
cedilla,
uni00B9,
ordmasculine,
guillemotright,
onequarter,
onehalf,
threequarters,
questiondown,
Agrave,
Aacute,
Acircumflex,
Atilde,
Adieresis,
Aring,
AE,
Ccedilla,
Egrave,
Eacute,
Ecircumflex,
Edieresis,
Igrave,
Iacute,
Icircumflex,
Idieresis,
Eth,
Ntilde,
Ograve,
Oacute,
Ocircumflex,
Otilde,
Odieresis,
multiply,
Oslash,
Ugrave,
Uacute,
Ucircumflex,
Udieresis,
Yacute,
Thorn,
germandbls,
agrave,
aacute,
acircumflex,
atilde,
adieresis,
aring,
ae,
ccedilla,
egrave,
eacute,
ecircumflex,
edieresis,
igrave,
iacute,
icircumflex,
idieresis,
eth,
ntilde,
ograve,
oacute,
ocircumflex,
otilde,
odieresis,
divide,
oslash,
ugrave,
uacute,
ucircumflex,
udieresis,
yacute,
thorn,
ydieresis,
dotlessi,
circumflex,
caron,
uni02C9,
breve,

glyphs = (
{
glyphname = exclam;
lastChange = "2016-10-26 00:21:20 +0000";
layers = (
{
layerId = UUID0;
paths = (
{
closed = 1;
nodes = (
"150 79 OFFCURVE",
"128 101 OFFCURVE",
"100 101 CURVE SMOOTH",
"72 101 OFFCURVE",
"49 80 OFFCURVE",
"49 51 CURVE SMOOTH",
"49 22 OFFCURVE",
"71 0 OFFCURVE",
"100 0 CURVE SMOOTH",
"128 0 OFFCURVE",
"150 23 OFFCURVE",
"150 51 CURVE SMOOTH"
);
},
{
closed = 1;
nodes = (
"69 192 LINE SMOOTH",
"69 175 OFFCURVE",
"84 162 OFFCURVE",
"100 162 CURVE SMOOTH",
"115 162 OFFCURVE",
"130 175 OFFCURVE",
"130 192 CURVE SMOOTH",
"130 751 LINE SMOOTH",
"130 769 OFFCURVE",
"117 782 OFFCURVE",
"100 782 CURVE SMOOTH",
"83 782 OFFCURVE",
"69 769 OFFCURVE",
"69 751 CURVE SMOOTH"
);
}
);
width = 195;
}
);
unicode = 0021;
},
{
glyphname = quotedbl;
lastChange = "2016-10-26 00:21:20 +0000";
layers = (
{
layerId = UUID0;
paths = (
{
closed = 1;
nodes = (
"109 751 LINE",
"109 769 OFFCURVE",
"96 782 OFFCURVE",
"79 782 CURVE SMOOTH",
"62 782 OFFCURVE",
"48 769 OFFCURVE",
"48 751 CURVE",
"58 599 LINE",
"58 588 OFFCURVE",
"67 579 OFFCURVE",
"79 579 CURVE SMOOTH",
"90 579 OFFCURVE",
"99 588 OFFCURVE",
"99 599 CURVE"
);
},
{
closed = 1;
nodes = (
"230 751 LINE",
"230 769 OFFCURVE",
"217 782 OFFCURVE",
"200 782 CURVE SMOOTH",
"183 782 OFFCURVE",
"169 769 OFFCURVE",
"169 751 CURVE",
"180 599 LINE",
"180 588 OFFCURVE",
"189 579 OFFCURVE",
"200 579 CURVE SMOOTH",
"211 579 OFFCURVE",
"220 588 OFFCURVE",
"220 599 CURVE"
);
}
);
width = 273;
}
);
unicode = 0022;
},
{
glyphname = numbersign;
lastChange = "2016-10-26 00:21:20 +0000";
layers = (
{
layerId = UUID0;
paths = (
{
closed = 1;
nodes = (
"219 243 LINE",
"361 243 LINE",
"323 28 LINE SMOOTH",
"322 27 OFFCURVE",
"322 25 OFFCURVE",
"322 24 CURVE SMOOTH",
"322 10 OFFCURVE",
"333 0 OFFCURVE",
"346 0 CURVE SMOOTH",
"364 0 OFFCURVE",
"380 15 OFFCURVE",
"384 32 CURVE",
"421 243 LINE",
"511 243 LINE SMOOTH",
"528 243 OFFCURVE",
"549 260 OFFCURVE",
"549 280 CURVE SMOOTH",
"549 293 OFFCURVE",
"539 304 OFFCURVE",
"525 304 CURVE SMOOTH",
"432 304 LINE",
"464 486 LINE",
"553 486 LINE SMOOTH",
"571 486 OFFCURVE",
"590 499 OFFCURVE",
"591 524 CURVE",
"591 535 OFFCURVE",
"583 547 OFFCURVE",
"568 547 CURVE SMOOTH",
"475 547 LINE",
"512 761 LINE SMOOTH",
"512 763 OFFCURVE",
"513 764 OFFCURVE",
"513 766 CURVE SMOOTH",
"513 779 OFFCURVE",
"503 790 OFFCURVE",
"489 790 CURVE SMOOTH",
"471 790 OFFCURVE",
"455 775 OFFCURVE",
"452 758 CURVE SMOOTH",
"415 547 LINE",
"272 547 LINE",
"310 761 LINE SMOOTH",
"310 763 OFFCURVE",
"310 764 OFFCURVE",
"310 766 CURVE SMOOTH",
"310 779 OFFCURVE",
"300 790 OFFCURVE",
"287 790 CURVE SMOOTH",
"269 790 OFFCURVE",
"252 775 OFFCURVE",
"249 758 CURVE SMOOTH",
"212 547 LINE",
"123 547 LINE SMOOTH",
"104 547 OFFCURVE",
"88 532 OFFCURVE",
"84 515 CURVE",
"84 515 LINE",
"84 514 OFFCURVE",
"84 512 OFFCURVE",
"84 510 CURVE SMOOTH",
"84 497 OFFCURVE",
"93 486 OFFCURVE",
"108 486 CURVE SMOOTH",
"201 486 LINE",
"169 304 LINE",
"79 304 LINE SMOOTH",
"62 304 OFFCURVE",
"42 291 OFFCURVE",
"42 266 CURVE SMOOTH",
"42 254 OFFCURVE",
"49 243 OFFCURVE",
"65 243 CURVE SMOOTH",
"158 243 LINE",
"120 28 LINE SMOOTH",
"120 27 OFFCURVE",
"120 25 OFFCURVE",
"120 24 CURVE SMOOTH",
"120 10 OFFCURVE",
"130 0 OFFCURVE",
"144 0 CURVE SMOOTH",
"161 0 OFFCURVE",
"178 15 OFFCURVE",
"181 32 CURVE"
);
},
{
closed = 1;
nodes = (
"403 486 LINE",
"372 304 LINE",
"229 304 LINE",
"261 486 LINE"
);
}
);
width = 625;
}
);
unicode = 0023;
},
{
glyphname = dollar;
lastChange = "2016-10-26 00:21:20 +0000";
layers = (
{
layerId = UUID0;
paths = (
{
closed = 1;
nodes = (
"249 -51 LINE SMOOTH",
"249 -68 OFFCURVE",
"262 -81 OFFCURVE",
"279 -81 CURVE SMOOTH",
"296 -81 OFFCURVE",
"309 -68 OFFCURVE",
"309 -51 CURVE SMOOTH",
"309 8 LINE",
"415 41 OFFCURVE",
"475 111 OFFCURVE",
"481 236 CURVE",
"481 334 OFFCURVE",
"413 429 OFFCURVE",
"309 458 CURVE",
"309 725 LINE",
"340 715 OFFCURVE",
"363 700 OFFCURVE",
"378 682 CURVE SMOOTH",
"390 668 OFFCURVE",
"398 648 OFFCURVE",
"418 648 CURVE SMOOTH",
"435 648 OFFCURVE",
"448 662 OFFCURVE",
"448 679 CURVE SMOOTH",
"448 721 OFFCURVE",
"371 775 OFFCURVE",
"309 787 CURVE",
"309 840 LINE SMOOTH",
"309 857 OFFCURVE",
"296 871 OFFCURVE",
"279 871 CURVE SMOOTH",
"262 871 OFFCURVE",
"249 857 OFFCURVE",
"249 840 CURVE SMOOTH",
"249 787 LINE",
"151 765 OFFCURVE",
"86 693 OFFCURVE",
"86 606 CURVE SMOOTH",
"86 485 OFFCURVE",
"160 423 OFFCURVE",
"249 406 CURVE",
"249 60 LINE",
"181 65 OFFCURVE",
"134 96 OFFCURVE",
"102 142 CURVE SMOOTH",
"96 151 OFFCURVE",
"87 155 OFFCURVE",
"76 155 CURVE SMOOTH",
"59 155 OFFCURVE",
"46 142 OFFCURVE",
"46 125 CURVE SMOOTH",
"46 109 OFFCURVE",
"60 94 OFFCURVE",
"71 83 CURVE SMOOTH",
"121 27 OFFCURVE",
"180 0 OFFCURVE",
"249 0 CURVE"
);
},
{
closed = 1;
nodes = (
"249 468 LINE",
"176 492 OFFCURVE",
"146 544 OFFCURVE",
"146 598 CURVE SMOOTH",
"146 654 OFFCURVE",
"183 705 OFFCURVE",
"249 726 CURVE"
);
},
{
closed = 1;
nodes = (
"309 396 LINE",
"387 356 OFFCURVE",
"420 304 OFFCURVE",
"420 235 CURVE",
"417 145 OFFCURVE",
"366 93 OFFCURVE",
"309 71 CURVE"
);
}
);
width = 518;
}
);
unicode = 0024;
},
{
glyphname = percent;
lastChange = "2016-10-26 00:21:20 +0000";
layers = (
{
layerId = UUID0;
paths = (
{
closed = 1;
nodes = (
"428 695 OFFCURVE",
"340 782 OFFCURVE",
"235 782 CURVE SMOOTH",
"129 782 OFFCURVE",
"42 695 OFFCURVE",
"42 590 CURVE SMOOTH",
"42 484 OFFCURVE",
"129 397 OFFCURVE",
"235 397 CURVE SMOOTH",
"341 397 OFFCURVE",
"428 483 OFFCURVE",
"428 590 CURVE SMOOTH"
);
},
{
closed = 1;
nodes = (
"448 86 OFFCURVE",
"534 0 OFFCURVE",
"640 0 CURVE SMOOTH",
"746 0 OFFCURVE",
"833 86 OFFCURVE",
"833 192 CURVE SMOOTH",
"833 298 OFFCURVE",
"746 385 OFFCURVE",
"640 385 CURVE SMOOTH",
"534 385 OFFCURVE",
"448 298 OFFCURVE",
"448 192 CURVE SMOOTH"
);
},
{
closed = 1;
nodes = (
"305 721 OFFCURVE",
"367 662 OFFCURVE",
"367 590 CURVE SMOOTH",
"367 518 OFFCURVE",
"307 458 OFFCURVE",
"235 458 CURVE SMOOTH",
"163 458 OFFCURVE",
"104 518 OFFCURVE",
"104 590 CURVE SMOOTH",
"104 662 OFFCURVE",
"165 721 OFFCURVE",
"235 721 CURVE SMOOTH"
);
},
{
closed = 1;
nodes = (
"711 324 OFFCURVE",
"772 263 OFFCURVE",
"772 192 CURVE SMOOTH",
"772 121 OFFCURVE",
"712 61 OFFCURVE",
"640 61 CURVE SMOOTH",
"568 61 OFFCURVE",
"508 120 OFFCURVE",
"508 192 CURVE SMOOTH",
"508 264 OFFCURVE",
"568 324 OFFCURVE",
"640 324 CURVE SMOOTH"
);
},
{
closed = 1;
nodes = (
"163 0 OFFCURVE",
"170 4 OFFCURVE",
"178 11 CURVE",
"746 733 LINE SMOOTH",
"750 738 OFFCURVE",
"751 744 OFFCURVE",
"751 751 CURVE SMOOTH",
"751 769 OFFCURVE",
"738 782 OFFCURVE",
"721 782 CURVE SMOOTH",
"711 782 OFFCURVE",
"704 777 OFFCURVE",
"696 769 CURVE",
"131 51 LINE SMOOTH",
"126 44 OFFCURVE",
"124 38 OFFCURVE",
"124 30 CURVE SMOOTH",
"124 13 OFFCURVE",
"137 0 OFFCURVE",
"154 0 CURVE SMOOTH"
);
}
);
width = 859;
}
);
unicode = 0025;
},
{
glyphname = ampersand;
lastChange = "2016-10-26 00:21:20 +0000";
layers = (
{
layerId = UUID0;
paths = (
{
closed = 1;
nodes = (
"178 535 LINE SMOOTH",
"156 556 OFFCURVE",
"146 583 OFFCURVE",
"146 613 CURVE SMOOTH",
"146 673 OFFCURVE",
"195 723 OFFCURVE",
"257 723 CURVE SMOOTH",
"319 723 OFFCURVE",
"368 671 OFFCURVE",
"368 613 CURVE SMOOTH",
"368 578 OFFCURVE",
"351 547 OFFCURVE",
"314 518 CURVE SMOOTH",
"247 465 LINE"
);
},
{
closed = 1;
nodes = (
"364 104 LINE",
"334 75 OFFCURVE",
"298 60 OFFCURVE",
"257 60 CURVE SMOOTH",
"174 60 OFFCURVE",
"105 125 OFFCURVE",
"105 221 CURVE SMOOTH",
"105 262 OFFCURVE",
"128 302 OFFCURVE",
"176 338 CURVE SMOOTH",
"240 387 LINE",
"441 187 LINE"
);
},
{
closed = 1;
nodes = (
"359 478 LINE",
"358 477 LINE SMOOTH",
"406 518 OFFCURVE",
"429 563 OFFCURVE",
"429 613 CURVE SMOOTH",
"429 708 OFFCURVE",
"350 784 OFFCURVE",
"257 784 CURVE SMOOTH",
"163 784 OFFCURVE",
"84 707 OFFCURVE",
"84 613 CURVE SMOOTH",
"84 566 OFFCURVE",
"101 525 OFFCURVE",
"135 492 CURVE SMOOTH",
"199 428 LINE",
"136 379 LINE",
"77 333 OFFCURVE",
"44 278 OFFCURVE",
"44 221 CURVE SMOOTH",
"44 92 OFFCURVE",
"141 0 OFFCURVE",
"257 0 CURVE SMOOTH",
"315 0 OFFCURVE",
"366 21 OFFCURVE",
"407 62 CURVE",
"407 62 LINE",
"484 144 LINE",
"621 8 LINE SMOOTH",
"626 3 OFFCURVE",
"634 0 OFFCURVE",
"642 0 CURVE SMOOTH",
"659 0 OFFCURVE",
"672 13 OFFCURVE",
"672 30 CURVE SMOOTH",
"672 38 OFFCURVE",
"669 45 OFFCURVE",
"664 50 CURVE SMOOTH",
"526 188 LINE",
"625 291 LINE",
"629 297 OFFCURVE",
"631 304 OFFCURVE",
"631 312 CURVE SMOOTH",
"631 329 OFFCURVE",
"618 341 OFFCURVE",
"601 341 CURVE SMOOTH",
"593 341 OFFCURVE",
"586 338 OFFCURVE",
"581 333 CURVE SMOOTH",
"484 230 LINE",
"289 424 LINE"
);
}
);
width = 703;
}
);
unicode = 0026;
},
{
glyphname = quotesingle;
lastChange = "2016-10-26 00:21:20 +0000";
layers = (
{
layerId = UUID0;
paths = (
{
closed = 1;
nodes = (
"110 752 LINE",
"110 769 OFFCURVE",
"97 782 OFFCURVE",
"80 782 CURVE SMOOTH",
"63 782 OFFCURVE",
"49 769 OFFCURVE",
"49 752 CURVE",
"59 600 LINE",
"59 588 OFFCURVE",
"68 580 OFFCURVE",
"80 580 CURVE SMOOTH",
"91 580 OFFCURVE",
"100 588 OFFCURVE",
"100 600 CURVE"
);
}
);
width = 156;
}
);
unicode = 0027;
},
{
glyphname = parenleft;
lastChange = "2016-10-26 00:21:20 +0000";
layers = (
{
layerId = UUID0;
paths = (
{
closed = 1;
nodes = (
"87 600 OFFCURVE",
"48 439 OFFCURVE",
"48 276 CURVE SMOOTH",
"48 112 OFFCURVE",
"87 -49 OFFCURVE",
"168 -213 CURVE",
"176 -228 OFFCURVE",
"184 -234 OFFCURVE",
"198 -234 CURVE SMOOTH",
"214 -234 OFFCURVE",
"228 -222 OFFCURVE",
"228 -206 CURVE SMOOTH",
"228 -201 OFFCURVE",
"226 -195 OFFCURVE",
"223 -188 CURVE SMOOTH",
"146 -34 OFFCURVE",
"107 119 OFFCURVE",
"107 275 CURVE SMOOTH",
"107 429 OFFCURVE",
"145 583 OFFCURVE",
"222 737 CURVE SMOOTH",
"225 743 OFFCURVE",
"227 750 OFFCURVE",
"227 756 CURVE SMOOTH",
"227 772 OFFCURVE",
"213 784 OFFCURVE",
"198 784 CURVE SMOOTH",
"185 784 OFFCURVE",
"174 777 OFFCURVE",
"168 764 CURVE"
);
}
);
width = 273;
}
);
unicode = 0028;
},
{
glyphname = parenright;
lastChange = "2016-10-26 00:21:20 +0000";
layers = (
{
layerId = UUID0;
paths = (
{
closed = 1;
nodes = (
"228 440 OFFCURVE",
"188 599 OFFCURVE",
"107 764 CURVE SMOOTH",
"101 777 OFFCURVE",
"92 784 OFFCURVE",
"78 784 CURVE SMOOTH",
"62 784 OFFCURVE",
"49 772 OFFCURVE",
"49 756 CURVE SMOOTH",
"49 749 OFFCURVE",
"51 743 OFFCURVE",
"54 737 CURVE SMOOTH",
"130 582 OFFCURVE",
"168 428 OFFCURVE",
"168 275 CURVE SMOOTH",
"168 119 OFFCURVE",
"130 -35 OFFCURVE",
"53 -188 CURVE SMOOTH",
"50 -195 OFFCURVE",
"48 -201 OFFCURVE",
"48 -206 CURVE SMOOTH",
"48 -222 OFFCURVE",
"61 -234 OFFCURVE",
"78 -234 CURVE SMOOTH",
"92 -234 OFFCURVE",
"100 -227 OFFCURVE",
"107 -213 CURVE",
"188 -49 OFFCURVE",
"228 112 OFFCURVE",
"228 276 CURVE SMOOTH"
);
}
);
width = 273;
}
);
unicode = 0029;
},
{
glyphname = asterisk;
lastChange = "2016-10-26 00:21:20 +0000";
layers = (
{
layerId = UUID0;
paths = (
{
closed = 1;
nodes = (
"309 640 LINE SMOOTH",
"326 641 OFFCURVE",
"340 649 OFFCURVE",
"340 670 CURVE SMOOTH",
"340 688 OFFCURVE",
"324 701 OFFCURVE",
"309 701 CURVE SMOOTH",
"306 701 OFFCURVE",
"302 700 OFFCURVE",
"299 699 CURVE",
"202 643 LINE",
"223 741 LINE SMOOTH",
"224 745 OFFCURVE",
"225 748 OFFCURVE",
"225 752 CURVE SMOOTH",
"225 769 OFFCURVE",
"211 782 OFFCURVE",
"194 782 CURVE SMOOTH",
"177 782 OFFCURVE",
"164 769 OFFCURVE",
"164 752 CURVE SMOOTH",
"164 748 OFFCURVE",
"165 745 OFFCURVE",
"166 741 CURVE SMOOTH",
"186 644 LINE",
"100 694 LINE",
"95 697 OFFCURVE",
"87 701 OFFCURVE",
"80 701 CURVE SMOOTH",
"63 701 OFFCURVE",
"52 689 OFFCURVE",
"50 671 CURVE",
"50 656 OFFCURVE",
"60 642 OFFCURVE",
"81 640 CURVE SMOOTH",
"183 629 LINE",
"96 553 LINE SMOOTH",
"90 548 OFFCURVE",
"89 541 OFFCURVE",
"89 535 CURVE SMOOTH",
"89 518 OFFCURVE",
"102 504 OFFCURVE",
"119 504 CURVE SMOOTH",
"133 504 OFFCURVE",
"143 511 OFFCURVE",
"148 525 CURVE",
"195 620 LINE",
"240 524 LINE SMOOTH",
"246 513 OFFCURVE",
"254 504 OFFCURVE",
"268 504 CURVE SMOOTH",
"287 504 OFFCURVE",
"300 518 OFFCURVE",
"300 535 CURVE SMOOTH",
"300 544 OFFCURVE",
"294 554 OFFCURVE",
"286 561 CURVE SMOOTH",
"207 629 LINE"
);
}
);
width = 381;
}
);
unicode = 002A;
},
{
glyphname = plus;
lastChange = "2016-10-26 00:21:20 +0000";
layers = (
{
layerId = UUID0;
paths = (
{
closed = 1;
nodes = (
"241 425 LINE",
"69 425 LINE SMOOTH",
"52 425 OFFCURVE",
"39 412 OFFCURVE",
"39 395 CURVE SMOOTH",
"39 378 OFFCURVE",
"52 365 OFFCURVE",
"69 365 CURVE SMOOTH",
"241 365 LINE",
"241 192 LINE SMOOTH",
"241 175 OFFCURVE",
"254 162 OFFCURVE",
"271 162 CURVE SMOOTH",
"289 162 OFFCURVE",
"302 175 OFFCURVE",
"302 192 CURVE SMOOTH",
"302 365 LINE",
"474 365 LINE SMOOTH",
"491 365 OFFCURVE",
"504 378 OFFCURVE",
"504 395 CURVE SMOOTH",
"504 412 OFFCURVE",
"491 425 OFFCURVE",
"474 425 CURVE SMOOTH",
"302 425 LINE",
"302 598 LINE SMOOTH",
"302 615 OFFCURVE",
"289 628 OFFCURVE",
"271 628 CURVE SMOOTH",
"254 628 OFFCURVE",
"241 615 OFFCURVE",
"241 598 CURVE SMOOTH"
);
}
);
width = 547;
}
);
unicode = 002B;
},
{
glyphname = comma;
lastChange = "2016-10-26 00:21:20 +0000";
layers = (
{
layerId = UUID0;
paths = (
{
closed = 1;
nodes = (
"83 -6 OFFCURVE",
"93 -26 OFFCURVE",
"93 -44 CURVE SMOOTH",
"93 -60 OFFCURVE",
"87 -74 OFFCURVE",
"75 -87 CURVE",
"71 -91 OFFCURVE",
"69 -96 OFFCURVE",
"69 -101 CURVE",
"69 -112 OFFCURVE",
"78 -122 OFFCURVE",
"89 -122 CURVE SMOOTH",
"97 -122 OFFCURVE",
"103 -118 OFFCURVE",
"107 -110 CURVE SMOOTH",
"136 -67 OFFCURVE",
"150 -14 OFFCURVE",
"150 51 CURVE SMOOTH",
"150 79 OFFCURVE",
"128 101 OFFCURVE",
"100 101 CURVE SMOOTH",
"72 101 OFFCURVE",
"49 80 OFFCURVE",
"49 51 CURVE SMOOTH",
"49 37 OFFCURVE",
"54 24 OFFCURVE",
"63 15 CURVE SMOOTH"
);
}
);
width = 195;
}
);
unicode = 002C;
},
{
glyphname = hyphen;
lastChange = "2016-10-26 00:21:20 +0000";
layers = (
{
layerId = UUID0;
paths = (
{
closed = 1;
nodes = (
"312 243 LINE SMOOTH",
"329 243 OFFCURVE",
"343 256 OFFCURVE",
"343 273 CURVE SMOOTH",
"343 291 OFFCURVE",
"329 304 OFFCURVE",
"312 304 CURVE SMOOTH",
"69 304 LINE SMOOTH",
"52 304 OFFCURVE",
"39 291 OFFCURVE",
"39 273 CURVE SMOOTH",
"39 256 OFFCURVE",
"52 243 OFFCURVE",
"69 243 CURVE SMOOTH"
);
}
);
width = 391;
}
);
unicode = 002D;
},
{
glyphname = period;
lastChange = "2016-10-26 00:21:20 +0000";
layers = (
{
layerId = UUID0;
paths = (
{
closed = 1;
nodes = (
"150 79 OFFCURVE",
"128 101 OFFCURVE",
"100 101 CURVE SMOOTH",
"72 101 OFFCURVE",
"49 80 OFFCURVE",
"49 51 CURVE SMOOTH",
"49 22 OFFCURVE",
"71 0 OFFCURVE",
"100 0 CURVE SMOOTH",
"128 0 OFFCURVE",
"150 23 OFFCURVE",
"150 51 CURVE SMOOTH"
);
}
);
width = 195;
}
);
unicode = 002E;
},
{
glyphname = slash;
lastChange = "2016-10-26 00:21:20 +0000";
layers = (
{
layerId = UUID0;
paths = (
{
closed = 1;
nodes = (
"370 779 OFFCURVE",
"369 777 OFFCURVE",
"367 773 CURVE SMOOTH",
"42 -38 LINE SMOOTH",
"41 -41 OFFCURVE",
"40 -45 OFFCURVE",
"40 -51 CURVE SMOOTH",
"40 -68 OFFCURVE",
"53 -81 OFFCURVE",
"70 -81 CURVE SMOOTH",
"81 -81 OFFCURVE",
"93 -76 OFFCURVE",
"98 -64 CURVE SMOOTH",
"422 746 LINE SMOOTH",
"424 750 OFFCURVE",
"425 755 OFFCURVE",
"425 760 CURVE SMOOTH",
"425 777 OFFCURVE",
"412 790 OFFCURVE",
"395 790 CURVE SMOOTH",
"386 790 OFFCURVE",
"379 787 OFFCURVE",
"373 782 CURVE SMOOTH"
);
}
);
width = 469;
}
);
unicode = 002F;
},
{
glyphname = zero;
lastChange = "2016-10-26 00:21:20 +0000";
layers = (
{
layerId = UUID0;
paths = (
{
closed = 1;
nodes = (
"39 148 OFFCURVE",
"124 0 OFFCURVE",
"272 0 CURVE SMOOTH",
"421 0 OFFCURVE",
"505 149 OFFCURVE",
"505 392 CURVE SMOOTH",
"505 633 OFFCURVE",
"421 784 OFFCURVE",
"272 784 CURVE SMOOTH",
"124 784 OFFCURVE",
"39 634 OFFCURVE",
"39 392 CURVE SMOOTH"
);
},
{
closed = 1;
nodes = (
"388 723 OFFCURVE",
"444 584 OFFCURVE",
"444 392 CURVE SMOOTH",
"444 199 OFFCURVE",
"389 60 OFFCURVE",
"272 60 CURVE SMOOTH",
"155 60 OFFCURVE",
"100 199 OFFCURVE",
"100 392 CURVE SMOOTH",
"100 585 OFFCURVE",
"156 723 OFFCURVE",
"272 723 CURVE SMOOTH"
);
}
);
width = 547;
}
);
unicode = 0030;
},
{
glyphname = one;
lastChange = "2016-10-26 00:21:20 +0000";
layers = (
{
layerId = UUID0;
paths = (
{
closed = 1;
nodes = (
"221 752 LINE SMOOTH",
"221 769 OFFCURVE",
"208 782 OFFCURVE",
"191 782 CURVE SMOOTH",
"188 782 OFFCURVE",
"184 782 OFFCURVE",
"179 780 CURVE SMOOTH",
"58 740 LINE",
"45 733 OFFCURVE",
"39 723 OFFCURVE",
"39 711 CURVE SMOOTH",
"39 694 OFFCURVE",
"52 681 OFFCURVE",
"69 681 CURVE SMOOTH",
"73 681 OFFCURVE",
"77 682 OFFCURVE",
"82 684 CURVE",
"160 709 LINE",
"160 30 LINE SMOOTH",
"160 13 OFFCURVE",
"174 0 OFFCURVE",
"191 0 CURVE SMOOTH",
"208 0 OFFCURVE",
"221 13 OFFCURVE",
"221 30 CURVE SMOOTH"
);
}
);
width = 273;
}
);
unicode = 0031;
},
{
glyphname = two;
lastChange = "2016-10-26 00:21:20 +0000";
layers = (
{
layerId = UUID0;
paths = (
{
closed = 1;
nodes = (
"139 61 LINE",
"436 384 LINE",
"482 429 OFFCURVE",
"505 484 OFFCURVE",
"505 549 CURVE SMOOTH",
"505 676 OFFCURVE",
"400 782 OFFCURVE",
"272 782 CURVE SMOOTH",
"145 782 OFFCURVE",
"39 677 OFFCURVE",
"39 549 CURVE SMOOTH",
"39 532 OFFCURVE",
"53 519 OFFCURVE",
"70 519 CURVE SMOOTH",
"87 519 OFFCURVE",
"100 532 OFFCURVE",
"100 549 CURVE SMOOTH",
"100 644 OFFCURVE",
"177 721 OFFCURVE",
"272 721 CURVE SMOOTH",
"367 721 OFFCURVE",
"444 643 OFFCURVE",
"444 549 CURVE SMOOTH",
"444 503 OFFCURVE",
"426 461 OFFCURVE",
"394 428 CURVE",
"48 52 LINE SMOOTH",
"42 45 OFFCURVE",
"39 38 OFFCURVE",
"39 30 CURVE SMOOTH",
"39 13 OFFCURVE",
"53 0 OFFCURVE",
"70 0 CURVE SMOOTH",
"475 0 LINE SMOOTH",
"492 0 OFFCURVE",
"505 13 OFFCURVE",
"505 30 CURVE SMOOTH",
"505 47 OFFCURVE",
"492 61 OFFCURVE",
"475 61 CURVE SMOOTH"
);
}
);
width = 547;
}
);
unicode = 0032;
},
{
glyphname = three;
lastChange = "2016-10-26 00:21:20 +0000";
layers = (
{
layerId = UUID0;
paths = (
{
closed = 1;
nodes = (
"366 401 OFFCURVE",
"444 324 OFFCURVE",
"444 230 CURVE SMOOTH",
"444 138 OFFCURVE",
"366 60 OFFCURVE",
"272 60 CURVE SMOOTH",
"179 60 OFFCURVE",
"100 137 OFFCURVE",
"100 230 CURVE SMOOTH",
"100 248 OFFCURVE",
"87 261 OFFCURVE",
"70 261 CURVE SMOOTH",
"53 261 OFFCURVE",
"39 248 OFFCURVE",
"39 230 CURVE SMOOTH",
"39 103 OFFCURVE",
"146 0 OFFCURVE",
"272 0 CURVE SMOOTH",
"399 0 OFFCURVE",
"505 103 OFFCURVE",
"505 230 CURVE SMOOTH",
"505 315 OFFCURVE",
"467 384 OFFCURVE",
"384 434 CURVE",
"438 483 OFFCURVE",
"464 536 OFFCURVE",
"464 592 CURVE SMOOTH",
"464 697 OFFCURVE",
"377 782 OFFCURVE",
"272 782 CURVE SMOOTH",
"166 782 OFFCURVE",
"80 697 OFFCURVE",
"80 592 CURVE SMOOTH",
"80 575 OFFCURVE",
"93 562 OFFCURVE",
"110 562 CURVE SMOOTH",
"127 562 OFFCURVE",
"141 575 OFFCURVE",
"141 592 CURVE SMOOTH",
"141 663 OFFCURVE",
"200 722 OFFCURVE",
"272 722 CURVE SMOOTH",
"342 722 OFFCURVE",
"404 663 OFFCURVE",
"404 592 CURVE SMOOTH",
"404 521 OFFCURVE",
"344 461 OFFCURVE",
"272 461 CURVE SMOOTH",
"255 461 OFFCURVE",
"242 448 OFFCURVE",
"242 431 CURVE SMOOTH",
"242 414 OFFCURVE",
"255 401 OFFCURVE",
"272 401 CURVE SMOOTH"
);
}
);
width = 547;
}
);
unicode = 0033;
},
{
glyphname = four;
lastChange = "2016-10-26 00:21:20 +0000";
layers = (
{
layerId = UUID0;
paths = (
{
closed = 1;
nodes = (
"128 255 LINE",
"404 653 LINE",
"404 255 LINE"
);
},
{
closed = 1;
nodes = (
"404 194 LINE",
"404 30 LINE SMOOTH",
"404 13 OFFCURVE",
"417 0 OFFCURVE",
"434 0 CURVE SMOOTH",
"451 0 OFFCURVE",
"464 13 OFFCURVE",
"464 30 CURVE SMOOTH",
"464 194 LINE",
"556 194 LINE SMOOTH",
"573 194 OFFCURVE",
"586 208 OFFCURVE",
"586 225 CURVE SMOOTH",
"586 242 OFFCURVE",
"573 255 OFFCURVE",
"556 255 CURVE SMOOTH",
"464 255 LINE",
"464 751 LINE SMOOTH",
"464 769 OFFCURVE",
"451 782 OFFCURVE",
"434 782 CURVE SMOOTH",
"421 782 OFFCURVE",
"415 778 OFFCURVE",
"409 770 CURVE SMOOTH",
"44 242 LINE SMOOTH",
"41 237 OFFCURVE",
"39 230 OFFCURVE",
"39 225 CURVE SMOOTH",
"39 208 OFFCURVE",
"52 194 OFFCURVE",
"69 194 CURVE SMOOTH"
);
}
);
width = 625;
}
);
unicode = 0034;
},
{
glyphname = five;
lastChange = "2016-10-26 00:21:20 +0000";
layers = (
{
layerId = UUID0;
paths = (
{
closed = 1;
nodes = (
"110 782 LINE SMOOTH",
"93 782 OFFCURVE",
"80 769 OFFCURVE",
"80 752 CURVE SMOOTH",
"80 476 LINE SMOOTH",
"80 459 OFFCURVE",
"93 446 OFFCURVE",
"110 446 CURVE SMOOTH",
"292 446 LINE SMOOTH",
"395 446 OFFCURVE",
"484 360 OFFCURVE",
"484 253 CURVE SMOOTH",
"484 148 OFFCURVE",
"396 61 OFFCURVE",
"292 61 CURVE SMOOTH",
"189 61 OFFCURVE",
"100 146 OFFCURVE",
"100 253 CURVE SMOOTH",
"100 271 OFFCURVE",
"86 284 OFFCURVE",
"69 284 CURVE SMOOTH",
"52 284 OFFCURVE",
"39 271 OFFCURVE",
"39 253 CURVE SMOOTH",
"39 111 OFFCURVE",
"155 0 OFFCURVE",
"292 0 CURVE SMOOTH",
"432 0 OFFCURVE",
"545 115 OFFCURVE",
"545 253 CURVE SMOOTH",
"545 391 OFFCURVE",
"432 506 OFFCURVE",
"292 506 CURVE SMOOTH",
"140 506 LINE",
"140 721 LINE",
"474 721 LINE SMOOTH",
"491 721 OFFCURVE",
"505 735 OFFCURVE",
"505 752 CURVE SMOOTH",
"505 769 OFFCURVE",
"491 782 OFFCURVE",
"474 782 CURVE SMOOTH"
);
}
);
width = 586;
}
);
unicode = 0035;
},
{
glyphname = six;
lastChange = "2016-10-26 00:21:20 +0000";
layers = (
{
layerId = UUID0;
paths = (
{
closed = 1;
nodes = (
"379 735 LINE SMOOTH",
"382 740 OFFCURVE",
"383 746 OFFCURVE",
"384 751 CURVE",
"384 769 OFFCURVE",
"370 782 OFFCURVE",
"353 782 CURVE SMOOTH",
"340 782 OFFCURVE",
"332 776 OFFCURVE",
"325 765 CURVE SMOOTH",
"77 360 LINE",
"52 322 OFFCURVE",
"39 280 OFFCURVE",
"39 233 CURVE SMOOTH",
"39 104 OFFCURVE",
"145 0 OFFCURVE",
"272 0 CURVE SMOOTH",
"400 0 OFFCURVE",
"505 104 OFFCURVE",
"505 233 CURVE SMOOTH",
"505 361 OFFCURVE",
"399 466 OFFCURVE",
"272 466 CURVE SMOOTH",
"252 466 OFFCURVE",
"230 463 OFFCURVE",
"207 458 CURVE"
);
},
{
closed = 1;
nodes = (
"444 139 OFFCURVE",
"366 61 OFFCURVE",
"272 61 CURVE SMOOTH",
"178 61 OFFCURVE",
"100 139 OFFCURVE",
"100 233 CURVE SMOOTH",
"100 329 OFFCURVE",
"180 405 OFFCURVE",
"272 405 CURVE SMOOTH",
"367 405 OFFCURVE",
"444 326 OFFCURVE",
"444 233 CURVE SMOOTH"
);
}
);
width = 547;
}
);
unicode = 0036;
},
{
glyphname = seven;
lastChange = "2016-10-26 00:21:20 +0000";
layers = (
{
layerId = UUID0;
paths = (
{
closed = 1;
nodes = (
"94 11 OFFCURVE",
"96 14 OFFCURVE",
"98 18 CURVE SMOOTH",
"500 735 LINE SMOOTH",
"503 740 OFFCURVE",
"505 746 OFFCURVE",
"505 752 CURVE SMOOTH",
"505 769 OFFCURVE",
"492 782 OFFCURVE",
"475 782 CURVE SMOOTH",
"70 782 LINE SMOOTH",
"53 782 OFFCURVE",
"39 769 OFFCURVE",
"39 752 CURVE SMOOTH",
"39 735 OFFCURVE",
"53 721 OFFCURVE",
"70 721 CURVE SMOOTH",
"423 721 LINE",
"46 51 LINE SMOOTH",
"42 42 OFFCURVE",
"39 36 OFFCURVE",
"39 30 CURVE SMOOTH",
"39 13 OFFCURVE",
"53 0 OFFCURVE",
"70 0 CURVE SMOOTH",
"78 0 OFFCURVE",
"85 3 OFFCURVE",
"92 9 CURVE SMOOTH"
);
}
);
width = 547;
}
);
unicode = 0037;
},
{
glyphname = eight;
lastChange = "2016-10-26 00:21:20 +0000";
layers = (
{
layerId = UUID0;
paths = (
{
closed = 1;
nodes = (
"342 722 OFFCURVE",
"404 663 OFFCURVE",
"404 592 CURVE SMOOTH",
"404 521 OFFCURVE",
"344 461 OFFCURVE",
"272 461 CURVE SMOOTH",
"199 461 OFFCURVE",
"141 521 OFFCURVE",
"141 592 CURVE SMOOTH",
"141 663 OFFCURVE",
"200 722 OFFCURVE",
"272 722 CURVE SMOOTH"
);
},
{
closed = 1;
nodes = (
"366 401 OFFCURVE",
"444 324 OFFCURVE",
"444 230 CURVE SMOOTH",
"444 138 OFFCURVE",
"366 60 OFFCURVE",
"272 60 CURVE SMOOTH",
"181 60 OFFCURVE",
"100 135 OFFCURVE",
"100 230 CURVE SMOOTH",
"100 325 OFFCURVE",
"180 401 OFFCURVE",
"272 401 CURVE SMOOTH"
);
},
{
closed = 1;
nodes = (
"143 450 OFFCURVE",
"151 443 OFFCURVE",
"162 436 CURVE",
"78 384 OFFCURVE",
"39 315 OFFCURVE",
"39 230 CURVE SMOOTH",
"39 103 OFFCURVE",
"146 0 OFFCURVE",
"272 0 CURVE SMOOTH",
"399 0 OFFCURVE",
"505 103 OFFCURVE",
"505 230 CURVE SMOOTH",
"505 318 OFFCURVE",
"468 376 OFFCURVE",
"384 436 CURVE",
"438 481 OFFCURVE",
"464 525 OFFCURVE",
"464 592 CURVE SMOOTH",
"464 697 OFFCURVE",
"377 782 OFFCURVE",
"272 782 CURVE SMOOTH",
"166 782 OFFCURVE",
"80 697 OFFCURVE",
"80 592 CURVE SMOOTH",
"80 539 OFFCURVE",
"98 494 OFFCURVE",
"136 457 CURVE SMOOTH"
);
}
);
width = 547;
}
);
unicode = 0038;
},
{
glyphname = nine;
lastChange = "2016-10-26 00:21:20 +0000";
layers = (
{
layerId = UUID0;
paths = (
{
closed = 1;
nodes = (
"165 46 LINE SMOOTH",
"162 41 OFFCURVE",
"161 36 OFFCURVE",
"161 30 CURVE SMOOTH",
"161 13 OFFCURVE",
"174 0 OFFCURVE",
"191 0 CURVE SMOOTH",
"203 0 OFFCURVE",
"213 6 OFFCURVE",
"219 17 CURVE",
"468 421 LINE",
"493 459 OFFCURVE",
"505 501 OFFCURVE",
"505 549 CURVE SMOOTH",
"505 676 OFFCURVE",
"400 782 OFFCURVE",
"272 782 CURVE SMOOTH",
"145 782 OFFCURVE",
"39 677 OFFCURVE",
"39 549 CURVE SMOOTH",
"39 421 OFFCURVE",
"143 316 OFFCURVE",
"272 316 CURVE SMOOTH",
"295 316 OFFCURVE",
"316 318 OFFCURVE",
"337 323 CURVE"
);
},
{
closed = 1;
nodes = (
"100 644 OFFCURVE",
"177 721 OFFCURVE",
"272 721 CURVE SMOOTH",
"367 721 OFFCURVE",
"444 642 OFFCURVE",
"444 549 CURVE SMOOTH",
"444 455 OFFCURVE",
"367 376 OFFCURVE",
"272 376 CURVE SMOOTH",
"179 376 OFFCURVE",
"100 453 OFFCURVE",
"100 549 CURVE SMOOTH"
);
}
);
width = 547;
}
);
unicode = 0039;
},
{
glyphname = colon;
lastChange = "2016-10-26 00:21:20 +0000";
layers = (
{
layerId = UUID0;
paths = (
{
closed = 1;
nodes = (
"150 79 OFFCURVE",
"128 101 OFFCURVE",
"100 101 CURVE SMOOTH",
"72 101 OFFCURVE",
"49 80 OFFCURVE",
"49 51 CURVE SMOOTH",
"49 22 OFFCURVE",
"71 0 OFFCURVE",
"100 0 CURVE SMOOTH",
"128 0 OFFCURVE",
"150 23 OFFCURVE",
"150 51 CURVE SMOOTH"
);
},
{
closed = 1;
nodes = (
"150 524 OFFCURVE",
"128 547 OFFCURVE",
"100 547 CURVE SMOOTH",
"71 547 OFFCURVE",
"49 525 OFFCURVE",
"49 497 CURVE SMOOTH",
"49 467 OFFCURVE",
"72 446 OFFCURVE",
"100 446 CURVE SMOOTH",
"127 446 OFFCURVE",
"150 468 OFFCURVE",
"150 497 CURVE SMOOTH"
);
}
);
width = 195;
}
);
unicode = 003A;
},
{
glyphname = semicolon;
lastChange = "2016-10-26 00:21:20 +0000";
layers = (
{
layerId = UUID0;
paths = (
{
closed = 1;
nodes = (
"150 524 OFFCURVE",
"128 547 OFFCURVE",
"100 547 CURVE SMOOTH",
"71 547 OFFCURVE",
"49 525 OFFCURVE",
"49 497 CURVE SMOOTH",
"49 467 OFFCURVE",
"72 446 OFFCURVE",
"100 446 CURVE SMOOTH",
"127 446 OFFCURVE",
"150 468 OFFCURVE",
"150 497 CURVE SMOOTH"
);
},
{
closed = 1;
nodes = (
"83 -6 OFFCURVE",
"93 -26 OFFCURVE",
"93 -44 CURVE SMOOTH",
"93 -60 OFFCURVE",
"87 -74 OFFCURVE",
"75 -87 CURVE SMOOTH",
"71 -91 OFFCURVE",
"69 -96 OFFCURVE",
"69 -101 CURVE SMOOTH",
"69 -112 OFFCURVE",
"78 -122 OFFCURVE",
"89 -122 CURVE SMOOTH",
"97 -122 OFFCURVE",
"102 -118 OFFCURVE",
"107 -110 CURVE SMOOTH",
"136 -67 OFFCURVE",
"150 -13 OFFCURVE",
"150 51 CURVE SMOOTH",
"150 79 OFFCURVE",
"128 101 OFFCURVE",
"100 101 CURVE SMOOTH",
"72 101 OFFCURVE",
"49 80 OFFCURVE",
"49 51 CURVE SMOOTH",
"49 37 OFFCURVE",
"54 24 OFFCURVE",
"63 15 CURVE SMOOTH"
);
}
);
width = 195;
}
);
unicode = 003B;
},
{
glyphname = less;
lastChange = "2016-10-26 00:21:20 +0000";
layers = (
{
layerId = UUID0;
paths = (
{
closed = 1;
nodes = (
"56 382 LINE",
"44 374 OFFCURVE",
"39 365 OFFCURVE",
"39 354 CURVE SMOOTH",
"39 343 OFFCURVE",
"44 333 OFFCURVE",
"56 327 CURVE SMOOTH",
"459 84 LINE SMOOTH",
"462 82 OFFCURVE",
"468 81 OFFCURVE",
"474 81 CURVE SMOOTH",
"491 81 OFFCURVE",
"504 94 OFFCURVE",
"504 111 CURVE SMOOTH",
"504 123 OFFCURVE",
"499 131 OFFCURVE",
"489 138 CURVE",
"128 354 LINE",
"489 571 LINE",
"488 571 LINE",
"499 578 OFFCURVE",
"504 586 OFFCURVE",
"504 598 CURVE SMOOTH",
"504 615 OFFCURVE",
"491 628 OFFCURVE",
"474 628 CURVE SMOOTH",
"469 628 OFFCURVE",
"463 627 OFFCURVE",
"459 625 CURVE SMOOTH"
);
}
);
width = 547;
}
);
unicode = 003C;
},
{
glyphname = equal;
lastChange = "2016-10-26 00:21:20 +0000";
layers = (
{
layerId = UUID0;
paths = (
{
closed = 1;
nodes = (
"435 446 LINE SMOOTH",
"452 446 OFFCURVE",
"465 459 OFFCURVE",
"465 476 CURVE SMOOTH",
"465 493 OFFCURVE",
"452 506 OFFCURVE",
"435 506 CURVE SMOOTH",
"70 506 LINE SMOOTH",
"53 506 OFFCURVE",
"40 493 OFFCURVE",
"40 476 CURVE SMOOTH",
"40 459 OFFCURVE",
"53 446 OFFCURVE",
"70 446 CURVE SMOOTH"
);
},
{
closed = 1;
nodes = (
"70 263 LINE SMOOTH",
"53 263 OFFCURVE",
"40 250 OFFCURVE",
"40 233 CURVE SMOOTH",
"40 216 OFFCURVE",
"53 203 OFFCURVE",
"70 202 CURVE",
"435 203 LINE SMOOTH",
"452 203 OFFCURVE",
"465 216 OFFCURVE",
"465 233 CURVE SMOOTH",
"465 250 OFFCURVE",
"452 263 OFFCURVE",
"435 263 CURVE SMOOTH"
);
}
);
width = 508;
}
);
unicode = 003D;
},
{
glyphname = greater;
lastChange = "2016-10-26 00:21:20 +0000";
layers = (
{
layerId = UUID0;
paths = (
{
closed = 1;
nodes = (
"84 625 LINE SMOOTH",
"80 627 OFFCURVE",
"75 628 OFFCURVE",
"69 628 CURVE SMOOTH",
"52 628 OFFCURVE",
"39 615 OFFCURVE",
"39 598 CURVE SMOOTH",
"39 586 OFFCURVE",
"44 578 OFFCURVE",
"55 571 CURVE",
"55 571 LINE",
"416 354 LINE",
"55 138 LINE",
"44 131 OFFCURVE",
"39 123 OFFCURVE",
"39 111 CURVE SMOOTH",
"39 94 OFFCURVE",
"52 81 OFFCURVE",
"69 81 CURVE SMOOTH",
"76 81 OFFCURVE",
"81 82 OFFCURVE",
"84 84 CURVE SMOOTH",
"487 327 LINE SMOOTH",
"499 333 OFFCURVE",
"505 343 OFFCURVE",
"505 354 CURVE SMOOTH",
"505 365 OFFCURVE",
"499 374 OFFCURVE",
"487 382 CURVE"
);
}
);
width = 547;
}
);
unicode = 003E;
},
{
glyphname = question;
lastChange = "2016-10-26 00:21:20 +0000";
layers = (
{
layerId = UUID0;
paths = (
{
closed = 1;
nodes = (
"100 645 OFFCURVE",
"178 722 OFFCURVE",
"272 722 CURVE SMOOTH",
"366 722 OFFCURVE",
"444 644 OFFCURVE",
"444 550 CURVE SMOOTH",
"444 502 OFFCURVE",
"427 462 OFFCURVE",
"394 428 CURVE",
"310 351 LINE",
"310 352 LINE",
"265 306 OFFCURVE",
"242 251 OFFCURVE",
"242 188 CURVE SMOOTH",
"242 170 OFFCURVE",
"255 157 OFFCURVE",
"272 157 CURVE SMOOTH",
"289 157 OFFCURVE",
"303 170 OFFCURVE",
"303 188 CURVE SMOOTH",
"303 235 OFFCURVE",
"319 275 OFFCURVE",
"353 309 CURVE",
"437 387 LINE",
"437 386 LINE",
"482 431 OFFCURVE",
"505 486 OFFCURVE",
"505 550 CURVE SMOOTH",
"505 676 OFFCURVE",
"401 782 OFFCURVE",
"272 782 CURVE SMOOTH",
"145 782 OFFCURVE",
"39 678 OFFCURVE",
"39 550 CURVE SMOOTH",
"39 533 OFFCURVE",
"53 521 OFFCURVE",
"70 521 CURVE SMOOTH",
"87 521 OFFCURVE",
"100 533 OFFCURVE",
"100 550 CURVE SMOOTH"
);
},
{
closed = 1;
nodes = (
"323 80 OFFCURVE",
"300 101 OFFCURVE",
"272 101 CURVE SMOOTH",
"243 101 OFFCURVE",
"222 79 OFFCURVE",
"222 51 CURVE SMOOTH",
"222 23 OFFCURVE",
"243 0 OFFCURVE",
"272 0 CURVE SMOOTH",
"300 0 OFFCURVE",
"323 22 OFFCURVE",
"323 51 CURVE SMOOTH"
);
}
);
width = 547;
}
);
unicode = 003F;
},
{
glyphname = at;
lastChange = "2016-10-26 00:21:20 +0000";
layers = (
{
layerId = UUID0;
paths = (
{
closed = 1;
nodes = (
"662 484 OFFCURVE",
"757 391 OFFCURVE",
"757 274 CURVE SMOOTH",
"757 158 OFFCURVE",
"662 65 OFFCURVE",
"548 65 CURVE SMOOTH",
"434 65 OFFCURVE",
"339 160 OFFCURVE",
"339 274 CURVE SMOOTH",
"339 389 OFFCURVE",
"434 484 OFFCURVE",
"548 484 CURVE SMOOTH"
);
},
{
closed = 1;
nodes = (
"757 75 LINE SMOOTH",
"757 2 OFFCURVE",
"794 -34 OFFCURVE",
"867 -34 CURVE SMOOTH",
"993 -34 OFFCURVE",
"1056 69 OFFCURVE",
"1056 274 CURVE SMOOTH",
"1056 415 OFFCURVE",
"1006 534 OFFCURVE",
"907 633 CURVE SMOOTH",
"807 732 OFFCURVE",
"688 782 OFFCURVE",
"548 782 CURVE SMOOTH",
"408 782 OFFCURVE",
"288 732 OFFCURVE",
"189 633 CURVE SMOOTH",
"90 534 OFFCURVE",
"41 415 OFFCURVE",
"41 274 CURVE SMOOTH",
"41 134 OFFCURVE",
"90 15 OFFCURVE",
"189 -84 CURVE SMOOTH",
"288 -184 OFFCURVE",
"408 -233 OFFCURVE",
"548 -233 CURVE SMOOTH",
"622 -233 OFFCURVE",
"778 -211 OFFCURVE",
"778 -161 CURVE SMOOTH",
"778 -144 OFFCURVE",
"765 -131 OFFCURVE",
"749 -131 CURVE SMOOTH",
"743 -131 OFFCURVE",
"738 -132 OFFCURVE",
"732 -135 CURVE SMOOTH",
"675 -161 OFFCURVE",
"615 -173 OFFCURVE",
"548 -173 CURVE SMOOTH",
"425 -173 OFFCURVE",
"318 -130 OFFCURVE",
"231 -42 CURVE SMOOTH",
"143 45 OFFCURVE",
"100 152 OFFCURVE",
"100 274 CURVE SMOOTH",
"100 397 OFFCURVE",
"143 503 OFFCURVE",
"231 591 CURVE SMOOTH",
"318 679 OFFCURVE",
"425 722 OFFCURVE",
"548 722 CURVE SMOOTH",
"673 722 OFFCURVE",
"778 678 OFFCURVE",
"865 591 CURVE SMOOTH",
"952 504 OFFCURVE",
"996 399 OFFCURVE",
"996 274 CURVE SMOOTH",
"996 108 OFFCURVE",
"953 25 OFFCURVE",
"867 25 CURVE SMOOTH",
"833 25 OFFCURVE",
"817 42 OFFCURVE",
"817 75 CURVE SMOOTH",
"817 274 LINE SMOOTH",
"817 422 OFFCURVE",
"696 543 OFFCURVE",
"548 543 CURVE SMOOTH",
"400 543 OFFCURVE",
"280 421 OFFCURVE",
"280 274 CURVE SMOOTH",
"280 127 OFFCURVE",
"400 6 OFFCURVE",
"548 6 CURVE SMOOTH",
"626 6 OFFCURVE",
"712 39 OFFCURVE",
"757 107 CURVE"
);
}
);
width = 1094;
}
);
unicode = 0040;
},
{
glyphname = A;
lastChange = "2016-10-26 00:21:20 +0000";
layers = (
{
layerId = UUID0;
paths = (
{
closed = 1;
nodes = (
"500 280 LINE",
"602 19 LINE",
"608 5 OFFCURVE",
"617 0 OFFCURVE",
"630 0 CURVE SMOOTH",
"646 0 OFFCURVE",
"660 13 OFFCURVE",
"660 30 CURVE SMOOTH",
"660 35 OFFCURVE",
"659 39 OFFCURVE",
"657 43 CURVE SMOOTH",
"379 760 LINE SMOOTH",
"374 774 OFFCURVE",
"363 781 OFFCURVE",
"350 781 CURVE SMOOTH",
"335 781 OFFCURVE",
"326 773 OFFCURVE",
"321 760 CURVE SMOOTH",
"42 43 LINE SMOOTH",
"40 39 OFFCURVE",
"39 35 OFFCURVE",
"39 30 CURVE SMOOTH",
"39 13 OFFCURVE",
"52 0 OFFCURVE",
"69 0 CURVE SMOOTH",
"82 0 OFFCURVE",
"92 5 OFFCURVE",
"97 19 CURVE SMOOTH",
"199 280 LINE"
);
},
{
closed = 1;
nodes = (
"223 340 LINE",
"350 668 LINE",
"477 340 LINE"
);
}
);
width = 703;
}
);
unicode = 0041;
},
{
glyphname = B;
lastChange = "2016-10-26 00:21:20 +0000";
layers = (
{
layerId = UUID0;
paths = (
{
closed = 1;
nodes = (
"229 721 LINE SMOOTH",
"300 721 OFFCURVE",
"360 661 OFFCURVE",
"360 591 CURVE SMOOTH",
"360 522 OFFCURVE",
"302 461 OFFCURVE",
"229 461 CURVE SMOOTH",
"99 461 LINE",
"99 721 LINE"
);
},
{
closed = 1;
nodes = (
"270 401 LINE SMOOTH",
"363 401 OFFCURVE",
"440 322 OFFCURVE",
"440 230 CURVE SMOOTH",
"440 138 OFFCURVE",
"364 60 OFFCURVE",
"270 60 CURVE SMOOTH",
"99 60 LINE",
"99 401 LINE"
);
},
{
closed = 1;
nodes = (
"69 781 LINE SMOOTH",
"52 781 OFFCURVE",
"39 768 OFFCURVE",
"39 751 CURVE SMOOTH",
"39 30 LINE SMOOTH",
"39 13 OFFCURVE",
"52 0 OFFCURVE",
"69 0 CURVE SMOOTH",
"270 0 LINE SMOOTH",
"396 0 OFFCURVE",
"500 104 OFFCURVE",
"500 230 CURVE SMOOTH",
"500 322 OFFCURVE",
"455 398 OFFCURVE",
"354 446 CURVE",
"398 490 OFFCURVE",
"420 538 OFFCURVE",
"420 591 CURVE SMOOTH",
"420 695 OFFCURVE",
"334 781 OFFCURVE",
"229 781 CURVE SMOOTH"
);
}
);
width = 547;
}
);
unicode = 0042;
},
{
glyphname = C;
lastChange = "2016-10-26 00:21:20 +0000";
layers = (
{
layerId = UUID0;
paths = (
{
closed = 1;
nodes = (
"646 137 OFFCURVE",
"641 136 OFFCURVE",
"637 133 CURVE",
"578 84 OFFCURVE",
"508 60 OFFCURVE",
"430 60 CURVE SMOOTH",
"248 60 OFFCURVE",
"99 209 OFFCURVE",
"99 391 CURVE SMOOTH",
"99 572 OFFCURVE",
"250 721 OFFCURVE",
"430 721 CURVE SMOOTH",
"508 721 OFFCURVE",
"575 698 OFFCURVE",
"631 653 CURVE",
"640 645 OFFCURVE",
"648 641 OFFCURVE",
"656 641 CURVE SMOOTH",
"672 641 OFFCURVE",
"686 655 OFFCURVE",
"686 671 CURVE SMOOTH",
"686 679 OFFCURVE",
"683 687 OFFCURVE",
"677 692 CURVE",
"605 751 OFFCURVE",
"522 781 OFFCURVE",
"430 781 CURVE SMOOTH",
"322 781 OFFCURVE",
"230 743 OFFCURVE",
"153 667 CURVE SMOOTH",
"77 590 OFFCURVE",
"39 499 OFFCURVE",
"39 391 CURVE SMOOTH",
"39 178 OFFCURVE",
"217 0 OFFCURVE",
"430 0 CURVE SMOOTH",
"521 0 OFFCURVE",
"603 30 OFFCURVE",
"676 87 CURVE",
"681 92 OFFCURVE",
"683 99 OFFCURVE",
"683 107 CURVE SMOOTH",
"683 124 OFFCURVE",
"670 137 OFFCURVE",
"653 137 CURVE SMOOTH"
);
}
);
width = 723;
}
);
unicode = 0043;
},
{
glyphname = D;
lastChange = "2016-10-26 00:21:20 +0000";
layers = (
{
layerId = UUID0;
paths = (
{
closed = 1;
nodes = (
"99 60 LINE",
"99 721 LINE",
"229 721 LINE SMOOTH",
"408 721 OFFCURVE",
"560 571 OFFCURVE",
"560 391 CURVE SMOOTH",
"560 209 OFFCURVE",
"410 60 OFFCURVE",
"229 60 CURVE SMOOTH"
);
},
{
closed = 1;
nodes = (
"69 781 LINE SMOOTH",
"53 781 OFFCURVE",
"39 768 OFFCURVE",
"39 751 CURVE SMOOTH",
"39 30 LINE SMOOTH",
"39 13 OFFCURVE",
"53 0 OFFCURVE",
"69 0 CURVE SMOOTH",
"229 0 LINE SMOOTH",
"337 0 OFFCURVE",
"429 38 OFFCURVE",
"505 114 CURVE SMOOTH",
"582 191 OFFCURVE",
"620 283 OFFCURVE",
"620 391 CURVE SMOOTH",
"620 499 OFFCURVE",
"582 590 OFFCURVE",
"505 667 CURVE SMOOTH",
"429 743 OFFCURVE",
"337 781 OFFCURVE",
"229 781 CURVE SMOOTH"
);
}
);
width = 664;
}
);
unicode = 0044;
},
{
glyphname = E;
lastChange = "2016-10-26 00:21:20 +0000";
layers = (
{
layerId = UUID0;
paths = (
{
closed = 1;
nodes = (
"69 781 LINE SMOOTH",
"52 781 OFFCURVE",
"39 768 OFFCURVE",
"39 751 CURVE SMOOTH",
"39 30 LINE SMOOTH",
"39 13 OFFCURVE",
"52 0 OFFCURVE",
"69 0 CURVE SMOOTH",
"550 0 LINE SMOOTH",
"566 0 OFFCURVE",
"580 13 OFFCURVE",
"580 30 CURVE SMOOTH",
"580 46 OFFCURVE",
"566 60 OFFCURVE",
"550 60 CURVE SMOOTH",
"99 60 LINE",
"99 360 LINE",
"430 360 LINE SMOOTH",
"447 360 OFFCURVE",
"460 374 OFFCURVE",
"460 391 CURVE SMOOTH",
"460 408 OFFCURVE",
"447 421 OFFCURVE",
"430 421 CURVE SMOOTH",
"99 421 LINE",
"99 721 LINE",
"550 721 LINE SMOOTH",
"566 721 OFFCURVE",
"580 735 OFFCURVE",
"580 751 CURVE SMOOTH",
"580 768 OFFCURVE",
"566 781 OFFCURVE",
"550 781 CURVE SMOOTH"
);
}
);
width = 625;
}
);
unicode = 0045;
},
{
glyphname = F;
lastChange = "2016-10-26 00:21:20 +0000";
layers = (
{
layerId = UUID0;
paths = (
{
closed = 1;
nodes = (
"69 781 LINE SMOOTH",
"52 781 OFFCURVE",
"39 768 OFFCURVE",
"39 751 CURVE SMOOTH",
"39 30 LINE SMOOTH",
"39 13 OFFCURVE",
"52 0 OFFCURVE",
"69 0 CURVE SMOOTH",
"86 0 OFFCURVE",
"99 13 OFFCURVE",
"99 30 CURVE SMOOTH",
"99 360 LINE",
"430 360 LINE SMOOTH",
"447 360 OFFCURVE",
"460 374 OFFCURVE",
"460 391 CURVE SMOOTH",
"460 408 OFFCURVE",
"447 421 OFFCURVE",
"430 421 CURVE SMOOTH",
"99 421 LINE",
"99 721 LINE",
"550 721 LINE SMOOTH",
"566 721 OFFCURVE",
"580 735 OFFCURVE",
"580 751 CURVE SMOOTH",
"580 768 OFFCURVE",
"566 781 OFFCURVE",
"550 781 CURVE SMOOTH"
);
}
);
width = 625;
}
);
unicode = 0046;
},
{
glyphname = G;
lastChange = "2016-10-26 00:21:20 +0000";
layers = (
{
layerId = UUID0;
paths = (
{
closed = 1;
nodes = (
"683 351 LINE SMOOTH",
"683 367 OFFCURVE",
"669 380 OFFCURVE",
"653 380 CURVE SMOOTH",
"455 380 LINE SMOOTH",
"438 380 OFFCURVE",
"425 368 OFFCURVE",
"425 351 CURVE SMOOTH",
"425 333 OFFCURVE",
"438 320 OFFCURVE",
"455 320 CURVE SMOOTH",
"623 320 LINE",
"623 122 LINE",
"566 81 OFFCURVE",
"501 60 OFFCURVE",
"430 60 CURVE SMOOTH",
"248 60 OFFCURVE",
"99 209 OFFCURVE",
"99 391 CURVE SMOOTH",
"99 572 OFFCURVE",
"250 721 OFFCURVE",
"430 721 CURVE SMOOTH",
"508 721 OFFCURVE",
"575 698 OFFCURVE",
"631 653 CURVE",
"640 645 OFFCURVE",
"648 641 OFFCURVE",
"656 641 CURVE SMOOTH",
"672 641 OFFCURVE",
"686 655 OFFCURVE",
"686 671 CURVE SMOOTH",
"686 679 OFFCURVE",
"683 687 OFFCURVE",
"677 692 CURVE",
"605 751 OFFCURVE",
"522 781 OFFCURVE",
"430 781 CURVE SMOOTH",
"322 781 OFFCURVE",
"230 743 OFFCURVE",
"153 667 CURVE SMOOTH",
"77 590 OFFCURVE",
"39 499 OFFCURVE",
"39 391 CURVE SMOOTH",
"39 178 OFFCURVE",
"217 0 OFFCURVE",
"430 0 CURVE SMOOTH",
"521 0 OFFCURVE",
"604 30 OFFCURVE",
"676 87 CURVE SMOOTH",
"681 91 OFFCURVE",
"683 98 OFFCURVE",
"683 107 CURVE SMOOTH"
);
}
);
width = 732;
}
);
unicode = 0047;
},
{
glyphname = H;
lastChange = "2016-10-26 00:21:20 +0000";
layers = (
{
layerId = UUID0;
paths = (
{
closed = 1;
nodes = (
"39 30 LINE SMOOTH",
"39 13 OFFCURVE",
"52 0 OFFCURVE",
"69 0 CURVE SMOOTH",
"86 0 OFFCURVE",
"99 13 OFFCURVE",
"99 30 CURVE SMOOTH",
"99 360 LINE",
"520 360 LINE",
"520 30 LINE SMOOTH",
"520 13 OFFCURVE",
"533 0 OFFCURVE",
"550 0 CURVE SMOOTH",
"566 0 OFFCURVE",
"580 13 OFFCURVE",
"580 30 CURVE SMOOTH",
"580 751 LINE SMOOTH",
"580 768 OFFCURVE",
"566 781 OFFCURVE",
"550 781 CURVE SMOOTH",
"533 781 OFFCURVE",
"520 768 OFFCURVE",
"520 751 CURVE SMOOTH",
"520 421 LINE",
"99 421 LINE",
"99 751 LINE SMOOTH",
"99 768 OFFCURVE",
"86 781 OFFCURVE",
"69 781 CURVE SMOOTH",
"52 781 OFFCURVE",
"39 768 OFFCURVE",
"39 751 CURVE SMOOTH"
);
}
);
width = 625;
}
);
unicode = 0048;
},
{
glyphname = I;
lastChange = "2016-10-26 00:21:20 +0000";
layers = (
{
layerId = UUID0;
paths = (
{
closed = 1;
nodes = (
"87 30 LINE SMOOTH",
"87 13 OFFCURVE",
"100 0 OFFCURVE",
"117 0 CURVE SMOOTH",
"134 0 OFFCURVE",
"147 13 OFFCURVE",
"147 30 CURVE SMOOTH",
"147 751 LINE SMOOTH",
"147 768 OFFCURVE",
"134 781 OFFCURVE",
"117 781 CURVE SMOOTH",
"100 781 OFFCURVE",
"87 768 OFFCURVE",
"87 751 CURVE SMOOTH"
);
}
);
width = 234;
}
);
unicode = 0049;
},
{
glyphname = J;
lastChange = "2016-10-26 00:21:20 +0000";
layers = (
{
layerId = UUID0;
paths = (
{
closed = 1;
nodes = (
"39 105 OFFCURVE",
"142 0 OFFCURVE",
"270 0 CURVE SMOOTH",
"396 0 OFFCURVE",
"500 104 OFFCURVE",
"500 230 CURVE SMOOTH",
"500 751 LINE SMOOTH",
"500 768 OFFCURVE",
"487 781 OFFCURVE",
"470 781 CURVE SMOOTH",
"454 781 OFFCURVE",
"440 768 OFFCURVE",
"440 751 CURVE SMOOTH",
"440 230 LINE SMOOTH",
"440 138 OFFCURVE",
"364 60 OFFCURVE",
"270 60 CURVE SMOOTH",
"177 60 OFFCURVE",
"99 136 OFFCURVE",
"99 230 CURVE SMOOTH",
"99 248 OFFCURVE",
"86 260 OFFCURVE",
"69 260 CURVE SMOOTH",
"52 260 OFFCURVE",
"39 248 OFFCURVE",
"39 230 CURVE SMOOTH"
);
}
);
width = 547;
}
);
unicode = 004A;
},
{
glyphname = K;
lastChange = "2016-10-26 00:21:20 +0000";
layers = (
{
layerId = UUID0;
paths = (
{
closed = 1;
nodes = (
"39 30 LINE SMOOTH",
"39 13 OFFCURVE",
"53 0 OFFCURVE",
"69 0 CURVE SMOOTH",
"86 0 OFFCURVE",
"99 13 OFFCURVE",
"99 30 CURVE SMOOTH",
"99 297 LINE",
"200 398 LINE",
"485 13 LINE SMOOTH",
"491 4 OFFCURVE",
"500 0 OFFCURVE",
"511 0 CURVE SMOOTH",
"528 0 OFFCURVE",
"540 15 OFFCURVE",
"540 32 CURVE",
"539 37 OFFCURVE",
"538 42 OFFCURVE",
"534 48 CURVE SMOOTH",
"244 442 LINE",
"531 729 LINE",
"537 736 OFFCURVE",
"540 744 OFFCURVE",
"540 751 CURVE SMOOTH",
"540 768 OFFCURVE",
"527 781 OFFCURVE",
"510 781 CURVE SMOOTH",
"501 781 OFFCURVE",
"494 778 OFFCURVE",
"487 772 CURVE SMOOTH",
"99 384 LINE",
"99 751 LINE SMOOTH",
"99 768 OFFCURVE",
"86 781 OFFCURVE",
"69 781 CURVE SMOOTH",
"53 781 OFFCURVE",
"39 768 OFFCURVE",
"39 751 CURVE SMOOTH"
);
}
);
width = 586;
}
);
unicode = 004B;
},
{
glyphname = L;
lastChange = "2016-10-26 00:21:20 +0000";
layers = (
{
layerId = UUID0;
paths = (
{
closed = 1;
nodes = (
"39 30 LINE SMOOTH",
"39 13 OFFCURVE",
"53 0 OFFCURVE",
"69 0 CURVE SMOOTH",
"510 0 LINE SMOOTH",
"527 0 OFFCURVE",
"540 13 OFFCURVE",
"540 30 CURVE SMOOTH",
"540 46 OFFCURVE",
"527 60 OFFCURVE",
"510 60 CURVE SMOOTH",
"99 60 LINE",
"99 751 LINE SMOOTH",
"99 768 OFFCURVE",
"86 781 OFFCURVE",
"69 781 CURVE SMOOTH",
"53 781 OFFCURVE",
"39 768 OFFCURVE",
"39 751 CURVE SMOOTH"
);
}
);
width = 586;
}
);
unicode = 004C;
},
{
glyphname = M;
lastChange = "2016-10-26 00:21:20 +0000";
layers = (
{
layerId = UUID0;
paths = (
{
closed = 1;
nodes = (
"402 19 LINE",
"407 6 OFFCURVE",
"417 0 OFFCURVE",
"430 0 CURVE SMOOTH",
"441 0 OFFCURVE",
"450 5 OFFCURVE",
"456 14 CURVE",
"760 624 LINE",
"760 30 LINE SMOOTH",
"760 13 OFFCURVE",
"773 0 OFFCURVE",
"791 0 CURVE SMOOTH",
"808 0 OFFCURVE",
"820 13 OFFCURVE",
"820 30 CURVE SMOOTH",
"820 751 LINE SMOOTH",
"820 768 OFFCURVE",
"808 781 OFFCURVE",
"791 781 CURVE SMOOTH",
"778 781 OFFCURVE",
"770 776 OFFCURVE",
"764 766 CURVE",
"430 97 LINE",
"96 766 LINE SMOOTH",
"90 776 OFFCURVE",
"82 781 OFFCURVE",
"69 781 CURVE SMOOTH",
"52 781 OFFCURVE",
"39 768 OFFCURVE",
"39 751 CURVE SMOOTH",
"39 30 LINE SMOOTH",
"39 13 OFFCURVE",
"52 0 OFFCURVE",
"69 0 CURVE SMOOTH",
"86 0 OFFCURVE",
"99 13 OFFCURVE",
"99 30 CURVE SMOOTH",
"99 624 LINE"
);
}
);
width = 859;
}
);
unicode = 004D;
},
{
glyphname = N;
lastChange = "2016-10-26 00:21:20 +0000";
layers = (
{
layerId = UUID0;
paths = (
{
closed = 1;
nodes = (
"99 663 LINE",
"608 9 LINE",
"613 3 OFFCURVE",
"621 0 OFFCURVE",
"630 0 CURVE SMOOTH",
"646 0 OFFCURVE",
"660 13 OFFCURVE",
"660 30 CURVE SMOOTH",
"660 751 LINE SMOOTH",
"660 768 OFFCURVE",
"646 781 OFFCURVE",
"630 781 CURVE SMOOTH",
"613 781 OFFCURVE",
"600 768 OFFCURVE",
"600 751 CURVE SMOOTH",
"600 118 LINE",
"92 771 LINE SMOOTH",
"86 778 OFFCURVE",
"79 781 OFFCURVE",
"69 781 CURVE SMOOTH",
"52 781 OFFCURVE",
"39 768 OFFCURVE",
"39 751 CURVE SMOOTH",
"39 30 LINE SMOOTH",
"39 13 OFFCURVE",
"52 0 OFFCURVE",
"69 0 CURVE SMOOTH",
"86 0 OFFCURVE",
"99 13 OFFCURVE",
"99 30 CURVE SMOOTH"
);
}
);
width = 703;
}
);
unicode = 004E;
},
{
glyphname = O;
lastChange = "2016-10-26 00:21:20 +0000";
layers = (
{
layerId = UUID0;
paths = (
{
closed = 1;
nodes = (
"609 721 OFFCURVE",
"760 572 OFFCURVE",
"760 391 CURVE SMOOTH",
"760 209 OFFCURVE",
"611 60 OFFCURVE",
"430 60 CURVE SMOOTH",
"249 60 OFFCURVE",
"99 208 OFFCURVE",
"99 391 CURVE SMOOTH",
"99 574 OFFCURVE",
"251 721 OFFCURVE",
"430 721 CURVE SMOOTH"
);
},
{
closed = 1;
nodes = (
"820 603 OFFCURVE",
"644 781 OFFCURVE",
"430 781 CURVE SMOOTH",
"322 781 OFFCURVE",
"230 743 OFFCURVE",
"153 667 CURVE SMOOTH",
"77 590 OFFCURVE",
"39 499 OFFCURVE",
"39 391 CURVE SMOOTH",
"39 178 OFFCURVE",
"217 0 OFFCURVE",
"430 0 CURVE SMOOTH",
"538 0 OFFCURVE",
"630 38 OFFCURVE",
"706 114 CURVE SMOOTH",
"782 191 OFFCURVE",
"820 283 OFFCURVE",
"820 391 CURVE SMOOTH"
);
}
);
width = 859;
}
);
unicode = 004F;
},
{
glyphname = P;
lastChange = "2016-10-26 00:21:20 +0000";
layers = (
{
layerId = UUID0;
paths = (
{
closed = 1;
nodes = (
"229 721 LINE SMOOTH",
"333 721 OFFCURVE",
"419 634 OFFCURVE",
"419 531 CURVE SMOOTH",
"419 428 OFFCURVE",
"333 340 OFFCURVE",
"229 340 CURVE SMOOTH",
"99 340 LINE",
"99 721 LINE"
);
},
{
closed = 1;
nodes = (
"69 781 LINE SMOOTH",
"52 781 OFFCURVE",
"39 768 OFFCURVE",
"39 751 CURVE SMOOTH",
"39 30 LINE SMOOTH",
"39 13 OFFCURVE",
"52 0 OFFCURVE",
"69 0 CURVE SMOOTH",
"86 0 OFFCURVE",
"99 13 OFFCURVE",
"99 30 CURVE SMOOTH",
"99 280 LINE",
"229 280 LINE SMOOTH",
"367 280 OFFCURVE",
"479 395 OFFCURVE",
"479 531 CURVE SMOOTH",
"479 668 OFFCURVE",
"366 781 OFFCURVE",
"229 781 CURVE SMOOTH"
);
}
);
width = 527;
}
);
unicode = 0050;
},
{
glyphname = Q;
lastChange = "2016-10-26 00:21:20 +0000";
layers = (
{
layerId = UUID0;
paths = (
{
closed = 1;
nodes = (
"769 9 LINE SMOOTH",
"775 3 OFFCURVE",
"782 0 OFFCURVE",
"791 0 CURVE SMOOTH",
"808 0 OFFCURVE",
"820 13 OFFCURVE",
"820 30 CURVE SMOOTH",
"820 38 OFFCURVE",
"817 45 OFFCURVE",
"812 51 CURVE",
"727 137 LINE",
"789 211 OFFCURVE",
"820 295 OFFCURVE",
"820 391 CURVE SMOOTH",
"820 603 OFFCURVE",
"644 781 OFFCURVE",
"430 781 CURVE SMOOTH",
"322 781 OFFCURVE",
"230 743 OFFCURVE",
"153 667 CURVE SMOOTH",
"77 590 OFFCURVE",
"39 499 OFFCURVE",
"39 391 CURVE SMOOTH",
"39 178 OFFCURVE",
"217 0 OFFCURVE",
"430 0 CURVE SMOOTH",
"524 0 OFFCURVE",
"609 31 OFFCURVE",
"684 94 CURVE"
);
},
{
closed = 1;
nodes = (
"641 136 LINE",
"578 85 OFFCURVE",
"507 60 OFFCURVE",
"430 60 CURVE SMOOTH",
"249 60 OFFCURVE",
"99 208 OFFCURVE",
"99 391 CURVE SMOOTH",
"99 573 OFFCURVE",
"250 721 OFFCURVE",
"430 721 CURVE SMOOTH",
"609 721 OFFCURVE",
"760 572 OFFCURVE",
"760 391 CURVE SMOOTH",
"760 313 OFFCURVE",
"735 243 OFFCURVE",
"684 179 CURVE",
"592 272 LINE",
"585 277 OFFCURVE",
"578 280 OFFCURVE",
"570 280 CURVE SMOOTH",
"552 280 OFFCURVE",
"540 267 OFFCURVE",
"540 249 CURVE",
"540 240 OFFCURVE",
"543 234 OFFCURVE",
"548 229 CURVE SMOOTH"
);
}
);
width = 859;
}
);
unicode = 0051;
},
{
glyphname = R;
lastChange = "2016-10-26 00:21:20 +0000";
layers = (
{
layerId = UUID0;
paths = (
{
closed = 1;
nodes = (
"270 721 LINE SMOOTH",
"360 721 OFFCURVE",
"439 646 OFFCURVE",
"439 551 CURVE SMOOTH",
"439 457 OFFCURVE",
"362 380 OFFCURVE",
"270 380 CURVE SMOOTH",
"99 380 LINE",
"99 721 LINE"
);
},
{
closed = 1;
nodes = (
"69 781 LINE SMOOTH",
"53 781 OFFCURVE",
"39 768 OFFCURVE",
"39 751 CURVE SMOOTH",
"39 30 LINE SMOOTH",
"39 13 OFFCURVE",
"53 0 OFFCURVE",
"69 0 CURVE SMOOTH",
"86 0 OFFCURVE",
"99 13 OFFCURVE",
"99 30 CURVE SMOOTH",
"99 320 LINE",
"270 320 LINE SMOOTH",
"278 320 OFFCURVE",
"286 321 OFFCURVE",
"292 321 CURVE",
"483 16 LINE SMOOTH",
"490 5 OFFCURVE",
"500 0 OFFCURVE",
"510 0 CURVE SMOOTH",
"527 0 OFFCURVE",
"540 13 OFFCURVE",
"540 30 CURVE SMOOTH",
"540 36 OFFCURVE",
"538 41 OFFCURVE",
"535 46 CURVE SMOOTH",
"354 335 LINE",
"451 379 OFFCURVE",
"500 458 OFFCURVE",
"500 551 CURVE SMOOTH",
"500 677 OFFCURVE",
"396 781 OFFCURVE",
"270 781 CURVE SMOOTH"
);
}
);
width = 586;
}
);
unicode = 0052;
},
{
glyphname = S;
lastChange = "2016-10-26 00:21:20 +0000";
layers = (
{
layerId = UUID0;
paths = (
{
closed = 1;
nodes = (
"39 108 OFFCURVE",
"55 90 OFFCURVE",
"63 82 CURVE SMOOTH",
"113 27 OFFCURVE",
"173 0 OFFCURVE",
"241 0 CURVE SMOOTH",
"355 0 OFFCURVE",
"470 88 OFFCURVE",
"470 234 CURVE SMOOTH",
"470 335 OFFCURVE",
"399 434 OFFCURVE",
"276 457 CURVE SMOOTH",
"175 476 OFFCURVE",
"139 526 OFFCURVE",
"139 590 CURVE SMOOTH",
"139 660 OFFCURVE",
"198 720 OFFCURVE",
"270 720 CURVE SMOOTH",
"320 720 OFFCURVE",
"353 696 OFFCURVE",
"387 649 CURVE SMOOTH",
"391 644 OFFCURVE",
"398 641 OFFCURVE",
"407 641 CURVE SMOOTH",
"423 641 OFFCURVE",
"437 655 OFFCURVE",
"437 671 CURVE SMOOTH",
"437 686 OFFCURVE",
"425 701 OFFCURVE",
"414 713 CURVE SMOOTH",
"373 759 OFFCURVE",
"324 781 OFFCURVE",
"270 781 CURVE SMOOTH",
"164 781 OFFCURVE",
"79 696 OFFCURVE",
"79 588 CURVE SMOOTH",
"79 502 OFFCURVE",
"131 423 OFFCURVE",
"253 400 CURVE",
"348 384 OFFCURVE",
"410 317 OFFCURVE",
"410 232 CURVE SMOOTH",
"410 121 OFFCURVE",
"320 60 OFFCURVE",
"241 60 CURVE",
"167 63 OFFCURVE",
"125 97 OFFCURVE",
"95 140 CURVE SMOOTH",
"88 149 OFFCURVE",
"80 154 OFFCURVE",
"69 154 CURVE SMOOTH",
"52 154 OFFCURVE",
"39 141 OFFCURVE",
"39 124 CURVE SMOOTH"
);
}
);
width = 518;
}
);
unicode = 0053;
},
{
glyphname = T;
lastChange = "2016-10-26 00:21:20 +0000";
layers = (
{
layerId = UUID0;
paths = (
{
closed = 1;
nodes = (
"300 721 LINE",
"300 30 LINE SMOOTH",
"300 13 OFFCURVE",
"313 0 OFFCURVE",
"330 0 CURVE SMOOTH",
"347 0 OFFCURVE",
"360 13 OFFCURVE",
"360 30 CURVE SMOOTH",
"360 721 LINE",
"590 721 LINE SMOOTH",
"607 721 OFFCURVE",
"621 735 OFFCURVE",
"621 751 CURVE SMOOTH",
"621 768 OFFCURVE",
"607 781 OFFCURVE",
"590 781 CURVE SMOOTH",
"69 781 LINE SMOOTH",
"53 781 OFFCURVE",
"40 768 OFFCURVE",
"40 751 CURVE SMOOTH",
"40 735 OFFCURVE",
"53 721 OFFCURVE",
"69 721 CURVE SMOOTH"
);
}
);
width = 664;
}
);
unicode = 0054;
},
{
glyphname = U;
lastChange = "2016-10-26 00:21:20 +0000";
layers = (
{
layerId = UUID0;
paths = (
{
closed = 1;
nodes = (
"40 271 LINE SMOOTH",
"40 121 OFFCURVE",
"162 0 OFFCURVE",
"310 0 CURVE SMOOTH",
"458 0 OFFCURVE",
"581 122 OFFCURVE",
"581 271 CURVE SMOOTH",
"581 751 LINE SMOOTH",
"581 768 OFFCURVE",
"567 781 OFFCURVE",
"551 781 CURVE SMOOTH",
"534 781 OFFCURVE",
"521 768 OFFCURVE",
"521 751 CURVE SMOOTH",
"521 271 LINE SMOOTH",
"521 155 OFFCURVE",
"426 60 OFFCURVE",
"310 60 CURVE SMOOTH",
"195 60 OFFCURVE",
"100 155 OFFCURVE",
"100 271 CURVE SMOOTH",
"100 751 LINE SMOOTH",
"100 768 OFFCURVE",
"87 781 OFFCURVE",
"70 781 CURVE SMOOTH",
"53 781 OFFCURVE",
"40 768 OFFCURVE",
"40 751 CURVE SMOOTH"
);
}
);
width = 625;
}
);
unicode = 0055;
},
{
glyphname = V;
lastChange = "2016-10-26 00:21:20 +0000";
layers = (
{
layerId = UUID0;
paths = (
{
closed = 1;
nodes = (
"374 11 OFFCURVE",
"375 14 OFFCURVE",
"377 19 CURVE SMOOTH",
"656 732 LINE SMOOTH",
"659 739 OFFCURVE",
"660 746 OFFCURVE",
"660 751 CURVE SMOOTH",
"660 768 OFFCURVE",
"646 781 OFFCURVE",
"630 781 CURVE SMOOTH",
"616 781 OFFCURVE",
"607 776 OFFCURVE",
"603 765 CURVE SMOOTH",
"350 113 LINE",
"97 764 LINE SMOOTH",
"92 775 OFFCURVE",
"83 781 OFFCURVE",
"69 781 CURVE SMOOTH",
"52 781 OFFCURVE",
"39 768 OFFCURVE",
"39 751 CURVE SMOOTH",
"39 746 OFFCURVE",
"41 739 OFFCURVE",
"43 732 CURVE SMOOTH",
"323 19 LINE",
"329 5 OFFCURVE",
"337 0 OFFCURVE",
"350 0 CURVE SMOOTH",
"358 0 OFFCURVE",
"365 3 OFFCURVE",
"371 9 CURVE SMOOTH"
);
}
);
width = 703;
}
);
unicode = 0056;
},
{
glyphname = W;
lastChange = "2016-10-26 00:21:20 +0000";
layers = (
{
layerId = UUID0;
paths = (
{
closed = 1;
nodes = (
"443 769 OFFCURVE",
"441 765 OFFCURVE",
"440 762 CURVE SMOOTH",
"268 143 LINE",
"96 761 LINE",
"92 774 OFFCURVE",
"81 781 OFFCURVE",
"68 781 CURVE SMOOTH",
"51 781 OFFCURVE",
"38 768 OFFCURVE",
"38 751 CURVE SMOOTH",
"38 747 OFFCURVE",
"39 742 OFFCURVE",
"40 736 CURVE SMOOTH",
"237 26 LINE SMOOTH",
"241 12 OFFCURVE",
"253 0 OFFCURVE",
"268 0 CURVE SMOOTH",
"283 0 OFFCURVE",
"294 10 OFFCURVE",
"300 26 CURVE",
"468 637 LINE",
"638 26 LINE SMOOTH",
"642 11 OFFCURVE",
"653 0 OFFCURVE",
"669 0 CURVE SMOOTH",
"682 0 OFFCURVE",
"695 9 OFFCURVE",
"700 26 CURVE SMOOTH",
"896 736 LINE SMOOTH",
"898 742 OFFCURVE",
"899 747 OFFCURVE",
"899 751 CURVE SMOOTH",
"899 768 OFFCURVE",
"886 781 OFFCURVE",
"869 781 CURVE SMOOTH",
"855 781 OFFCURVE",
"844 773 OFFCURVE",
"840 761 CURVE",
"669 143 LINE",
"497 761 LINE",
"493 773 OFFCURVE",
"481 781 OFFCURVE",
"468 781 CURVE SMOOTH",
"460 781 OFFCURVE",
"454 778 OFFCURVE",
"447 773 CURVE SMOOTH"
);
}
);
width = 938;
}
);
unicode = 0057;
},
{
glyphname = X;
lastChange = "2016-10-26 00:21:20 +0000";
layers = (
{
layerId = UUID0;
paths = (
{
closed = 1;
nodes = (
"94 768 LINE SMOOTH",
"87 777 OFFCURVE",
"79 781 OFFCURVE",
"69 781 CURVE SMOOTH",
"52 781 OFFCURVE",
"39 768 OFFCURVE",
"39 751 CURVE SMOOTH",
"39 744 OFFCURVE",
"41 739 OFFCURVE",
"44 734 CURVE SMOOTH",
"311 391 LINE",
"46 49 LINE SMOOTH",
"42 43 OFFCURVE",
"39 38 OFFCURVE",
"39 30 CURVE SMOOTH",
"39 13 OFFCURVE",
"52 0 OFFCURVE",
"69 0 CURVE SMOOTH",
"79 0 OFFCURVE",
"86 3 OFFCURVE",
"92 10 CURVE SMOOTH",
"350 341 LINE",
"607 10 LINE SMOOTH",
"613 3 OFFCURVE",
"622 0 OFFCURVE",
"630 0 CURVE SMOOTH",
"646 0 OFFCURVE",
"660 13 OFFCURVE",
"660 30 CURVE SMOOTH",
"660 38 OFFCURVE",
"658 44 OFFCURVE",
"654 49 CURVE SMOOTH",
"388 391 LINE",
"655 734 LINE SMOOTH",
"659 739 OFFCURVE",
"660 745 OFFCURVE",
"660 751 CURVE SMOOTH",
"660 768 OFFCURVE",
"646 781 OFFCURVE",
"630 781 CURVE SMOOTH",
"621 781 OFFCURVE",
"611 776 OFFCURVE",
"605 768 CURVE SMOOTH",
"350 440 LINE"
);
}
);
width = 703;
}
);
unicode = 0058;
},
{
glyphname = Y;
lastChange = "2016-10-26 00:21:20 +0000";
layers = (
{
layerId = UUID0;
paths = (
{
closed = 1;
nodes = (
"340 382 LINE",
"576 734 LINE",
"579 739 OFFCURVE",
"581 745 OFFCURVE",
"581 751 CURVE SMOOTH",
"581 768 OFFCURVE",
"567 781 OFFCURVE",
"551 781 CURVE SMOOTH",
"541 781 OFFCURVE",
"532 777 OFFCURVE",
"526 769 CURVE SMOOTH",
"310 445 LINE",
"94 769 LINE",
"87 777 OFFCURVE",
"80 781 OFFCURVE",
"70 781 CURVE SMOOTH",
"53 781 OFFCURVE",
"40 768 OFFCURVE",
"40 751 CURVE SMOOTH",
"40 745 OFFCURVE",
"41 740 OFFCURVE",
"44 734 CURVE SMOOTH",
"280 382 LINE",
"280 30 LINE SMOOTH",
"280 13 OFFCURVE",
"293 0 OFFCURVE",
"310 0 CURVE SMOOTH",
"327 0 OFFCURVE",
"340 13 OFFCURVE",
"340 30 CURVE SMOOTH"
);
}
);
width = 625;
}
);
unicode = 0059;
},
{
glyphname = Z;
lastChange = "2016-10-26 00:21:20 +0000";
layers = (
{
layerId = UUID0;
paths = (
{
closed = 1;
nodes = (
"568 721 LINE",
"46 49 LINE SMOOTH",
"41 43 OFFCURVE",
"39 36 OFFCURVE",
"39 30 CURVE SMOOTH",
"39 13 OFFCURVE",
"52 0 OFFCURVE",
"69 0 CURVE SMOOTH",
"630 0 LINE SMOOTH",
"646 0 OFFCURVE",
"660 13 OFFCURVE",
"660 30 CURVE SMOOTH",
"660 46 OFFCURVE",
"646 60 OFFCURVE",
"630 60 CURVE SMOOTH",
"131 60 LINE",
"655 734 LINE SMOOTH",
"659 739 OFFCURVE",
"660 745 OFFCURVE",
"660 751 CURVE SMOOTH",
"660 768 OFFCURVE",
"646 781 OFFCURVE",
"630 781 CURVE SMOOTH",
"69 781 LINE SMOOTH",
"52 781 OFFCURVE",
"39 768 OFFCURVE",
"39 751 CURVE SMOOTH",
"39 735 OFFCURVE",
"52 721 OFFCURVE",
"69 721 CURVE SMOOTH"
);
}
);
width = 703;
}
);
unicode = 005A;
},
{
glyphname = bracketleft;
lastChange = "2016-10-26 00:21:20 +0000";
layers = (
{
layerId = UUID0;
paths = (
{
closed = 1;
nodes = (
"78 782 LINE SMOOTH",
"61 782 OFFCURVE",
"48 769 OFFCURVE",
"48 752 CURVE SMOOTH",
"48 -204 LINE SMOOTH",
"48 -221 OFFCURVE",
"61 -234 OFFCURVE",
"78 -234 CURVE SMOOTH",
"240 -234 LINE SMOOTH",
"257 -234 OFFCURVE",
"271 -221 OFFCURVE",
"271 -204 CURVE SMOOTH",
"271 -187 OFFCURVE",
"257 -173 OFFCURVE",
"240 -173 CURVE SMOOTH",
"108 -173 LINE",
"108 721 LINE",
"240 721 LINE SMOOTH",
"257 721 OFFCURVE",
"271 735 OFFCURVE",
"271 752 CURVE SMOOTH",
"271 769 OFFCURVE",
"257 782 OFFCURVE",
"240 782 CURVE SMOOTH"
);
}
);
width = 313;
}
);
unicode = 005B;
},
{
glyphname = backslash;
lastChange = "2016-10-26 00:21:20 +0000";
layers = (
{
layerId = UUID0;
paths = (
{
closed = 1;
nodes = (
"104 765 LINE SMOOTH",
"100 776 OFFCURVE",
"87 782 OFFCURVE",
"77 782 CURVE SMOOTH",
"60 782 OFFCURVE",
"46 769 OFFCURVE",
"46 751 CURVE SMOOTH",
"46 747 OFFCURVE",
"47 742 OFFCURVE",
"49 738 CURVE SMOOTH",
"374 -64 LINE",
"379 -76 OFFCURVE",
"389 -81 OFFCURVE",
"401 -81 CURVE SMOOTH",
"418 -81 OFFCURVE",
"431 -68 OFFCURVE",
"431 -51 CURVE SMOOTH",
"431 -46 OFFCURVE",
"430 -42 OFFCURVE",
"428 -38 CURVE SMOOTH"
);
}
);
width = 469;
}
);
unicode = 005C;
},
{
glyphname = bracketright;
lastChange = "2016-10-26 00:21:20 +0000";
layers = (
{
layerId = UUID0;
paths = (
{
closed = 1;
nodes = (
"271 752 LINE SMOOTH",
"271 769 OFFCURVE",
"257 782 OFFCURVE",
"240 782 CURVE SMOOTH",
"78 782 LINE SMOOTH",
"61 782 OFFCURVE",
"48 769 OFFCURVE",
"48 752 CURVE SMOOTH",
"48 735 OFFCURVE",
"61 721 OFFCURVE",
"78 721 CURVE SMOOTH",
"210 721 LINE",
"210 -173 LINE",
"78 -173 LINE SMOOTH",
"61 -173 OFFCURVE",
"48 -187 OFFCURVE",
"48 -204 CURVE SMOOTH",
"48 -221 OFFCURVE",
"61 -234 OFFCURVE",
"78 -234 CURVE SMOOTH",
"240 -234 LINE SMOOTH",
"257 -234 OFFCURVE",
"271 -221 OFFCURVE",
"271 -204 CURVE SMOOTH"
);
}
);
width = 313;
}
);
unicode = 005D;
},
{
glyphname = asciicircum;
lastChange = "2016-10-26 00:21:20 +0000";
layers = (
{
layerId = UUID0;
paths = (
{
closed = 1;
nodes = (
"377 489 LINE SMOOTH",
"382 482 OFFCURVE",
"391 479 OFFCURVE",
"401 479 CURVE SMOOTH",
"418 479 OFFCURVE",
"431 492 OFFCURVE",
"431 509 CURVE SMOOTH",
"431 515 OFFCURVE",
"430 520 OFFCURVE",
"427 524 CURVE",
"263 770 LINE",
"257 777 OFFCURVE",
"250 782 OFFCURVE",
"239 782 CURVE SMOOTH",
"228 782 OFFCURVE",
"220 777 OFFCURVE",
"214 770 CURVE",
"50 524 LINE",
"48 520 OFFCURVE",
"46 515 OFFCURVE",
"46 509 CURVE SMOOTH",
"46 492 OFFCURVE",
"60 479 OFFCURVE",
"77 479 CURVE SMOOTH",
"86 479 OFFCURVE",
"94 482 OFFCURVE",
"101 489 CURVE",
"239 697 LINE"
);
}
);
width = 469;
}
);
unicode = 005E;
},
{
glyphname = underscore;
lastChange = "2016-10-26 00:21:20 +0000";
layers = (
{
layerId = UUID0;
paths = (
{
closed = 1;
nodes = (
"482 -62 LINE SMOOTH",
"499 -62 OFFCURVE",
"512 -48 OFFCURVE",
"512 -31 CURVE SMOOTH",
"512 -14 OFFCURVE",
"499 0 OFFCURVE",
"482 0 CURVE SMOOTH",
"-4 0 LINE SMOOTH",
"-21 0 OFFCURVE",
"-35 -14 OFFCURVE",
"-35 -31 CURVE SMOOTH",
"-35 -48 OFFCURVE",
"-21 -62 OFFCURVE",
"-4 -62 CURVE SMOOTH"
);
}
);
width = 469;
}
);
unicode = 005F;
},
{
glyphname = grave;
lastChange = "2016-10-26 00:21:20 +0000";
layers = (
{
layerId = UUID0;
paths = (
{
closed = 1;
nodes = (
"48 743 OFFCURVE",
"50 736 OFFCURVE",
"56 730 CURVE SMOOTH",
"179 607 LINE",
"186 602 OFFCURVE",
"192 599 OFFCURVE",
"200 599 CURVE SMOOTH",
"217 599 OFFCURVE",
"230 613 OFFCURVE",
"230 630 CURVE SMOOTH",
"230 637 OFFCURVE",
"228 645 OFFCURVE",
"223 650 CURVE",
"100 773 LINE SMOOTH",
"94 779 OFFCURVE",
"87 782 OFFCURVE",
"79 782 CURVE SMOOTH",
"62 782 OFFCURVE",
"48 769 OFFCURVE",
"48 751 CURVE"
);
}
);
width = 273;
}
);
unicode = 0060;
},
{
glyphname = a;
lastChange = "2016-10-26 00:21:20 +0000";
layers = (
{
layerId = UUID0;
paths = (
{
closed = 1;
nodes = (
"429 486 OFFCURVE",
"525 391 OFFCURVE",
"525 273 CURVE SMOOTH",
"525 156 OFFCURVE",
"429 61 OFFCURVE",
"313 61 CURVE SMOOTH",
"196 61 OFFCURVE",
"100 157 OFFCURVE",
"100 273 CURVE SMOOTH",
"100 390 OFFCURVE",
"196 486 OFFCURVE",
"313 486 CURVE SMOOTH"
);
},
{
closed = 1;
nodes = (
"525 30 LINE SMOOTH",
"525 13 OFFCURVE",
"539 0 OFFCURVE",
"556 0 CURVE SMOOTH",
"573 0 OFFCURVE",
"586 13 OFFCURVE",
"586 30 CURVE SMOOTH",
"586 273 LINE SMOOTH",
"586 423 OFFCURVE",
"462 547 OFFCURVE",
"313 547 CURVE SMOOTH",
"163 547 OFFCURVE",
"39 423 OFFCURVE",
"39 273 CURVE SMOOTH",
"39 124 OFFCURVE",
"163 0 OFFCURVE",
"313 0 CURVE SMOOTH",
"388 0 OFFCURVE",
"459 33 OFFCURVE",
"525 99 CURVE"
);
}
);
width = 625;
}
);
unicode = 0061;
},
{
glyphname = b;
lastChange = "2016-10-26 00:21:20 +0000";
layers = (
{
layerId = UUID0;
paths = (
{
closed = 1;
nodes = (
"196 61 OFFCURVE",
"100 157 OFFCURVE",
"100 273 CURVE SMOOTH",
"100 390 OFFCURVE",
"196 486 OFFCURVE",
"313 486 CURVE SMOOTH",
"429 486 OFFCURVE",
"525 391 OFFCURVE",
"525 273 CURVE SMOOTH",
"525 156 OFFCURVE",
"429 61 OFFCURVE",
"313 61 CURVE SMOOTH"
);
},
{
closed = 1;
nodes = (
"100 751 LINE SMOOTH",
"100 768 OFFCURVE",
"86 781 OFFCURVE",
"69 781 CURVE SMOOTH",
"52 781 OFFCURVE",
"39 768 OFFCURVE",
"39 751 CURVE SMOOTH",
"39 273 LINE SMOOTH",
"39 124 OFFCURVE",
"163 0 OFFCURVE",
"313 0 CURVE SMOOTH",
"462 0 OFFCURVE",
"586 124 OFFCURVE",
"586 273 CURVE SMOOTH",
"586 425 OFFCURVE",
"461 547 OFFCURVE",
"311 547 CURVE SMOOTH",
"235 547 OFFCURVE",
"172 519 OFFCURVE",
"119 467 CURVE SMOOTH",
"100 448 LINE"
);
}
);
width = 625;
}
);
unicode = 0062;
},
{
glyphname = c;
lastChange = "2016-10-26 00:21:20 +0000";
layers = (
{
layerId = UUID0;
paths = (
{
closed = 1;
nodes = (
"462 119 OFFCURVE",
"457 117 OFFCURVE",
"452 113 CURVE SMOOTH",
"413 81 OFFCURVE",
"364 61 OFFCURVE",
"313 61 CURVE SMOOTH",
"196 61 OFFCURVE",
"100 156 OFFCURVE",
"100 273 CURVE SMOOTH",
"100 391 OFFCURVE",
"196 486 OFFCURVE",
"313 486 CURVE SMOOTH",
"366 486 OFFCURVE",
"412 469 OFFCURVE",
"452 434 CURVE SMOOTH",
"457 429 OFFCURVE",
"463 427 OFFCURVE",
"471 427 CURVE SMOOTH",
"488 427 OFFCURVE",
"501 440 OFFCURVE",
"501 457 CURVE SMOOTH",
"501 466 OFFCURVE",
"497 476 OFFCURVE",
"491 481 CURVE SMOOTH",
"442 523 OFFCURVE",
"379 547 OFFCURVE",
"313 547 CURVE SMOOTH",
"163 547 OFFCURVE",
"39 423 OFFCURVE",
"39 273 CURVE SMOOTH",
"39 124 OFFCURVE",
"163 0 OFFCURVE",
"313 0 CURVE SMOOTH",
"379 0 OFFCURVE",
"442 23 OFFCURVE",
"491 66 CURVE SMOOTH",
"497 71 OFFCURVE",
"500 80 OFFCURVE",
"500 88 CURVE SMOOTH",
"500 105 OFFCURVE",
"487 119 OFFCURVE",
"470 119 CURVE SMOOTH"
);
}
);
width = 547;
}
);
unicode = 0063;
},
{
glyphname = d;
lastChange = "2016-10-26 00:21:20 +0000";
layers = (
{
layerId = UUID0;
paths = (
{
closed = 1;
nodes = (
"525 156 OFFCURVE",
"429 61 OFFCURVE",
"313 61 CURVE SMOOTH",
"196 61 OFFCURVE",
"100 157 OFFCURVE",
"100 273 CURVE SMOOTH",
"100 390 OFFCURVE",
"196 486 OFFCURVE",
"313 486 CURVE SMOOTH",
"429 486 OFFCURVE",
"525 391 OFFCURVE",
"525 273 CURVE SMOOTH"
);
},
{
closed = 1;
nodes = (
"525 448 LINE",
"506 467 LINE SMOOTH",
"453 520 OFFCURVE",
"388 547 OFFCURVE",
"313 547 CURVE SMOOTH",
"163 547 OFFCURVE",
"39 423 OFFCURVE",
"39 273 CURVE SMOOTH",
"39 124 OFFCURVE",
"163 0 OFFCURVE",
"313 0 CURVE SMOOTH",
"462 0 OFFCURVE",
"586 124 OFFCURVE",
"586 273 CURVE SMOOTH",
"586 751 LINE SMOOTH",
"586 768 OFFCURVE",
"573 781 OFFCURVE",
"556 781 CURVE SMOOTH",
"539 781 OFFCURVE",
"525 768 OFFCURVE",
"525 751 CURVE SMOOTH"
);
}
);
width = 625;
}
);
unicode = 0064;
},
{
glyphname = e;
lastChange = "2016-10-26 00:21:20 +0000";
layers = (
{
layerId = UUID0;
paths = (
{
closed = 1;
nodes = (
"101 304 LINE",
"124 418 OFFCURVE",
"212 486 OFFCURVE",
"313 486 CURVE SMOOTH",
"413 486 OFFCURVE",
"502 417 OFFCURVE",
"524 304 CURVE"
);
},
{
closed = 1;
nodes = (
"461 118 OFFCURVE",
"454 115 OFFCURVE",
"449 111 CURVE SMOOTH",
"411 78 OFFCURVE",
"366 61 OFFCURVE",
"313 61 CURVE SMOOTH",
"212 61 OFFCURVE",
"124 128 OFFCURVE",
"101 243 CURVE",
"556 243 LINE SMOOTH",
"573 243 OFFCURVE",
"586 256 OFFCURVE",
"586 273 CURVE SMOOTH",
"586 423 OFFCURVE",
"462 547 OFFCURVE",
"313 547 CURVE SMOOTH",
"163 547 OFFCURVE",
"39 423 OFFCURVE",
"39 273 CURVE SMOOTH",
"39 124 OFFCURVE",
"163 0 OFFCURVE",
"313 0 CURVE SMOOTH",
"380 0 OFFCURVE",
"440 21 OFFCURVE",
"491 66 CURVE SMOOTH",
"496 71 OFFCURVE",
"499 79 OFFCURVE",
"499 87 CURVE SMOOTH",
"499 104 OFFCURVE",
"485 118 OFFCURVE",
"468 118 CURVE SMOOTH"
);
}
);
width = 625;
}
);
unicode = 0065;
},
{
glyphname = f;
lastChange = "2016-10-26 00:21:20 +0000";
layers = (
{
layerId = UUID0;
paths = (
{
closed = 1;
nodes = (
"199 781 OFFCURVE",
"122 704 OFFCURVE",
"122 548 CURVE SMOOTH",
"122 517 LINE",
"71 517 LINE SMOOTH",
"54 517 OFFCURVE",
"41 503 OFFCURVE",
"41 486 CURVE SMOOTH",
"41 469 OFFCURVE",
"54 456 OFFCURVE",
"71 456 CURVE SMOOTH",
"122 456 LINE",
"122 30 LINE SMOOTH",
"122 13 OFFCURVE",
"135 0 OFFCURVE",
"152 0 CURVE SMOOTH",
"169 0 OFFCURVE",
"183 13 OFFCURVE",
"183 30 CURVE SMOOTH",
"183 456 LINE",
"315 456 LINE SMOOTH",
"332 456 OFFCURVE",
"345 469 OFFCURVE",
"345 486 CURVE SMOOTH",
"345 503 OFFCURVE",
"332 517 OFFCURVE",
"315 517 CURVE SMOOTH",
"183 517 LINE",
"183 548 LINE SMOOTH",
"183 663 OFFCURVE",
"240 720 OFFCURVE",
"355 720 CURVE SMOOTH",
"372 720 OFFCURVE",
"385 734 OFFCURVE",
"385 751 CURVE SMOOTH",
"385 768 OFFCURVE",
"372 781 OFFCURVE",
"355 781 CURVE SMOOTH"
);
}
);
width = 391;
}
);
unicode = 0066;
},
{
glyphname = g;
lastChange = "2016-10-26 00:21:20 +0000";
layers = (
{
layerId = UUID0;
paths = (
{
closed = 1;
nodes = (
"429 486 OFFCURVE",
"525 391 OFFCURVE",
"525 274 CURVE SMOOTH",
"525 158 OFFCURVE",
"429 62 OFFCURVE",
"313 62 CURVE SMOOTH",
"196 62 OFFCURVE",
"100 158 OFFCURVE",
"100 274 CURVE SMOOTH",
"100 391 OFFCURVE",
"196 486 OFFCURVE",
"313 486 CURVE SMOOTH"
);
},
{
closed = 1;
nodes = (
"525 -2 LINE SMOOTH",
"525 -98 OFFCURVE",
"420 -174 OFFCURVE",
"317 -174 CURVE SMOOTH",
"233 -174 OFFCURVE",
"158 -133 OFFCURVE",
"112 -53 CURVE",
"105 -40 OFFCURVE",
"94 -34 OFFCURVE",
"83 -34 CURVE SMOOTH",
"66 -34 OFFCURVE",
"53 -47 OFFCURVE",
"53 -64 CURVE SMOOTH",
"53 -87 OFFCURVE",
"86 -125 OFFCURVE",
"109 -148 CURVE SMOOTH",
"167 -206 OFFCURVE",
"235 -234 OFFCURVE",
"317 -234 CURVE SMOOTH",
"448 -234 OFFCURVE",
"586 -141 OFFCURVE",
"586 -2 CURVE SMOOTH",
"586 274 LINE SMOOTH",
"586 424 OFFCURVE",
"462 547 OFFCURVE",
"313 547 CURVE SMOOTH",
"163 547 OFFCURVE",
"39 424 OFFCURVE",
"39 274 CURVE SMOOTH",
"39 125 OFFCURVE",
"162 1 OFFCURVE",
"313 1 CURVE SMOOTH",
"395 1 OFFCURVE",
"465 34 OFFCURVE",
"525 100 CURVE"
);
}
);
width = 625;
}
);
unicode = 0067;
},
{
glyphname = h;
lastChange = "2016-10-26 00:21:20 +0000";
layers = (
{
layerId = UUID0;
paths = (
{
closed = 1;
nodes = (
"40 30 LINE SMOOTH",
"40 13 OFFCURVE",
"53 0 OFFCURVE",
"70 0 CURVE SMOOTH",
"87 0 OFFCURVE",
"100 13 OFFCURVE",
"100 30 CURVE SMOOTH",
"100 293 LINE SMOOTH",
"100 400 OFFCURVE",
"189 486 OFFCURVE",
"292 486 CURVE SMOOTH",
"395 486 OFFCURVE",
"485 401 OFFCURVE",
"485 293 CURVE SMOOTH",
"485 30 LINE SMOOTH",
"485 13 OFFCURVE",
"498 0 OFFCURVE",
"515 0 CURVE SMOOTH",
"532 0 OFFCURVE",
"546 13 OFFCURVE",
"546 30 CURVE SMOOTH",
"546 293 LINE SMOOTH",
"546 431 OFFCURVE",
"432 547 OFFCURVE",
"292 547 CURVE SMOOTH",
"224 547 OFFCURVE",
"160 518 OFFCURVE",
"100 460 CURVE",
"100 752 LINE SMOOTH",
"100 769 OFFCURVE",
"87 782 OFFCURVE",
"70 782 CURVE SMOOTH",
"53 782 OFFCURVE",
"40 769 OFFCURVE",
"40 752 CURVE SMOOTH"
);
}
);
width = 586;
}
);
unicode = 0068;
},
{
glyphname = i;
lastChange = "2016-10-26 00:21:20 +0000";
layers = (
{
layerId = UUID0;
paths = (
{
closed = 1;
nodes = (
"154 701 OFFCURVE",
"136 719 OFFCURVE",
"113 719 CURVE SMOOTH",
"91 719 OFFCURVE",
"73 701 OFFCURVE",
"73 679 CURVE SMOOTH",
"73 656 OFFCURVE",
"91 638 OFFCURVE",
"113 638 CURVE SMOOTH",
"136 638 OFFCURVE",
"154 656 OFFCURVE",
"154 679 CURVE SMOOTH"
);
},
{
closed = 1;
nodes = (
"83 30 LINE SMOOTH",
"83 13 OFFCURVE",
"96 0 OFFCURVE",
"113 0 CURVE SMOOTH",
"130 0 OFFCURVE",
"144 13 OFFCURVE",
"144 30 CURVE SMOOTH",
"144 517 LINE SMOOTH",
"144 534 OFFCURVE",
"130 547 OFFCURVE",
"113 547 CURVE SMOOTH",
"96 547 OFFCURVE",
"83 534 OFFCURVE",
"83 517 CURVE SMOOTH"
);
}
);
width = 234;
}
);
unicode = 0069;
},
{
glyphname = j;
lastChange = "2016-10-26 00:21:20 +0000";
layers = (
{
layerId = UUID0;
paths = (
{
closed = 1;
nodes = (
"275 701 OFFCURVE",
"257 719 OFFCURVE",
"234 719 CURVE SMOOTH",
"212 719 OFFCURVE",
"194 701 OFFCURVE",
"194 679 CURVE SMOOTH",
"194 656 OFFCURVE",
"212 638 OFFCURVE",
"234 638 CURVE SMOOTH",
"257 638 OFFCURVE",
"275 656 OFFCURVE",
"275 679 CURVE SMOOTH"
);
},
{
closed = 1;
nodes = (
"204 -1 LINE SMOOTH",
"204 -95 OFFCURVE",
"126 -173 OFFCURVE",
"32 -173 CURVE SMOOTH",
"15 -173 OFFCURVE",
"1 -187 OFFCURVE",
"1 -204 CURVE SMOOTH",
"1 -221 OFFCURVE",
"15 -234 OFFCURVE",
"32 -234 CURVE SMOOTH",
"160 -234 OFFCURVE",
"265 -129 OFFCURVE",
"265 -1 CURVE SMOOTH",
"265 517 LINE SMOOTH",
"265 534 OFFCURVE",
"251 547 OFFCURVE",
"234 547 CURVE SMOOTH",
"217 547 OFFCURVE",
"204 534 OFFCURVE",
"204 517 CURVE SMOOTH"
);
}
);
width = 320;
}
);
unicode = 006A;
},
{
glyphname = k;
lastChange = "2016-10-26 00:21:20 +0000";
layers = (
{
layerId = UUID0;
paths = (
{
closed = 1;
nodes = (
"101 752 LINE SMOOTH",
"101 769 OFFCURVE",
"87 782 OFFCURVE",
"70 782 CURVE SMOOTH",
"53 782 OFFCURVE",
"40 769 OFFCURVE",
"40 752 CURVE SMOOTH",
"40 30 LINE SMOOTH",
"40 13 OFFCURVE",
"53 0 OFFCURVE",
"70 0 CURVE SMOOTH",
"87 0 OFFCURVE",
"101 13 OFFCURVE",
"101 30 CURVE SMOOTH",
"101 237 LINE",
"196 299 LINE",
"453 10 LINE SMOOTH",
"459 3 OFFCURVE",
"467 0 OFFCURVE",
"475 0 CURVE SMOOTH",
"492 0 OFFCURVE",
"505 13 OFFCURVE",
"505 30 CURVE SMOOTH",
"505 39 OFFCURVE",
"502 46 OFFCURVE",
"497 52 CURVE SMOOTH",
"249 332 LINE",
"496 494 LINE",
"502 499 OFFCURVE",
"505 506 OFFCURVE",
"505 517 CURVE SMOOTH",
"505 534 OFFCURVE",
"492 547 OFFCURVE",
"475 547 CURVE SMOOTH",
"469 547 OFFCURVE",
"463 545 OFFCURVE",
"459 542 CURVE SMOOTH",
"101 310 LINE"
);
}
);
width = 547;
}
);
unicode = 006B;
},
{
glyphname = l;
lastChange = "2016-10-26 00:21:20 +0000";
layers = (
{
layerId = UUID0;
paths = (
{
closed = 1;
nodes = (
"42 30 LINE SMOOTH",
"42 13 OFFCURVE",
"56 0 OFFCURVE",
"73 0 CURVE SMOOTH",
"154 0 LINE SMOOTH",
"171 0 OFFCURVE",
"185 13 OFFCURVE",
"185 30 CURVE SMOOTH",
"185 47 OFFCURVE",
"171 61 OFFCURVE",
"154 61 CURVE SMOOTH",
"104 61 LINE",
"104 752 LINE SMOOTH",
"104 769 OFFCURVE",
"90 782 OFFCURVE",
"73 782 CURVE SMOOTH",
"56 782 OFFCURVE",
"42 769 OFFCURVE",
"42 752 CURVE SMOOTH"
);
}
);
width = 234;
}
);
unicode = 006C;
},
{
glyphname = m;
lastChange = "2016-10-26 00:21:20 +0000";
layers = (
{
layerId = UUID0;
paths = (
{
closed = 1;
nodes = (
"98 334 LINE SMOOTH",
"98 417 OFFCURVE",
"167 486 OFFCURVE",
"250 486 CURVE SMOOTH",
"332 486 OFFCURVE",
"401 417 OFFCURVE",
"401 334 CURVE SMOOTH",
"401 30 LINE SMOOTH",
"401 13 OFFCURVE",
"415 0 OFFCURVE",
"432 0 CURVE SMOOTH",
"449 0 OFFCURVE",
"462 13 OFFCURVE",
"462 30 CURVE SMOOTH",
"462 334 LINE SMOOTH",
"462 417 OFFCURVE",
"532 486 OFFCURVE",
"614 486 CURVE SMOOTH",
"696 486 OFFCURVE",
"766 417 OFFCURVE",
"766 334 CURVE SMOOTH",
"766 30 LINE SMOOTH",
"766 13 OFFCURVE",
"779 0 OFFCURVE",
"796 0 CURVE SMOOTH",
"813 0 OFFCURVE",
"827 13 OFFCURVE",
"827 30 CURVE SMOOTH",
"827 334 LINE SMOOTH",
"827 451 OFFCURVE",
"730 547 OFFCURVE",
"614 547 CURVE SMOOTH",
"539 547 OFFCURVE",
"481 513 OFFCURVE",
"432 446 CURVE",
"381 514 OFFCURVE",
"325 547 OFFCURVE",
"250 547 CURVE SMOOTH",
"198 547 OFFCURVE",
"147 526 OFFCURVE",
"98 484 CURVE",
"98 517 LINE SMOOTH",
"98 534 OFFCURVE",
"84 547 OFFCURVE",
"67 547 CURVE SMOOTH",
"50 547 OFFCURVE",
"37 534 OFFCURVE",
"37 517 CURVE SMOOTH",
"37 30 LINE SMOOTH",
"37 13 OFFCURVE",
"50 0 OFFCURVE",
"67 0 CURVE SMOOTH",
"84 0 OFFCURVE",
"98 13 OFFCURVE",
"98 30 CURVE SMOOTH"
);
}
);
width = 859;
}
);
unicode = 006D;
},
{
glyphname = n;
lastChange = "2016-10-26 00:21:20 +0000";
layers = (
{
layerId = UUID0;
paths = (
{
closed = 1;
nodes = (
"40 30 LINE SMOOTH",
"40 13 OFFCURVE",
"53 0 OFFCURVE",
"70 0 CURVE SMOOTH",
"87 0 OFFCURVE",
"100 13 OFFCURVE",
"100 30 CURVE SMOOTH",
"100 293 LINE SMOOTH",
"100 400 OFFCURVE",
"189 486 OFFCURVE",
"292 486 CURVE SMOOTH",
"395 486 OFFCURVE",
"485 401 OFFCURVE",
"485 293 CURVE SMOOTH",
"485 30 LINE SMOOTH",
"485 13 OFFCURVE",
"498 0 OFFCURVE",
"515 0 CURVE SMOOTH",
"532 0 OFFCURVE",
"546 13 OFFCURVE",
"546 30 CURVE SMOOTH",
"546 293 LINE SMOOTH",
"546 431 OFFCURVE",
"432 547 OFFCURVE",
"292 547 CURVE SMOOTH",
"224 547 OFFCURVE",
"160 518 OFFCURVE",
"100 460 CURVE",
"100 517 LINE SMOOTH",
"100 534 OFFCURVE",
"87 547 OFFCURVE",
"70 547 CURVE SMOOTH",
"53 547 OFFCURVE",
"40 534 OFFCURVE",
"40 517 CURVE SMOOTH"
);
}
);
width = 586;
}
);
unicode = 006E;
},
{
glyphname = o;
lastChange = "2016-10-26 00:21:20 +0000";
layers = (
{
layerId = UUID0;
paths = (
{
closed = 1;
nodes = (
"586 423 OFFCURVE",
"462 547 OFFCURVE",
"313 547 CURVE SMOOTH",
"163 547 OFFCURVE",
"39 423 OFFCURVE",
"39 273 CURVE SMOOTH",
"39 124 OFFCURVE",
"163 0 OFFCURVE",
"313 0 CURVE SMOOTH",
"462 0 OFFCURVE",
"586 124 OFFCURVE",
"586 273 CURVE SMOOTH"
);
},
{
closed = 1;
nodes = (
"429 486 OFFCURVE",
"525 391 OFFCURVE",
"525 273 CURVE SMOOTH",
"525 156 OFFCURVE",
"429 61 OFFCURVE",
"313 61 CURVE SMOOTH",
"196 61 OFFCURVE",
"100 157 OFFCURVE",
"100 273 CURVE SMOOTH",
"100 390 OFFCURVE",
"196 486 OFFCURVE",
"313 486 CURVE SMOOTH"
);
}
);
width = 625;
}
);
unicode = 006F;
},
{
glyphname = p;
lastChange = "2016-10-26 00:21:20 +0000";
layers = (
{
layerId = UUID0;
paths = (
{
closed = 1;
nodes = (
"100 390 OFFCURVE",
"196 486 OFFCURVE",
"313 486 CURVE SMOOTH",
"429 486 OFFCURVE",
"525 391 OFFCURVE",
"525 273 CURVE SMOOTH",
"525 156 OFFCURVE",
"429 61 OFFCURVE",
"313 61 CURVE SMOOTH",
"196 61 OFFCURVE",
"100 157 OFFCURVE",
"100 273 CURVE SMOOTH"
);
},
{
closed = 1;
nodes = (
"100 99 LINE",
"119 80 LINE SMOOTH",
"173 27 OFFCURVE",
"236 0 OFFCURVE",
"313 0 CURVE SMOOTH",
"462 0 OFFCURVE",
"586 124 OFFCURVE",
"586 273 CURVE SMOOTH",
"586 423 OFFCURVE",
"462 547 OFFCURVE",
"313 547 CURVE SMOOTH",
"163 547 OFFCURVE",
"39 423 OFFCURVE",
"39 273 CURVE SMOOTH",
"39 -204 LINE SMOOTH",
"39 -221 OFFCURVE",
"52 -234 OFFCURVE",
"69 -234 CURVE SMOOTH",
"86 -234 OFFCURVE",
"100 -221 OFFCURVE",
"100 -204 CURVE SMOOTH"
);
}
);
width = 625;
}
);
unicode = 0070;
},
{
glyphname = q;
lastChange = "2016-10-26 00:21:20 +0000";
layers = (
{
layerId = UUID0;
paths = (
{
closed = 1;
nodes = (
"429 486 OFFCURVE",
"525 391 OFFCURVE",
"525 273 CURVE SMOOTH",
"525 156 OFFCURVE",
"429 61 OFFCURVE",
"313 61 CURVE SMOOTH",
"196 61 OFFCURVE",
"100 157 OFFCURVE",
"100 273 CURVE SMOOTH",
"100 390 OFFCURVE",
"196 486 OFFCURVE",
"313 486 CURVE SMOOTH"
);
},
{
closed = 1;
nodes = (
"525 -204 LINE SMOOTH",
"525 -221 OFFCURVE",
"539 -234 OFFCURVE",
"556 -234 CURVE SMOOTH",
"573 -234 OFFCURVE",
"586 -221 OFFCURVE",
"586 -204 CURVE SMOOTH",
"586 273 LINE SMOOTH",
"586 423 OFFCURVE",
"462 547 OFFCURVE",
"313 547 CURVE SMOOTH",
"163 547 OFFCURVE",
"39 423 OFFCURVE",
"39 273 CURVE SMOOTH",
"39 124 OFFCURVE",
"163 0 OFFCURVE",
"313 0 CURVE SMOOTH",
"388 0 OFFCURVE",
"453 27 OFFCURVE",
"506 80 CURVE SMOOTH",
"525 99 LINE"
);
}
);
width = 625;
}
);
unicode = 0071;
},
{
glyphname = r;
lastChange = "2016-10-26 00:21:20 +0000";
layers = (
{
layerId = UUID0;
paths = (
{
closed = 1;
nodes = (
"41 30 LINE SMOOTH",
"41 13 OFFCURVE",
"54 0 OFFCURVE",
"71 0 CURVE SMOOTH",
"88 0 OFFCURVE",
"101 13 OFFCURVE",
"101 30 CURVE SMOOTH",
"101 273 LINE SMOOTH",
"101 390 OFFCURVE",
"198 486 OFFCURVE",
"314 486 CURVE SMOOTH",
"347 486 OFFCURVE",
"374 481 OFFCURVE",
"397 470 CURVE SMOOTH",
"401 468 OFFCURVE",
"405 467 OFFCURVE",
"411 467 CURVE SMOOTH",
"428 467 OFFCURVE",
"441 480 OFFCURVE",
"441 497 CURVE SMOOTH",
"441 536 OFFCURVE",
"369 547 OFFCURVE",
"314 547 CURVE SMOOTH",
"238 547 OFFCURVE",
"167 514 OFFCURVE",
"101 448 CURVE",
"101 517 LINE SMOOTH",
"101 534 OFFCURVE",
"88 547 OFFCURVE",
"71 547 CURVE SMOOTH",
"54 547 OFFCURVE",
"41 534 OFFCURVE",
"41 517 CURVE SMOOTH"
);
}
);
width = 469;
}
);
unicode = 0072;
},
{
glyphname = s;
lastChange = "2016-10-26 00:21:20 +0000";
layers = (
{
layerId = UUID0;
paths = (
{
closed = 1;
nodes = (
"382 201 LINE",
"402 193 OFFCURVE",
"413 180 OFFCURVE",
"414 159 CURVE",
"414 93 OFFCURVE",
"324 61 OFFCURVE",
"258 61 CURVE SMOOTH",
"199 61 OFFCURVE",
"149 82 OFFCURVE",
"107 123 CURVE SMOOTH",
"92 138 LINE SMOOTH",
"87 144 OFFCURVE",
"81 146 OFFCURVE",
"73 146 CURVE SMOOTH",
"56 146 OFFCURVE",
"42 132 OFFCURVE",
"42 115 CURVE SMOOTH",
"42 108 OFFCURVE",
"44 103 OFFCURVE",
"48 98 CURVE",
"106 33 OFFCURVE",
"176 0 OFFCURVE",
"258 0 CURVE SMOOTH",
"360 0 OFFCURVE",
"476 59 OFFCURVE",
"476 152 CURVE SMOOTH",
"476 199 OFFCURVE",
"457 235 OFFCURVE",
"382 264 CURVE",
"382 264 LINE",
"133 346 LINE",
"113 354 OFFCURVE",
"103 368 OFFCURVE",
"101 388 CURVE",
"101 453 OFFCURVE",
"191 486 OFFCURVE",
"258 486 CURVE SMOOTH",
"316 486 OFFCURVE",
"367 465 OFFCURVE",
"408 424 CURVE SMOOTH",
"423 409 LINE",
"428 403 OFFCURVE",
"434 401 OFFCURVE",
"442 401 CURVE SMOOTH",
"459 401 OFFCURVE",
"473 415 OFFCURVE",
"473 432 CURVE SMOOTH",
"473 438 OFFCURVE",
"471 444 OFFCURVE",
"468 449 CURVE",
"411 511 OFFCURVE",
"338 547 OFFCURVE",
"258 547 CURVE SMOOTH",
"155 547 OFFCURVE",
"40 489 OFFCURVE",
"40 395 CURVE SMOOTH",
"40 348 OFFCURVE",
"58 312 OFFCURVE",
"134 283 CURVE",
"133 283 LINE"
);
}
);
width = 518;
}
);
unicode = 0073;
},
{
glyphname = t;
lastChange = "2016-10-26 00:21:20 +0000";
layers = (
{
layerId = UUID0;
paths = (
{
closed = 1;
nodes = (
"227 61 OFFCURVE",
"183 104 OFFCURVE",
"183 192 CURVE SMOOTH",
"183 486 LINE",
"274 486 LINE SMOOTH",
"292 486 OFFCURVE",
"305 500 OFFCURVE",
"305 517 CURVE SMOOTH",
"305 534 OFFCURVE",
"292 547 OFFCURVE",
"274 547 CURVE SMOOTH",
"183 547 LINE",
"183 751 LINE SMOOTH",
"183 769 OFFCURVE",
"169 782 OFFCURVE",
"152 782 CURVE SMOOTH",
"135 782 OFFCURVE",
"122 769 OFFCURVE",
"122 751 CURVE SMOOTH",
"122 547 LINE",
"72 547 LINE SMOOTH",
"55 547 OFFCURVE",
"41 534 OFFCURVE",
"41 517 CURVE SMOOTH",
"41 500 OFFCURVE",
"55 486 OFFCURVE",
"72 486 CURVE SMOOTH",
"122 486 LINE",
"122 192 LINE SMOOTH",
"122 64 OFFCURVE",
"186 0 OFFCURVE",
"314 0 CURVE SMOOTH",
"332 0 OFFCURVE",
"345 13 OFFCURVE",
"345 30 CURVE SMOOTH",
"345 47 OFFCURVE",
"332 61 OFFCURVE",
"314 61 CURVE SMOOTH"
);
}
);
width = 391;
}
);
unicode = 0074;
},
{
glyphname = u;
lastChange = "2016-10-26 00:21:20 +0000";
layers = (
{
layerId = UUID0;
paths = (
{
closed = 1;
nodes = (
"546 517 LINE SMOOTH",
"546 534 OFFCURVE",
"532 547 OFFCURVE",
"515 547 CURVE SMOOTH",
"498 547 OFFCURVE",
"485 534 OFFCURVE",
"485 517 CURVE SMOOTH",
"485 253 LINE SMOOTH",
"485 148 OFFCURVE",
"397 61 OFFCURVE",
"292 61 CURVE SMOOTH",
"189 61 OFFCURVE",
"100 146 OFFCURVE",
"100 253 CURVE SMOOTH",
"100 517 LINE SMOOTH",
"100 534 OFFCURVE",
"87 547 OFFCURVE",
"70 547 CURVE SMOOTH",
"53 547 OFFCURVE",
"40 534 OFFCURVE",
"40 517 CURVE SMOOTH",
"40 253 LINE SMOOTH",
"40 111 OFFCURVE",
"155 0 OFFCURVE",
"292 0 CURVE SMOOTH",
"361 0 OFFCURVE",
"425 29 OFFCURVE",
"485 87 CURVE",
"485 30 LINE SMOOTH",
"485 13 OFFCURVE",
"498 0 OFFCURVE",
"515 0 CURVE SMOOTH",
"532 0 OFFCURVE",
"546 13 OFFCURVE",
"546 30 CURVE SMOOTH"
);
}
);
width = 586;
}
);
unicode = 0075;
},
{
glyphname = v;
lastChange = "2016-10-26 00:21:20 +0000";
layers = (
{
layerId = UUID0;
paths = (
{
closed = 1;
nodes = (
"316 10 OFFCURVE",
"317 12 OFFCURVE",
"319 15 CURVE SMOOTH",
"543 505 LINE SMOOTH",
"545 508 OFFCURVE",
"546 512 OFFCURVE",
"546 517 CURVE SMOOTH",
"546 534 OFFCURVE",
"532 547 OFFCURVE",
"515 547 CURVE SMOOTH",
"504 547 OFFCURVE",
"494 542 OFFCURVE",
"488 531 CURVE",
"292 104 LINE",
"97 531 LINE SMOOTH",
"92 542 OFFCURVE",
"81 547 OFFCURVE",
"70 547 CURVE SMOOTH",
"53 547 OFFCURVE",
"40 534 OFFCURVE",
"40 517 CURVE SMOOTH",
"40 512 OFFCURVE",
"40 508 OFFCURVE",
"42 505 CURVE SMOOTH",
"266 15 LINE",
"270 6 OFFCURVE",
"281 0 OFFCURVE",
"292 0 CURVE SMOOTH",
"302 0 OFFCURVE",
"309 2 OFFCURVE",
"313 7 CURVE SMOOTH"
);
}
);
width = 586;
}
);
unicode = 0076;
},
{
glyphname = w;
lastChange = "2016-10-26 00:21:20 +0000";
layers = (
{
layerId = UUID0;
paths = (
{
closed = 1;
nodes = (
"368 535 OFFCURVE",
"364 530 OFFCURVE",
"362 523 CURVE SMOOTH",
"230 126 LINE",
"96 529 LINE",
"91 541 OFFCURVE",
"79 547 OFFCURVE",
"68 547 CURVE SMOOTH",
"51 547 OFFCURVE",
"38 534 OFFCURVE",
"38 517 CURVE SMOOTH",
"38 513 OFFCURVE",
"39 509 OFFCURVE",
"40 504 CURVE SMOOTH",
"202 19 LINE SMOOTH",
"206 7 OFFCURVE",
"217 0 OFFCURVE",
"230 0 CURVE SMOOTH",
"242 0 OFFCURVE",
"254 6 OFFCURVE",
"258 19 CURVE SMOOTH",
"392 420 LINE",
"526 19 LINE SMOOTH",
"530 7 OFFCURVE",
"541 0 OFFCURVE",
"554 0 CURVE SMOOTH",
"568 0 OFFCURVE",
"579 7 OFFCURVE",
"583 19 CURVE SMOOTH",
"744 504 LINE SMOOTH",
"746 508 OFFCURVE",
"747 513 OFFCURVE",
"747 517 CURVE SMOOTH",
"747 534 OFFCURVE",
"733 547 OFFCURVE",
"716 547 CURVE SMOOTH",
"704 547 OFFCURVE",
"693 541 OFFCURVE",
"688 529 CURVE",
"554 126 LINE",
"422 523 LINE SMOOTH",
"417 538 OFFCURVE",
"407 547 OFFCURVE",
"392 547 CURVE SMOOTH",
"384 547 OFFCURVE",
"377 544 OFFCURVE",
"371 539 CURVE SMOOTH"
);
}
);
width = 781;
}
);
unicode = 0077;
},
{
glyphname = x;
lastChange = "2016-10-26 00:21:20 +0000";
layers = (
{
layerId = UUID0;
paths = (
{
closed = 1;
nodes = (
"45 49 LINE SMOOTH",
"41 43 OFFCURVE",
"40 37 OFFCURVE",
"40 30 CURVE SMOOTH",
"40 13 OFFCURVE",
"53 0 OFFCURVE",
"70 0 CURVE SMOOTH",
"79 0 OFFCURVE",
"85 3 OFFCURVE",
"91 9 CURVE SMOOTH",
"272 227 LINE",
"455 9 LINE SMOOTH",
"460 3 OFFCURVE",
"467 0 OFFCURVE",
"475 0 CURVE SMOOTH",
"492 0 OFFCURVE",
"505 13 OFFCURVE",
"505 30 CURVE SMOOTH",
"505 37 OFFCURVE",
"503 43 OFFCURVE",
"500 49 CURVE",
"312 274 LINE",
"499 497 LINE SMOOTH",
"503 502 OFFCURVE",
"505 509 OFFCURVE",
"505 517 CURVE SMOOTH",
"505 534 OFFCURVE",
"492 547 OFFCURVE",
"475 547 CURVE SMOOTH",
"467 547 OFFCURVE",
"459 544 OFFCURVE",
"453 538 CURVE",
"272 322 LINE",
"92 538 LINE",
"86 544 OFFCURVE",
"79 547 OFFCURVE",
"70 547 CURVE SMOOTH",
"52 547 OFFCURVE",
"40 533 OFFCURVE",
"40 515 CURVE SMOOTH",
"40 507 OFFCURVE",
"42 501 OFFCURVE",
"47 497 CURVE SMOOTH",
"233 274 LINE"
);
}
);
width = 547;
}
);
unicode = 0078;
},
{
glyphname = y;
lastChange = "2016-10-26 00:21:20 +0000";
layers = (
{
layerId = UUID0;
paths = (
{
closed = 1;
nodes = (
"146 -193 LINE SMOOTH",
"145 -196 OFFCURVE",
"144 -200 OFFCURVE",
"144 -204 CURVE SMOOTH",
"144 -221 OFFCURVE",
"157 -234 OFFCURVE",
"174 -234 CURVE SMOOTH",
"186 -234 OFFCURVE",
"199 -228 OFFCURVE",
"203 -214 CURVE",
"504 506 LINE SMOOTH",
"505 510 OFFCURVE",
"506 513 OFFCURVE",
"506 517 CURVE SMOOTH",
"505 534 OFFCURVE",
"492 547 OFFCURVE",
"475 547 CURVE SMOOTH",
"460 547 OFFCURVE",
"451 540 OFFCURVE",
"446 526 CURVE",
"272 111 LINE",
"99 526 LINE",
"94 541 OFFCURVE",
"83 547 OFFCURVE",
"70 547 CURVE SMOOTH",
"53 547 OFFCURVE",
"40 534 OFFCURVE",
"40 517 CURVE SMOOTH",
"40 513 OFFCURVE",
"40 509 OFFCURVE",
"42 504 CURVE",
"239 31 LINE"
);
}
);
width = 547;
}
);
unicode = 0079;
},
{
glyphname = z;
lastChange = "2016-10-26 00:21:20 +0000";
layers = (
{
layerId = UUID0;
paths = (
{
closed = 1;
nodes = (
"134 61 LINE",
"499 497 LINE SMOOTH",
"503 502 OFFCURVE",
"505 509 OFFCURVE",
"505 517 CURVE SMOOTH",
"505 534 OFFCURVE",
"492 547 OFFCURVE",
"475 547 CURVE SMOOTH",
"70 547 LINE SMOOTH",
"53 547 OFFCURVE",
"40 534 OFFCURVE",
"40 517 CURVE SMOOTH",
"40 500 OFFCURVE",
"53 486 OFFCURVE",
"70 486 CURVE SMOOTH",
"410 486 LINE",
"45 49 LINE SMOOTH",
"41 43 OFFCURVE",
"40 37 OFFCURVE",
"40 30 CURVE SMOOTH",
"40 13 OFFCURVE",
"53 0 OFFCURVE",
"70 0 CURVE SMOOTH",
"475 0 LINE SMOOTH",
"492 0 OFFCURVE",
"505 13 OFFCURVE",
"505 30 CURVE SMOOTH",
"505 47 OFFCURVE",
"492 61 OFFCURVE",
"475 61 CURVE SMOOTH"
);
}
);
width = 547;
}
);
unicode = 007A;
},
{
glyphname = braceleft;
lastChange = "2016-10-26 00:21:20 +0000";
layers = (
{
layerId = UUID0;
paths = (
{
closed = 1;
nodes = (
"213 782 OFFCURVE",
"163 731 OFFCURVE",
"163 630 CURVE SMOOTH",
"163 395 LINE SMOOTH",
"163 334 OFFCURVE",
"132 304 OFFCURVE",
"72 304 CURVE SMOOTH",
"55 304 OFFCURVE",
"41 291 OFFCURVE",
"41 273 CURVE SMOOTH",
"41 256 OFFCURVE",
"55 243 OFFCURVE",
"72 243 CURVE SMOOTH",
"132 243 OFFCURVE",
"163 213 OFFCURVE",
"163 152 CURVE SMOOTH",
"163 -83 LINE SMOOTH",
"163 -184 OFFCURVE",
"213 -234 OFFCURVE",
"314 -234 CURVE SMOOTH",
"332 -234 OFFCURVE",
"345 -221 OFFCURVE",
"345 -204 CURVE SMOOTH",
"345 -187 OFFCURVE",
"332 -173 OFFCURVE",
"314 -173 CURVE SMOOTH",
"254 -173 OFFCURVE",
"224 -143 OFFCURVE",
"224 -83 CURVE SMOOTH",
"224 152 LINE SMOOTH",
"224 204 OFFCURVE",
"208 244 OFFCURVE",
"179 273 CURVE",
"208 303 OFFCURVE",
"224 343 OFFCURVE",
"224 395 CURVE SMOOTH",
"224 630 LINE SMOOTH",
"224 690 OFFCURVE",
"254 721 OFFCURVE",
"314 721 CURVE SMOOTH",
"332 721 OFFCURVE",
"345 734 OFFCURVE",
"345 751 CURVE SMOOTH",
"345 769 OFFCURVE",
"332 782 OFFCURVE",
"314 782 CURVE SMOOTH"
);
}
);
width = 391;
}
);
unicode = 007B;
},
{
glyphname = bar;
lastChange = "2016-10-26 00:21:20 +0000";
layers = (
{
layerId = UUID0;
paths = (
{
closed = 1;
nodes = (
"163 -204 LINE SMOOTH",
"163 -221 OFFCURVE",
"176 -234 OFFCURVE",
"193 -234 CURVE SMOOTH",
"210 -234 OFFCURVE",
"224 -221 OFFCURVE",
"224 -204 CURVE SMOOTH",
"224 752 LINE SMOOTH",
"224 769 OFFCURVE",
"210 782 OFFCURVE",
"193 782 CURVE SMOOTH",
"176 782 OFFCURVE",
"163 769 OFFCURVE",
"163 752 CURVE SMOOTH"
);
}
);
width = 391;
}
);
unicode = 007C;
},
{
glyphname = braceright;
lastChange = "2016-10-26 00:21:20 +0000";
layers = (
{
layerId = UUID0;
paths = (
{
closed = 1;
nodes = (
"224 630 LINE SMOOTH",
"224 731 OFFCURVE",
"173 782 OFFCURVE",
"72 782 CURVE SMOOTH",
"55 782 OFFCURVE",
"41 769 OFFCURVE",
"41 751 CURVE SMOOTH",
"41 734 OFFCURVE",
"55 721 OFFCURVE",
"72 721 CURVE SMOOTH",
"132 721 OFFCURVE",
"163 690 OFFCURVE",
"163 630 CURVE SMOOTH",
"163 395 LINE SMOOTH",
"163 344 OFFCURVE",
"177 303 OFFCURVE",
"207 273 CURVE",
"177 244 OFFCURVE",
"163 203 OFFCURVE",
"163 152 CURVE SMOOTH",
"163 -83 LINE SMOOTH",
"163 -143 OFFCURVE",
"132 -173 OFFCURVE",
"72 -173 CURVE SMOOTH",
"55 -173 OFFCURVE",
"41 -187 OFFCURVE",
"41 -204 CURVE SMOOTH",
"41 -221 OFFCURVE",
"55 -234 OFFCURVE",
"72 -234 CURVE SMOOTH",
"173 -234 OFFCURVE",
"224 -184 OFFCURVE",
"224 -83 CURVE SMOOTH",
"224 152 LINE SMOOTH",
"224 213 OFFCURVE",
"254 243 OFFCURVE",
"314 243 CURVE SMOOTH",
"332 243 OFFCURVE",
"345 256 OFFCURVE",
"345 273 CURVE SMOOTH",
"345 291 OFFCURVE",
"332 304 OFFCURVE",
"314 304 CURVE SMOOTH",
"254 304 OFFCURVE",
"224 334 OFFCURVE",
"224 395 CURVE SMOOTH"
);
}
);
width = 391;
}
);
unicode = 007D;
},
{
glyphname = asciitilde;
lastChange = "2016-10-26 00:21:20 +0000";
layers = (
{
layerId = UUID0;
paths = (
{
closed = 1;
nodes = (
"270 359 OFFCURVE",
"289 366 OFFCURVE",
"310 366 CURVE SMOOTH",
"335 366 OFFCURVE",
"356 356 OFFCURVE",
"374 338 CURVE SMOOTH",
"379 333 OFFCURVE",
"388 330 OFFCURVE",
"396 330 CURVE SMOOTH",
"413 330 OFFCURVE",
"426 343 OFFCURVE",
"426 360 CURVE SMOOTH",
"426 403 OFFCURVE",
"348 426 OFFCURVE",
"310 426 CURVE SMOOTH",
"271 426 OFFCURVE",
"238 413 OFFCURVE",
"208 388 CURVE SMOOTH",
"193 374 OFFCURVE",
"173 368 OFFCURVE",
"152 368 CURVE SMOOTH",
"126 368 OFFCURVE",
"105 377 OFFCURVE",
"87 396 CURVE SMOOTH",
"82 401 OFFCURVE",
"75 404 OFFCURVE",
"66 404 CURVE SMOOTH",
"49 404 OFFCURVE",
"36 390 OFFCURVE",
"36 373 CURVE SMOOTH",
"36 330 OFFCURVE",
"114 307 OFFCURVE",
"152 307 CURVE SMOOTH",
"190 307 OFFCURVE",
"224 320 OFFCURVE",
"252 345 CURVE"
);
}
);
width = 469;
}
);
unicode = 007E;
},
{
glyphname = exclamdown;
lastChange = "2016-10-26 00:21:20 +0000";
layers = (
{
layerId = UUID0;
paths = (
{
closed = 1;
nodes = (
"122 445 OFFCURVE",
"144 467 OFFCURVE",
"144 496 CURVE SMOOTH",
"144 523 OFFCURVE",
"123 546 OFFCURVE",
"94 546 CURVE SMOOTH",
"65 546 OFFCURVE",
"43 524 OFFCURVE",
"43 496 CURVE SMOOTH",
"43 466 OFFCURVE",
"66 445 OFFCURVE",
"94 445 CURVE SMOOTH"
);
},
{
closed = 1;
nodes = (
"63 -204 LINE SMOOTH",
"63 -221 OFFCURVE",
"77 -234 OFFCURVE",
"94 -234 CURVE SMOOTH",
"111 -234 OFFCURVE",
"124 -221 OFFCURVE",
"124 -204 CURVE SMOOTH",
"124 354 LINE SMOOTH",
"124 371 OFFCURVE",
"111 384 OFFCURVE",
"94 384 CURVE SMOOTH",
"78 384 OFFCURVE",
"63 370 OFFCURVE",
"63 354 CURVE SMOOTH"
);
}
);
width = 195;
}
);
unicode = 00A1;
},
{
glyphname = cent;
lastChange = "2016-10-26 00:21:20 +0000";
layers = (
{
layerId = UUID0;
paths = (
{
closed = 1;
nodes = (
"176 113 LINE",
"128 162 OFFCURVE",
"104 215 OFFCURVE",
"104 273 CURVE SMOOTH",
"104 386 OFFCURVE",
"188 482 OFFCURVE",
"325 487 CURVE"
);
},
{
closed = 1;
nodes = (
"83 -120 LINE SMOOTH",
"81 -124 OFFCURVE",
"80 -128 OFFCURVE",
"80 -133 CURVE SMOOTH",
"80 -150 OFFCURVE",
"93 -163 OFFCURVE",
"110 -163 CURVE SMOOTH",
"123 -163 OFFCURVE",
"135 -155 OFFCURVE",
"139 -143 CURVE",
"205 23 LINE",
"243 8 OFFCURVE",
"280 0 OFFCURVE",
"317 0 CURVE SMOOTH",
"384 0 OFFCURVE",
"445 23 OFFCURVE",
"495 66 CURVE",
"501 72 OFFCURVE",
"504 80 OFFCURVE",
"504 88 CURVE SMOOTH",
"504 105 OFFCURVE",
"491 119 OFFCURVE",
"474 119 CURVE SMOOTH",
"466 119 OFFCURVE",
"460 117 OFFCURVE",
"456 113 CURVE SMOOTH",
"417 81 OFFCURVE",
"368 61 OFFCURVE",
"317 61 CURVE SMOOTH",
"288 61 OFFCURVE",
"258 67 OFFCURVE",
"228 80 CURVE",
"386 475 LINE",
"422 460 OFFCURVE",
"458 427 OFFCURVE",
"475 427 CURVE SMOOTH",
"492 427 OFFCURVE",
"505 440 OFFCURVE",
"505 457 CURVE SMOOTH",
"505 486 OFFCURVE",
"448 516 OFFCURVE",
"409 532 CURVE",
"462 667 LINE SMOOTH",
"464 672 OFFCURVE",
"465 675 OFFCURVE",
"465 679 CURVE SMOOTH",
"465 695 OFFCURVE",
"452 709 OFFCURVE",
"435 709 CURVE SMOOTH",
"421 709 OFFCURVE",
"411 702 OFFCURVE",
"406 690 CURVE SMOOTH",
"348 545 LINE",
"339 546 OFFCURVE",
"329 547 OFFCURVE",
"317 547 CURVE SMOOTH",
"167 547 OFFCURVE",
"43 424 OFFCURVE",
"43 273 CURVE SMOOTH",
"43 188 OFFCURVE",
"79 106 OFFCURVE",
"152 55 CURVE"
);
}
);
width = 547;
}
);
unicode = 00A2;
},
{
glyphname = sterling;
lastChange = "2016-10-26 00:21:20 +0000";
layers = (
{
layerId = UUID0;
paths = (
{
closed = 1;
nodes = (
"395 0 LINE SMOOTH",
"405 0 OFFCURVE",
"418 6 OFFCURVE",
"423 18 CURVE",
"462 96 LINE SMOOTH",
"464 100 OFFCURVE",
"465 105 OFFCURVE",
"465 110 CURVE SMOOTH",
"465 127 OFFCURVE",
"452 140 OFFCURVE",
"435 140 CURVE SMOOTH",
"422 140 OFFCURVE",
"413 135 OFFCURVE",
"409 126 CURVE SMOOTH",
"375 60 LINE",
"156 60 LINE",
"188 151 OFFCURVE",
"202 237 OFFCURVE",
"202 321 CURVE",
"354 321 LINE SMOOTH",
"371 321 OFFCURVE",
"384 335 OFFCURVE",
"384 351 CURVE SMOOTH",
"384 368 OFFCURVE",
"371 381 OFFCURVE",
"354 381 CURVE SMOOTH",
"197 381 LINE",
"188 440 OFFCURVE",
"173 494 OFFCURVE",
"152 543 CURVE SMOOTH",
"145 559 OFFCURVE",
"141 574 OFFCURVE",
"141 592 CURVE SMOOTH",
"141 664 OFFCURVE",
"202 722 OFFCURVE",
"273 722 CURVE SMOOTH",
"321 722 OFFCURVE",
"358 700 OFFCURVE",
"388 658 CURVE SMOOTH",
"393 651 OFFCURVE",
"400 648 OFFCURVE",
"410 648 CURVE SMOOTH",
"427 648 OFFCURVE",
"440 661 OFFCURVE",
"440 678 CURVE SMOOTH",
"440 695 OFFCURVE",
"423 713 OFFCURVE",
"409 727 CURVE SMOOTH",
"372 764 OFFCURVE",
"327 783 OFFCURVE",
"273 783 CURVE SMOOTH",
"167 783 OFFCURVE",
"81 697 OFFCURVE",
"81 592 CURVE SMOOTH",
"81 568 OFFCURVE",
"85 544 OFFCURVE",
"95 520 CURVE SMOOTH",
"95 521 LINE SMOOTH",
"113 478 OFFCURVE",
"126 432 OFFCURVE",
"136 381 CURVE",
"70 381 LINE SMOOTH",
"53 381 OFFCURVE",
"40 368 OFFCURVE",
"40 351 CURVE SMOOTH",
"40 335 OFFCURVE",
"53 321 OFFCURVE",
"70 321 CURVE SMOOTH",
"141 321 LINE",
"141 228 OFFCURVE",
"124 137 OFFCURVE",
"83 42 CURVE",
"82 38 OFFCURVE",
"81 33 OFFCURVE",
"81 30 CURVE SMOOTH",
"81 14 OFFCURVE",
"94 0 OFFCURVE",
"111 0 CURVE SMOOTH"
);
}
);
width = 508;
}
);
unicode = 00A3;
},
{
glyphname = currency;
lastChange = "2016-10-26 00:21:20 +0000";
layers = (
{
layerId = UUID0;
paths = (
{
closed = 1;
nodes = (
"282 461 OFFCURVE",
"324 419 OFFCURVE",
"324 370 CURVE SMOOTH",
"324 320 OFFCURVE",
"282 278 OFFCURVE",
"233 278 CURVE SMOOTH",
"183 278 OFFCURVE",
"142 321 OFFCURVE",
"142 370 CURVE SMOOTH",
"142 418 OFFCURVE",
"183 461 OFFCURVE",
"233 461 CURVE SMOOTH"
);
},
{
closed = 1;
nodes = (
"316 498 LINE",
"289 514 OFFCURVE",
"261 521 OFFCURVE",
"233 521 CURVE SMOOTH",
"203 521 OFFCURVE",
"174 513 OFFCURVE",
"147 496 CURVE",
"107 539 LINE SMOOTH",
"102 544 OFFCURVE",
"94 547 OFFCURVE",
"86 547 CURVE SMOOTH",
"69 547 OFFCURVE",
"56 534 OFFCURVE",
"56 517 CURVE SMOOTH",
"56 508 OFFCURVE",
"59 501 OFFCURVE",
"65 495 CURVE",
"105 453 LINE",
"89 426 OFFCURVE",
"81 398 OFFCURVE",
"81 370 CURVE SMOOTH",
"81 340 OFFCURVE",
"89 312 OFFCURVE",
"107 284 CURVE",
"65 244 LINE SMOOTH",
"59 238 OFFCURVE",
"56 231 OFFCURVE",
"56 223 CURVE SMOOTH",
"56 206 OFFCURVE",
"69 192 OFFCURVE",
"86 192 CURVE SMOOTH",
"94 192 OFFCURVE",
"101 195 OFFCURVE",
"106 200 CURVE SMOOTH",
"150 242 LINE",
"177 226 OFFCURVE",
"205 218 OFFCURVE",
"233 218 CURVE SMOOTH",
"262 218 OFFCURVE",
"291 226 OFFCURVE",
"318 243 CURVE",
"359 201 LINE SMOOTH",
"364 195 OFFCURVE",
"372 192 OFFCURVE",
"380 192 CURVE SMOOTH",
"397 192 OFFCURVE",
"410 206 OFFCURVE",
"410 223 CURVE SMOOTH",
"410 231 OFFCURVE",
"407 238 OFFCURVE",
"401 245 CURVE SMOOTH",
"361 287 LINE",
"377 314 OFFCURVE",
"385 342 OFFCURVE",
"385 370 CURVE SMOOTH",
"385 398 OFFCURVE",
"376 427 OFFCURVE",
"359 455 CURVE",
"401 494 LINE SMOOTH",
"407 500 OFFCURVE",
"410 508 OFFCURVE",
"410 517 CURVE SMOOTH",
"410 534 OFFCURVE",
"397 547 OFFCURVE",
"380 547 CURVE SMOOTH",
"372 547 OFFCURVE",
"365 543 OFFCURVE",
"358 538 CURVE SMOOTH"
);
}
);
width = 469;
}
);
unicode = 00A4;
},
{
glyphname = yen;
lastChange = "2016-10-26 00:21:20 +0000";
layers = (
{
layerId = UUID0;
paths = (
{
closed = 1;
nodes = (
"243 442 LINE",
"282 383 LINE",
"282 301 LINE",
"69 301 LINE SMOOTH",
"52 301 OFFCURVE",
"39 288 OFFCURVE",
"39 271 CURVE SMOOTH",
"39 254 OFFCURVE",
"52 241 OFFCURVE",
"69 241 CURVE SMOOTH",
"282 241 LINE",
"282 30 LINE SMOOTH",
"282 14 OFFCURVE",
"295 0 OFFCURVE",
"313 0 CURVE SMOOTH",
"330 0 OFFCURVE",
"343 14 OFFCURVE",
"343 30 CURVE SMOOTH",
"343 241 LINE",
"556 241 LINE SMOOTH",
"573 241 OFFCURVE",
"586 254 OFFCURVE",
"586 271 CURVE SMOOTH",
"586 288 OFFCURVE",
"573 301 OFFCURVE",
"556 301 CURVE SMOOTH",
"343 301 LINE",
"343 383 LINE",
"382 442 LINE",
"556 442 LINE SMOOTH",
"573 442 OFFCURVE",
"586 455 OFFCURVE",
"586 472 CURVE SMOOTH",
"586 488 OFFCURVE",
"572 501 OFFCURVE",
"556 501 CURVE SMOOTH",
"423 501 LINE",
"581 735 LINE SMOOTH",
"584 740 OFFCURVE",
"586 746 OFFCURVE",
"586 753 CURVE SMOOTH",
"586 769 OFFCURVE",
"573 783 OFFCURVE",
"556 783 CURVE SMOOTH",
"545 783 OFFCURVE",
"537 779 OFFCURVE",
"531 771 CURVE SMOOTH",
"313 445 LINE",
"94 771 LINE",
"87 779 OFFCURVE",
"80 783 OFFCURVE",
"69 783 CURVE SMOOTH",
"52 783 OFFCURVE",
"39 769 OFFCURVE",
"39 753 CURVE SMOOTH",
"39 746 OFFCURVE",
"41 740 OFFCURVE",
"43 735 CURVE SMOOTH",
"202 501 LINE",
"69 501 LINE SMOOTH",
"52 501 OFFCURVE",
"39 489 OFFCURVE",
"39 472 CURVE SMOOTH",
"39 455 OFFCURVE",
"52 442 OFFCURVE",
"69 442 CURVE SMOOTH"
);
}
);
width = 625;
}
);
unicode = 00A5;
},
{
glyphname = brokenbar;
lastChange = "2016-10-26 00:21:20 +0000";
layers = (
{
layerId = UUID0;
paths = (
{
closed = 1;
nodes = (
"83 476 LINE SMOOTH",
"83 459 OFFCURVE",
"96 446 OFFCURVE",
"113 446 CURVE SMOOTH",
"130 446 OFFCURVE",
"144 459 OFFCURVE",
"144 476 CURVE SMOOTH",
"144 840 LINE SMOOTH",
"144 857 OFFCURVE",
"130 871 OFFCURVE",
"113 871 CURVE SMOOTH",
"96 871 OFFCURVE",
"83 857 OFFCURVE",
"83 840 CURVE SMOOTH"
);
},
{
closed = 1;
nodes = (
"144 152 LINE SMOOTH",
"144 169 OFFCURVE",
"130 182 OFFCURVE",
"113 182 CURVE SMOOTH",
"96 182 OFFCURVE",
"83 169 OFFCURVE",
"83 152 CURVE SMOOTH",
"83 -204 LINE SMOOTH",
"83 -221 OFFCURVE",
"96 -234 OFFCURVE",
"113 -234 CURVE SMOOTH",
"130 -234 OFFCURVE",
"144 -221 OFFCURVE",
"144 -204 CURVE SMOOTH"
);
}
);
width = 234;
}
);
unicode = 00A6;
},
{
glyphname = section;
lastChange = "2016-10-26 00:21:20 +0000";
layers = (
{
layerId = UUID0;
paths = (
{
closed = 1;
nodes = (
"303 84 OFFCURVE",
"365 25 OFFCURVE",
"365 -45 CURVE SMOOTH",
"365 -116 OFFCURVE",
"302 -174 OFFCURVE",
"233 -174 CURVE SMOOTH",
"163 -174 OFFCURVE",
"101 -117 OFFCURVE",
"101 -45 CURVE SMOOTH",
"101 -28 OFFCURVE",
"88 -15 OFFCURVE",
"71 -15 CURVE SMOOTH",
"54 -15 OFFCURVE",
"41 -28 OFFCURVE",
"41 -45 CURVE SMOOTH",
"41 -149 OFFCURVE",
"126 -234 OFFCURVE",
"233 -234 CURVE SMOOTH",
"339 -234 OFFCURVE",
"425 -149 OFFCURVE",
"425 -45 CURVE SMOOTH",
"425 18 OFFCURVE",
"395 78 OFFCURVE",
"338 114 CURVE",
"395 149 OFFCURVE",
"425 209 OFFCURVE",
"425 273 CURVE SMOOTH",
"425 378 OFFCURVE",
"338 462 OFFCURVE",
"233 462 CURVE SMOOTH",
"161 462 OFFCURVE",
"101 520 OFFCURVE",
"101 592 CURVE SMOOTH",
"101 664 OFFCURVE",
"163 721 OFFCURVE",
"233 721 CURVE SMOOTH",
"302 721 OFFCURVE",
"365 663 OFFCURVE",
"365 592 CURVE SMOOTH",
"365 575 OFFCURVE",
"378 562 OFFCURVE",
"395 562 CURVE SMOOTH",
"412 562 OFFCURVE",
"425 575 OFFCURVE",
"425 592 CURVE SMOOTH",
"425 696 OFFCURVE",
"339 781 OFFCURVE",
"233 781 CURVE SMOOTH",
"126 781 OFFCURVE",
"41 696 OFFCURVE",
"41 592 CURVE SMOOTH",
"41 527 OFFCURVE",
"70 470 OFFCURVE",
"128 433 CURVE",
"70 395 OFFCURVE",
"41 337 OFFCURVE",
"41 273 CURVE SMOOTH",
"41 168 OFFCURVE",
"127 84 OFFCURVE",
"233 84 CURVE SMOOTH"
);
},
{
closed = 1;
nodes = (
"303 403 OFFCURVE",
"365 344 OFFCURVE",
"365 273 CURVE SMOOTH",
"365 203 OFFCURVE",
"304 144 OFFCURVE",
"233 144 CURVE SMOOTH",
"161 144 OFFCURVE",
"101 201 OFFCURVE",
"101 273 CURVE SMOOTH",
"101 345 OFFCURVE",
"162 403 OFFCURVE",
"233 403 CURVE SMOOTH"
);
}
);
width = 469;
}
);
unicode = 00A7;
},
{
glyphname = dieresis;
lastChange = "2016-10-26 00:21:20 +0000";
layers = (
{
layerId = UUID0;
paths = (
{
closed = 1;
nodes = (
"151 701 OFFCURVE",
"134 719 OFFCURVE",
"111 719 CURVE SMOOTH",
"88 719 OFFCURVE",
"70 701 OFFCURVE",
"70 679 CURVE SMOOTH",
"70 656 OFFCURVE",
"88 638 OFFCURVE",
"111 638 CURVE SMOOTH",
"134 638 OFFCURVE",
"151 656 OFFCURVE",
"151 679 CURVE SMOOTH"
);
},
{
closed = 1;
nodes = (
"395 701 OFFCURVE",
"376 719 OFFCURVE",
"354 719 CURVE SMOOTH",
"331 719 OFFCURVE",
"313 701 OFFCURVE",
"313 679 CURVE SMOOTH",
"313 656 OFFCURVE",
"331 638 OFFCURVE",
"354 638 CURVE SMOOTH",
"376 638 OFFCURVE",
"395 656 OFFCURVE",
"395 679 CURVE SMOOTH"
);
}
);
width = 469;
}
);
unicode = 00A8;
},
{
glyphname = copyright;
lastChange = "2016-10-26 00:21:20 +0000";
layers = (
{
layerId = UUID0;
paths = (
{
closed = 1;
nodes = (
"579 239 OFFCURVE",
"572 237 OFFCURVE",
"567 233 CURVE SMOOTH",
"528 201 OFFCURVE",
"480 181 OFFCURVE",
"429 181 CURVE SMOOTH",
"314 181 OFFCURVE",
"218 275 OFFCURVE",
"218 393 CURVE SMOOTH",
"218 509 OFFCURVE",
"313 604 OFFCURVE",
"429 604 CURVE SMOOTH",
"482 604 OFFCURVE",
"528 586 OFFCURVE",
"568 552 CURVE SMOOTH",
"573 547 OFFCURVE",
"580 545 OFFCURVE",
"587 545 CURVE SMOOTH",
"604 545 OFFCURVE",
"617 558 OFFCURVE",
"617 575 CURVE SMOOTH",
"617 584 OFFCURVE",
"614 592 OFFCURVE",
"606 599 CURVE SMOOTH",
"558 641 OFFCURVE",
"496 665 OFFCURVE",
"429 665 CURVE SMOOTH",
"280 665 OFFCURVE",
"157 542 OFFCURVE",
"157 393 CURVE SMOOTH",
"157 243 OFFCURVE",
"280 121 OFFCURVE",
"429 121 CURVE SMOOTH",
"495 121 OFFCURVE",
"558 144 OFFCURVE",
"606 187 CURVE SMOOTH",
"613 192 OFFCURVE",
"616 200 OFFCURVE",
"616 208 CURVE SMOOTH",
"616 225 OFFCURVE",
"603 239 OFFCURVE",
"585 239 CURVE SMOOTH"
);
},
{
closed = 1;
nodes = (
"819 606 OFFCURVE",
"641 783 OFFCURVE",
"428 783 CURVE SMOOTH",
"213 783 OFFCURVE",
"37 606 OFFCURVE",
"37 392 CURVE SMOOTH",
"37 284 OFFCURVE",
"75 191 OFFCURVE",
"151 114 CURVE SMOOTH",
"228 38 OFFCURVE",
"320 0 OFFCURVE",
"428 0 CURVE SMOOTH",
"536 0 OFFCURVE",
"628 38 OFFCURVE",
"705 114 CURVE SMOOTH",
"781 191 OFFCURVE",
"819 284 OFFCURVE",
"819 392 CURVE SMOOTH"
);
},
{
closed = 1;
nodes = (
"619 741 OFFCURVE",
"778 583 OFFCURVE",
"778 392 CURVE SMOOTH",
"778 202 OFFCURVE",
"620 42 OFFCURVE",
"428 42 CURVE SMOOTH",
"237 42 OFFCURVE",
"79 199 OFFCURVE",
"79 392 CURVE SMOOTH",
"79 584 OFFCURVE",
"239 741 OFFCURVE",
"428 741 CURVE SMOOTH"
);
}
);
width = 859;
}
);
unicode = 00A9;
},
{
glyphname = ordfeminine;
lastChange = "2016-10-26 00:21:20 +0000";
layers = (
{
layerId = UUID0;
paths = (
{
closed = 1;
nodes = (
"303 729 OFFCURVE",
"365 669 OFFCURVE",
"365 598 CURVE SMOOTH",
"365 526 OFFCURVE",
"305 466 OFFCURVE",
"233 466 CURVE SMOOTH",
"161 466 OFFCURVE",
"101 525 OFFCURVE",
"101 598 CURVE SMOOTH",
"101 669 OFFCURVE",
"162 729 OFFCURVE",
"233 729 CURVE SMOOTH"
);
},
{
closed = 1;
nodes = (
"365 435 LINE SMOOTH",
"365 418 OFFCURVE",
"378 405 OFFCURVE",
"395 405 CURVE SMOOTH",
"412 405 OFFCURVE",
"425 418 OFFCURVE",
"425 436 CURVE SMOOTH",
"425 598 LINE SMOOTH",
"425 703 OFFCURVE",
"340 790 OFFCURVE",
"233 790 CURVE SMOOTH",
"126 790 OFFCURVE",
"41 703 OFFCURVE",
"41 598 CURVE SMOOTH",
"41 491 OFFCURVE",
"127 405 OFFCURVE",
"233 405 CURVE SMOOTH",
"284 405 OFFCURVE",
"328 423 OFFCURVE",
"365 458 CURVE"
);
}
);
width = 469;
}
);
unicode = 00AA;
},
{
glyphname = guillemotleft;
lastChange = "2016-10-26 00:21:20 +0000";
layers = (
{
layerId = UUID0;
paths = (
{
closed = 1;
nodes = (
"44 288 LINE SMOOTH",
"42 283 OFFCURVE",
"41 278 OFFCURVE",
"41 273 CURVE SMOOTH",
"41 268 OFFCURVE",
"42 262 OFFCURVE",
"45 256 CURVE SMOOTH",
"164 19 LINE",
"171 6 OFFCURVE",
"178 0 OFFCURVE",
"192 0 CURVE SMOOTH",
"209 0 OFFCURVE",
"223 13 OFFCURVE",
"223 30 CURVE SMOOTH",
"223 35 OFFCURVE",
"222 40 OFFCURVE",
"220 43 CURVE SMOOTH",
"105 273 LINE",
"220 503 LINE SMOOTH",
"222 507 OFFCURVE",
"223 511 OFFCURVE",
"223 516 CURVE SMOOTH",
"223 533 OFFCURVE",
"209 546 OFFCURVE",
"192 546 CURVE SMOOTH",
"180 546 OFFCURVE",
"171 541 OFFCURVE",
"164 527 CURVE"
);
},
{
closed = 1;
nodes = (
"251 288 LINE SMOOTH",
"249 283 OFFCURVE",
"248 278 OFFCURVE",
"248 273 CURVE SMOOTH",
"248 268 OFFCURVE",
"249 262 OFFCURVE",
"252 256 CURVE SMOOTH",
"371 19 LINE",
"378 6 OFFCURVE",
"385 0 OFFCURVE",
"399 0 CURVE SMOOTH",
"417 0 OFFCURVE",
"430 13 OFFCURVE",
"430 30 CURVE SMOOTH",
"430 35 OFFCURVE",
"429 40 OFFCURVE",
"427 43 CURVE SMOOTH",
"312 273 LINE",
"427 503 LINE SMOOTH",
"429 507 OFFCURVE",
"430 511 OFFCURVE",
"430 516 CURVE SMOOTH",
"430 533 OFFCURVE",
"417 546 OFFCURVE",
"399 546 CURVE SMOOTH",
"387 546 OFFCURVE",
"378 541 OFFCURVE",
"371 527 CURVE SMOOTH"
);
}
);
width = 469;
}
);
unicode = 00AB;
},
{
glyphname = logicalnot;
lastChange = "2016-10-26 00:21:20 +0000";
layers = (
{
layerId = UUID0;
paths = (
{
closed = 1;
nodes = (
"445 486 LINE",
"445 354 LINE SMOOTH",
"445 337 OFFCURVE",
"458 324 OFFCURVE",
"475 324 CURVE SMOOTH",
"492 324 OFFCURVE",
"505 337 OFFCURVE",
"505 354 CURVE SMOOTH",
"505 517 LINE SMOOTH",
"505 534 OFFCURVE",
"492 547 OFFCURVE",
"475 547 CURVE SMOOTH",
"70 547 LINE SMOOTH",
"53 547 OFFCURVE",
"40 534 OFFCURVE",
"40 517 CURVE SMOOTH",
"40 500 OFFCURVE",
"53 486 OFFCURVE",
"70 486 CURVE SMOOTH"
);
}
);
width = 547;
}
);
unicode = 00AC;
},
{
glyphname = registered;
lastChange = "2016-10-26 00:21:20 +0000";
layers = (
{
layerId = UUID0;
paths = (
{
closed = 1;
nodes = (
"821 499 OFFCURVE",
"783 590 OFFCURVE",
"707 666 CURVE SMOOTH",
"630 743 OFFCURVE",
"539 781 OFFCURVE",
"431 781 CURVE SMOOTH",
"216 781 OFFCURVE",
"40 604 OFFCURVE",
"40 391 CURVE SMOOTH",
"40 283 OFFCURVE",
"78 190 OFFCURVE",
"154 114 CURVE SMOOTH",
"230 38 OFFCURVE",
"323 0 OFFCURVE",
"431 0 CURVE SMOOTH",
"538 0 OFFCURVE",
"630 38 OFFCURVE",
"707 114 CURVE SMOOTH",
"783 190 OFFCURVE",
"820 283 OFFCURVE",
"821 391 CURVE SMOOTH"
);
},
{
closed = 1;
nodes = (
"621 739 OFFCURVE",
"779 581 OFFCURVE",
"779 391 CURVE SMOOTH",
"779 200 OFFCURVE",
"622 42 OFFCURVE",
"431 42 CURVE SMOOTH",
"335 42 OFFCURVE",
"252 75 OFFCURVE",
"184 144 CURVE SMOOTH",
"115 211 OFFCURVE",
"82 295 OFFCURVE",
"82 391 CURVE SMOOTH",
"82 583 OFFCURVE",
"241 739 OFFCURVE",
"431 739 CURVE SMOOTH"
);
},
{
closed = 1;
nodes = (
"429 611 LINE SMOOTH",
"493 611 OFFCURVE",
"545 558 OFFCURVE",
"545 496 CURVE SMOOTH",
"545 432 OFFCURVE",
"491 380 OFFCURVE",
"429 380 CURVE SMOOTH",
"314 380 LINE",
"314 611 LINE"
);
},
{
closed = 1;
nodes = (
"297 643 LINE SMOOTH",
"289 643 OFFCURVE",
"281 637 OFFCURVE",
"281 627 CURVE SMOOTH",
"281 153 LINE SMOOTH",
"281 144 OFFCURVE",
"289 137 OFFCURVE",
"297 137 CURVE SMOOTH",
"306 137 OFFCURVE",
"314 144 OFFCURVE",
"314 153 CURVE SMOOTH",
"314 348 LINE",
"429 348 LINE SMOOTH",
"435 348 OFFCURVE",
"440 349 OFFCURVE",
"446 350 CURVE",
"573 146 LINE SMOOTH",
"576 140 OFFCURVE",
"581 137 OFFCURVE",
"587 137 CURVE SMOOTH",
"596 137 OFFCURVE",
"604 144 OFFCURVE",
"604 153 CURVE SMOOTH",
"604 157 OFFCURVE",
"603 160 OFFCURVE",
"600 163 CURVE SMOOTH",
"480 355 LINE",
"546 386 OFFCURVE",
"577 437 OFFCURVE",
"577 496 CURVE SMOOTH",
"577 577 OFFCURVE",
"510 643 OFFCURVE",
"429 643 CURVE SMOOTH"
);
}
);
width = 859;
}
);
unicode = 00AE;
},
{
glyphname = overscore;
lastChange = "2016-10-26 00:21:20 +0000";
layers = (
{
layerId = UUID0;
paths = (
{
closed = 1;
nodes = (
"475 891 LINE SMOOTH",
"492 891 OFFCURVE",
"505 904 OFFCURVE",
"505 921 CURVE SMOOTH",
"505 938 OFFCURVE",
"492 952 OFFCURVE",
"475 952 CURVE SMOOTH",
"70 952 LINE SMOOTH",
"53 952 OFFCURVE",
"40 938 OFFCURVE",
"40 921 CURVE SMOOTH",
"40 904 OFFCURVE",
"53 891 OFFCURVE",
"70 891 CURVE SMOOTH"
);
}
);
width = 547;
}
);
unicode = 00AF;
},
{
glyphname = degree;
lastChange = "2016-10-26 00:21:20 +0000";
layers = (
{
layerId = UUID0;
paths = (
{
closed = 1;
nodes = (
"425 703 OFFCURVE",
"340 790 OFFCURVE",
"233 790 CURVE SMOOTH",
"126 790 OFFCURVE",
"41 703 OFFCURVE",
"41 598 CURVE SMOOTH",
"41 491 OFFCURVE",
"127 405 OFFCURVE",
"233 405 CURVE SMOOTH",
"338 405 OFFCURVE",
"425 491 OFFCURVE",
"425 598 CURVE SMOOTH"
);
},
{
closed = 1;
nodes = (
"303 729 OFFCURVE",
"365 669 OFFCURVE",
"365 598 CURVE SMOOTH",
"365 526 OFFCURVE",
"305 466 OFFCURVE",
"233 466 CURVE SMOOTH",
"161 466 OFFCURVE",
"101 525 OFFCURVE",
"101 598 CURVE SMOOTH",
"101 669 OFFCURVE",
"162 729 OFFCURVE",
"233 729 CURVE SMOOTH"
);
}
);
width = 469;
}
);
unicode = 00B0;
},
{
glyphname = plusminus;
lastChange = "2016-10-26 00:21:20 +0000";
layers = (
{
layerId = UUID0;
paths = (
{
closed = 1;
nodes = (
"242 425 LINE",
"70 425 LINE SMOOTH",
"53 425 OFFCURVE",
"40 412 OFFCURVE",
"40 395 CURVE SMOOTH",
"40 378 OFFCURVE",
"53 365 OFFCURVE",
"70 365 CURVE SMOOTH",
"242 365 LINE",
"242 192 LINE SMOOTH",
"242 175 OFFCURVE",
"255 162 OFFCURVE",
"272 162 CURVE SMOOTH",
"290 162 OFFCURVE",
"303 175 OFFCURVE",
"303 192 CURVE SMOOTH",
"303 365 LINE",
"475 365 LINE SMOOTH",
"492 365 OFFCURVE",
"505 378 OFFCURVE",
"505 395 CURVE SMOOTH",
"505 412 OFFCURVE",
"492 425 OFFCURVE",
"475 425 CURVE SMOOTH",
"303 425 LINE",
"303 598 LINE SMOOTH",
"303 615 OFFCURVE",
"290 628 OFFCURVE",
"272 628 CURVE SMOOTH",
"255 628 OFFCURVE",
"242 615 OFFCURVE",
"242 598 CURVE SMOOTH"
);
},
{
closed = 1;
nodes = (
"475 0 LINE SMOOTH",
"492 0 OFFCURVE",
"505 13 OFFCURVE",
"505 30 CURVE SMOOTH",
"505 47 OFFCURVE",
"492 61 OFFCURVE",
"475 61 CURVE SMOOTH",
"70 61 LINE SMOOTH",
"53 61 OFFCURVE",
"40 47 OFFCURVE",
"40 30 CURVE SMOOTH",
"40 13 OFFCURVE",
"53 0 OFFCURVE",
"70 0 CURVE SMOOTH"
);
}
);
width = 547;
}
);
unicode = 00B1;
},
{
glyphname = uni00B2;
lastChange = "2016-10-26 00:21:20 +0000";
layers = (
{
layerId = UUID0;
paths = (
{
closed = 1;
nodes = (
"74 429 LINE",
"229 601 LINE",
"251 623 OFFCURVE",
"262 649 OFFCURVE",
"262 680 CURVE SMOOTH",
"262 741 OFFCURVE",
"211 790 OFFCURVE",
"152 790 CURVE SMOOTH",
"93 790 OFFCURVE",
"42 742 OFFCURVE",
"42 680 CURVE SMOOTH",
"42 674 OFFCURVE",
"46 670 OFFCURVE",
"52 670 CURVE SMOOTH",
"58 670 OFFCURVE",
"62 674 OFFCURVE",
"62 680 CURVE SMOOTH",
"62 729 OFFCURVE",
"103 770 OFFCURVE",
"152 770 CURVE SMOOTH",
"200 770 OFFCURVE",
"242 729 OFFCURVE",
"242 680 CURVE SMOOTH",
"242 656 OFFCURVE",
"232 633 OFFCURVE",
"216 616 CURVE SMOOTH",
"159 554 OFFCURVE",
"102 489 OFFCURVE",
"45 427 CURVE SMOOTH",
"43 424 OFFCURVE",
"42 422 OFFCURVE",
"42 419 CURVE SMOOTH",
"42 413 OFFCURVE",
"45 409 OFFCURVE",
"52 409 CURVE SMOOTH",
"252 409 LINE SMOOTH",
"258 409 OFFCURVE",
"262 413 OFFCURVE",
"262 419 CURVE SMOOTH",
"262 425 OFFCURVE",
"258 429 OFFCURVE",
"252 429 CURVE SMOOTH"
);
}
);
width = 313;
}
);
unicode = 00B2;
},
{
glyphname = uni00B3;
lastChange = "2016-10-26 00:21:20 +0000";
layers = (
{
layerId = UUID0;
paths = (
{
closed = 1;
nodes = (
"202 608 OFFCURVE",
"244 567 OFFCURVE",
"244 517 CURVE SMOOTH",
"244 468 OFFCURVE",
"203 426 OFFCURVE",
"153 426 CURVE SMOOTH",
"102 426 OFFCURVE",
"62 467 OFFCURVE",
"62 517 CURVE SMOOTH",
"62 522 OFFCURVE",
"58 527 OFFCURVE",
"52 527 CURVE SMOOTH",
"46 527 OFFCURVE",
"42 522 OFFCURVE",
"42 517 CURVE SMOOTH",
"42 457 OFFCURVE",
"91 406 OFFCURVE",
"153 406 CURVE SMOOTH",
"215 406 OFFCURVE",
"264 456 OFFCURVE",
"264 517 CURVE SMOOTH",
"264 561 OFFCURVE",
"248 589 OFFCURVE",
"200 619 CURVE",
"229 645 OFFCURVE",
"244 671 OFFCURVE",
"244 699 CURVE SMOOTH",
"244 748 OFFCURVE",
"203 790 OFFCURVE",
"153 790 CURVE SMOOTH",
"104 790 OFFCURVE",
"62 750 OFFCURVE",
"62 699 CURVE SMOOTH",
"62 693 OFFCURVE",
"66 689 OFFCURVE",
"72 689 CURVE SMOOTH",
"78 689 OFFCURVE",
"83 693 OFFCURVE",
"83 699 CURVE SMOOTH",
"83 738 OFFCURVE",
"114 770 OFFCURVE",
"153 770 CURVE SMOOTH",
"192 770 OFFCURVE",
"224 738 OFFCURVE",
"224 699 CURVE SMOOTH",
"224 660 OFFCURVE",
"192 628 OFFCURVE",
"153 628 CURVE SMOOTH",
"147 628 OFFCURVE",
"143 624 OFFCURVE",
"143 618 CURVE SMOOTH",
"143 612 OFFCURVE",
"147 608 OFFCURVE",
"153 608 CURVE SMOOTH"
);
}
);
width = 313;
}
);
unicode = 00B3;
},
{
glyphname = acute;
lastChange = "2016-10-26 00:21:20 +0000";
layers = (
{
layerId = UUID0;
paths = (
{
closed = 1;
nodes = (
"216 729 LINE SMOOTH",
"222 735 OFFCURVE",
"225 743 OFFCURVE",
"225 750 CURVE SMOOTH",
"225 768 OFFCURVE",
"211 781 OFFCURVE",
"194 781 CURVE SMOOTH",
"186 781 OFFCURVE",
"178 778 OFFCURVE",
"172 772 CURVE SMOOTH",
"49 649 LINE",
"45 644 OFFCURVE",
"42 637 OFFCURVE",
"42 629 CURVE SMOOTH",
"42 612 OFFCURVE",
"56 598 OFFCURVE",
"73 598 CURVE SMOOTH",
"81 598 OFFCURVE",
"88 601 OFFCURVE",
"93 606 CURVE SMOOTH"
);
}
);
width = 273;
}
);
unicode = 00B4;
},
{
glyphname = mu;
lastChange = "2016-10-26 00:21:20 +0000";
layers = (
{
layerId = UUID0;
paths = (
{
closed = 1;
nodes = (
"100 517 LINE SMOOTH",
"100 534 OFFCURVE",
"87 547 OFFCURVE",
"70 547 CURVE SMOOTH",
"53 547 OFFCURVE",
"40 534 OFFCURVE",
"40 517 CURVE SMOOTH",
"40 -204 LINE SMOOTH",
"40 -221 OFFCURVE",
"53 -234 OFFCURVE",
"70 -234 CURVE SMOOTH",
"87 -234 OFFCURVE",
"100 -221 OFFCURVE",
"100 -204 CURVE SMOOTH",
"100 87 LINE",
"160 29 OFFCURVE",
"224 0 OFFCURVE",
"292 0 CURVE SMOOTH",
"361 0 OFFCURVE",
"425 29 OFFCURVE",
"485 87 CURVE",
"485 30 LINE SMOOTH",
"485 13 OFFCURVE",
"498 0 OFFCURVE",
"515 0 CURVE SMOOTH",
"532 0 OFFCURVE",
"546 13 OFFCURVE",
"546 30 CURVE SMOOTH",
"546 517 LINE SMOOTH",
"546 534 OFFCURVE",
"532 547 OFFCURVE",
"515 547 CURVE SMOOTH",
"498 547 OFFCURVE",
"485 534 OFFCURVE",
"485 517 CURVE SMOOTH",
"485 253 LINE SMOOTH",
"485 148 OFFCURVE",
"397 61 OFFCURVE",
"292 61 CURVE SMOOTH",
"189 61 OFFCURVE",
"100 146 OFFCURVE",
"100 253 CURVE SMOOTH"
);
}
);
width = 586;
}
);
unicode = 00B5;
},
{
glyphname = paragraph;
lastChange = "2016-10-26 00:21:20 +0000";
layers = (
{
layerId = UUID0;
paths = (
{
closed = 1;
nodes = (
"465 721 LINE",
"488 721 OFFCURVE",
"505 734 OFFCURVE",
"505 751 CURVE SMOOTH",
"505 769 OFFCURVE",
"492 782 OFFCURVE",
"475 782 CURVE SMOOTH",
"232 782 LINE SMOOTH",
"126 782 OFFCURVE",
"40 695 OFFCURVE",
"40 589 CURVE SMOOTH",
"40 483 OFFCURVE",
"122 397 OFFCURVE",
"242 397 CURVE",
"242 30 LINE SMOOTH",
"242 13 OFFCURVE",
"255 0 OFFCURVE",
"272 0 CURVE SMOOTH",
"290 0 OFFCURVE",
"303 13 OFFCURVE",
"303 30 CURVE SMOOTH",
"303 721 LINE",
"404 721 LINE",
"404 30 LINE SMOOTH",
"404 13 OFFCURVE",
"417 0 OFFCURVE",
"435 0 CURVE SMOOTH",
"452 0 OFFCURVE",
"465 13 OFFCURVE",
"465 30 CURVE SMOOTH"
);
}
);
width = 547;
}
);
unicode = 00B6;
},
{
glyphname = middot;
lastChange = "2016-10-26 00:21:20 +0000";
layers = (
{
layerId = UUID0;
paths = (
{
closed = 1;
nodes = (
"144 402 OFFCURVE",
"123 425 OFFCURVE",
"94 425 CURVE SMOOTH",
"65 425 OFFCURVE",
"43 403 OFFCURVE",
"43 375 CURVE SMOOTH",
"43 345 OFFCURVE",
"66 324 OFFCURVE",
"94 324 CURVE SMOOTH",
"122 324 OFFCURVE",
"144 346 OFFCURVE",
"144 375 CURVE SMOOTH"
);
}
);
width = 195;
}
);
unicode = 00B7;
},
{
glyphname = cedilla;
lastChange = "2016-10-26 00:21:20 +0000";
layers = (
{
layerId = UUID0;
paths = (
{
closed = 1;
nodes = (
"148 25 OFFCURVE",
"146 21 OFFCURVE",
"144 16 CURVE SMOOTH",
"125 -54 LINE SMOOTH",
"124 -57 OFFCURVE",
"123 -60 OFFCURVE",
"123 -63 CURVE SMOOTH",
"123 -111 OFFCURVE",
"204 -81 OFFCURVE",
"204 -129 CURVE SMOOTH",
"204 -151 OFFCURVE",
"181 -165 OFFCURVE",
"153 -165 CURVE SMOOTH",
"145 -165 OFFCURVE",
"136 -163 OFFCURVE",
"128 -159 CURVE",
"89 -134 LINE SMOOTH",
"84 -131 OFFCURVE",
"79 -129 OFFCURVE",
"72 -129 CURVE SMOOTH",
"55 -129 OFFCURVE",
"42 -143 OFFCURVE",
"42 -160 CURVE SMOOTH",
"42 -170 OFFCURVE",
"46 -179 OFFCURVE",
"56 -186 CURVE",
"100 -212 LINE",
"118 -221 OFFCURVE",
"136 -226 OFFCURVE",
"153 -226 CURVE SMOOTH",
"214 -226 OFFCURVE",
"265 -183 OFFCURVE",
"265 -129 CURVE SMOOTH",
"265 -88 OFFCURVE",
"244 -61 OFFCURVE",
"193 -39 CURVE",
"203 0 LINE SMOOTH",
"204 2 OFFCURVE",
"204 5 OFFCURVE",
"204 7 CURVE SMOOTH",
"204 24 OFFCURVE",
"190 38 OFFCURVE",
"173 38 CURVE SMOOTH",
"165 38 OFFCURVE",
"158 35 OFFCURVE",
"152 29 CURVE SMOOTH"
);
}
);
width = 313;
}
);
unicode = 00B8;
},
{
glyphname = uni00B9;
lastChange = "2016-10-26 00:21:20 +0000";
layers = (
{
layerId = UUID0;
paths = (
{
closed = 1;
nodes = (
"74 750 OFFCURVE",
"75 750 OFFCURVE",
"77 750 CURVE SMOOTH",
"124 766 LINE",
"124 418 LINE SMOOTH",
"124 412 OFFCURVE",
"128 408 OFFCURVE",
"133 408 CURVE SMOOTH",
"139 408 OFFCURVE",
"144 412 OFFCURVE",
"144 418 CURVE SMOOTH",
"144 780 LINE SMOOTH",
"144 785 OFFCURVE",
"139 790 OFFCURVE",
"133 790 CURVE SMOOTH",
"132 790 OFFCURVE",
"131 790 OFFCURVE",
"129 790 CURVE SMOOTH",
"69 769 LINE SMOOTH",
"65 767 OFFCURVE",
"63 763 OFFCURVE",
"63 759 CURVE SMOOTH",
"63 754 OFFCURVE",
"67 750 OFFCURVE",
"72 750 CURVE SMOOTH"
);
}
);
width = 234;
}
);
unicode = 00B9;
},
{
glyphname = ordmasculine;
lastChange = "2016-10-26 00:21:20 +0000";
layers = (
{
layerId = UUID0;
paths = (
{
closed = 1;
nodes = (
"42 479 OFFCURVE",
"81 408 OFFCURVE",
"153 408 CURVE SMOOTH",
"224 408 OFFCURVE",
"263 479 OFFCURVE",
"263 599 CURVE SMOOTH",
"263 719 OFFCURVE",
"224 790 OFFCURVE",
"153 790 CURVE SMOOTH",
"81 790 OFFCURVE",
"42 719 OFFCURVE",
"42 599 CURVE SMOOTH"
);
},
{
closed = 1;
nodes = (
"213 770 OFFCURVE",
"244 697 OFFCURVE",
"244 599 CURVE SMOOTH",
"244 499 OFFCURVE",
"213 428 OFFCURVE",
"153 428 CURVE SMOOTH",
"90 428 OFFCURVE",
"62 498 OFFCURVE",
"62 599 CURVE SMOOTH",
"62 700 OFFCURVE",
"91 770 OFFCURVE",
"153 770 CURVE SMOOTH"
);
}
);
width = 313;
}
);
unicode = 00BA;
},
{
glyphname = guillemotright;
lastChange = "2016-10-26 00:21:20 +0000";
layers = (
{
layerId = UUID0;
paths = (
{
closed = 1;
nodes = (
"306 527 LINE",
"298 541 OFFCURVE",
"290 546 OFFCURVE",
"278 546 CURVE SMOOTH",
"261 546 OFFCURVE",
"248 533 OFFCURVE",
"248 516 CURVE SMOOTH",
"248 511 OFFCURVE",
"249 507 OFFCURVE",
"250 503 CURVE SMOOTH",
"365 273 LINE",
"250 43 LINE SMOOTH",
"249 40 OFFCURVE",
"248 35 OFFCURVE",
"248 30 CURVE SMOOTH",
"248 13 OFFCURVE",
"261 0 OFFCURVE",
"278 0 CURVE SMOOTH",
"292 0 OFFCURVE",
"299 6 OFFCURVE",
"306 19 CURVE",
"425 256 LINE SMOOTH",
"428 262 OFFCURVE",
"430 268 OFFCURVE",
"430 273 CURVE SMOOTH",
"430 278 OFFCURVE",
"428 283 OFFCURVE",
"426 288 CURVE SMOOTH"
);
},
{
closed = 1;
nodes = (
"99 527 LINE",
"91 541 OFFCURVE",
"83 546 OFFCURVE",
"71 546 CURVE SMOOTH",
"54 546 OFFCURVE",
"41 533 OFFCURVE",
"41 516 CURVE SMOOTH",
"41 511 OFFCURVE",
"42 507 OFFCURVE",
"43 503 CURVE SMOOTH",
"158 273 LINE",
"43 43 LINE SMOOTH",
"42 40 OFFCURVE",
"41 35 OFFCURVE",
"41 30 CURVE SMOOTH",
"41 13 OFFCURVE",
"54 0 OFFCURVE",
"71 0 CURVE SMOOTH",
"85 0 OFFCURVE",
"92 6 OFFCURVE",
"99 19 CURVE",
"218 256 LINE SMOOTH",
"221 262 OFFCURVE",
"223 268 OFFCURVE",
"223 273 CURVE SMOOTH",
"223 278 OFFCURVE",
"221 283 OFFCURVE",
"219 288 CURVE SMOOTH"
);
}
);
width = 469;
}
);
unicode = 00BB;
},
{
glyphname = onequarter;
lastChange = "2016-10-26 00:21:20 +0000";
layers = (
{
layerId = UUID0;
paths = (
{
closed = 1;
nodes = (
"584 790 OFFCURVE",
"576 786 OFFCURVE",
"571 779 CURVE SMOOTH",
"83 47 LINE",
"80 42 OFFCURVE",
"79 37 OFFCURVE",
"79 30 CURVE SMOOTH",
"79 13 OFFCURVE",
"92 0 OFFCURVE",
"109 0 CURVE SMOOTH",
"120 0 OFFCURVE",
"129 5 OFFCURVE",
"136 16 CURVE SMOOTH",
"621 743 LINE",
"624 748 OFFCURVE",
"625 753 OFFCURVE",
"625 760 CURVE SMOOTH",
"625 777 OFFCURVE",
"612 790 OFFCURVE",
"595 790 CURVE SMOOTH"
);
},
{
closed = 1;
nodes = (
"140 776 LINE SMOOTH",
"140 784 OFFCURVE",
"133 791 OFFCURVE",
"125 791 CURVE SMOOTH",
"124 791 OFFCURVE",
"122 790 OFFCURVE",
"120 790 CURVE SMOOTH",
"48 766 LINE SMOOTH",
"42 764 OFFCURVE",
"38 758 OFFCURVE",
"38 752 CURVE SMOOTH",
"38 744 OFFCURVE",
"44 738 OFFCURVE",
"52 738 CURVE SMOOTH",
"55 738 OFFCURVE",
"57 738 OFFCURVE",
"59 739 CURVE SMOOTH",
"111 756 LINE",
"111 338 LINE SMOOTH",
"111 330 OFFCURVE",
"117 324 OFFCURVE",
"125 324 CURVE SMOOTH",
"133 324 OFFCURVE",
"140 330 OFFCURVE",
"140 338 CURVE SMOOTH"
);
},
{
closed = 1;
nodes = (
"388 150 LINE",
"565 406 LINE",
"565 150 LINE"
);
},
{
closed = 1;
nodes = (
"565 122 LINE",
"565 14 LINE SMOOTH",
"565 6 OFFCURVE",
"571 0 OFFCURVE",
"579 0 CURVE SMOOTH",
"587 0 OFFCURVE",
"593 6 OFFCURVE",
"593 14 CURVE SMOOTH",
"593 122 LINE",
"652 122 LINE SMOOTH",
"660 122 OFFCURVE",
"666 127 OFFCURVE",
"666 136 CURVE SMOOTH",
"666 144 OFFCURVE",
"660 150 OFFCURVE",
"652 150 CURVE SMOOTH",
"593 150 LINE",
"593 452 LINE SMOOTH",
"593 460 OFFCURVE",
"587 466 OFFCURVE",
"579 466 CURVE SMOOTH",
"575 466 OFFCURVE",
"571 464 OFFCURVE",
"569 462 CURVE",
"349 144 LINE SMOOTH",
"347 142 OFFCURVE",
"346 139 OFFCURVE",
"346 136 CURVE SMOOTH",
"346 127 OFFCURVE",
"352 122 OFFCURVE",
"360 122 CURVE SMOOTH"
);
}
);
width = 703;
}
);
unicode = 00BC;
},
{
glyphname = onehalf;
lastChange = "2016-10-26 00:21:20 +0000";
layers = (
{
layerId = UUID0;
paths = (
{
closed = 1;
nodes = (
"521 28 LINE",
"706 233 LINE",
"733 260 OFFCURVE",
"747 293 OFFCURVE",
"747 331 CURVE SMOOTH",
"747 405 OFFCURVE",
"685 466 OFFCURVE",
"610 466 CURVE SMOOTH",
"537 466 OFFCURVE",
"475 406 OFFCURVE",
"475 331 CURVE SMOOTH",
"475 323 OFFCURVE",
"480 316 OFFCURVE",
"489 316 CURVE SMOOTH",
"497 316 OFFCURVE",
"503 323 OFFCURVE",
"503 331 CURVE SMOOTH",
"503 389 OFFCURVE",
"551 438 OFFCURVE",
"610 438 CURVE SMOOTH",
"669 438 OFFCURVE",
"718 390 OFFCURVE",
"718 331 CURVE SMOOTH",
"718 301 OFFCURVE",
"708 276 OFFCURVE",
"687 255 CURVE",
"479 24 LINE SMOOTH",
"476 22 OFFCURVE",
"475 19 OFFCURVE",
"475 14 CURVE SMOOTH",
"475 6 OFFCURVE",
"480 0 OFFCURVE",
"489 0 CURVE SMOOTH",
"732 0 LINE SMOOTH",
"740 0 OFFCURVE",
"747 6 OFFCURVE",
"747 14 CURVE SMOOTH",
"747 22 OFFCURVE",
"740 28 OFFCURVE",
"732 28 CURVE SMOOTH"
);
},
{
closed = 1;
nodes = (
"140 776 LINE SMOOTH",
"140 784 OFFCURVE",
"133 791 OFFCURVE",
"125 791 CURVE SMOOTH",
"124 791 OFFCURVE",
"122 790 OFFCURVE",
"120 790 CURVE SMOOTH",
"48 766 LINE SMOOTH",
"42 764 OFFCURVE",
"38 758 OFFCURVE",
"38 752 CURVE SMOOTH",
"38 744 OFFCURVE",
"44 738 OFFCURVE",
"52 738 CURVE SMOOTH",
"55 738 OFFCURVE",
"57 738 OFFCURVE",
"59 739 CURVE SMOOTH",
"111 756 LINE",
"111 338 LINE SMOOTH",
"111 330 OFFCURVE",
"117 324 OFFCURVE",
"125 324 CURVE SMOOTH",
"133 324 OFFCURVE",
"140 330 OFFCURVE",
"140 338 CURVE SMOOTH"
);
},
{
closed = 1;
nodes = (
"584 790 OFFCURVE",
"576 786 OFFCURVE",
"571 779 CURVE SMOOTH",
"83 47 LINE",
"80 42 OFFCURVE",
"79 37 OFFCURVE",
"79 30 CURVE SMOOTH",
"79 13 OFFCURVE",
"92 0 OFFCURVE",
"109 0 CURVE SMOOTH",
"120 0 OFFCURVE",
"129 5 OFFCURVE",
"136 16 CURVE SMOOTH",
"621 743 LINE",
"624 748 OFFCURVE",
"625 753 OFFCURVE",
"625 760 CURVE SMOOTH",
"625 777 OFFCURVE",
"612 790 OFFCURVE",
"595 790 CURVE SMOOTH"
);
}
);
width = 781;
}
);
unicode = 00BD;
},
{
glyphname = threequarters;
lastChange = "2016-10-26 00:21:20 +0000";
layers = (
{
layerId = UUID0;
paths = (
{
closed = 1;
nodes = (
"231 566 OFFCURVE",
"280 518 OFFCURVE",
"280 459 CURVE SMOOTH",
"280 401 OFFCURVE",
"231 353 OFFCURVE",
"173 353 CURVE SMOOTH",
"115 353 OFFCURVE",
"66 399 OFFCURVE",
"66 459 CURVE SMOOTH",
"66 467 OFFCURVE",
"60 474 OFFCURVE",
"52 474 CURVE SMOOTH",
"43 474 OFFCURVE",
"38 467 OFFCURVE",
"38 459 CURVE SMOOTH",
"38 385 OFFCURVE",
"99 324 OFFCURVE",
"173 324 CURVE SMOOTH",
"247 324 OFFCURVE",
"308 385 OFFCURVE",
"308 459 CURVE SMOOTH",
"308 509 OFFCURVE",
"280 561 OFFCURVE",
"232 582 CURVE",
"266 607 OFFCURVE",
"284 638 OFFCURVE",
"284 678 CURVE SMOOTH",
"284 739 OFFCURVE",
"233 789 OFFCURVE",
"173 789 CURVE SMOOTH",
"113 789 OFFCURVE",
"62 740 OFFCURVE",
"62 678 CURVE SMOOTH",
"62 669 OFFCURVE",
"68 664 OFFCURVE",
"76 664 CURVE SMOOTH",
"83 664 OFFCURVE",
"90 669 OFFCURVE",
"90 678 CURVE SMOOTH",
"90 723 OFFCURVE",
"128 760 OFFCURVE",
"173 760 CURVE SMOOTH",
"217 760 OFFCURVE",
"256 722 OFFCURVE",
"256 678 CURVE SMOOTH",
"256 633 OFFCURVE",
"218 594 OFFCURVE",
"173 594 CURVE SMOOTH",
"165 594 OFFCURVE",
"159 588 OFFCURVE",
"159 581 CURVE SMOOTH",
"159 573 OFFCURVE",
"165 566 OFFCURVE",
"173 566 CURVE SMOOTH"
);
},
{
closed = 1;
nodes = (
"661 790 OFFCURVE",
"653 786 OFFCURVE",
"648 779 CURVE SMOOTH",
"161 47 LINE",
"157 42 OFFCURVE",
"156 37 OFFCURVE",
"156 30 CURVE SMOOTH",
"156 13 OFFCURVE",
"169 0 OFFCURVE",
"187 0 CURVE SMOOTH",
"197 0 OFFCURVE",
"206 5 OFFCURVE",
"213 16 CURVE SMOOTH",
"698 743 LINE",
"701 748 OFFCURVE",
"703 753 OFFCURVE",
"703 760 CURVE SMOOTH",
"703 777 OFFCURVE",
"689 790 OFFCURVE",
"672 790 CURVE SMOOTH"
);
},
{
closed = 1;
nodes = (
"472 150 LINE",
"648 406 LINE",
"648 150 LINE"
);
},
{
closed = 1;
nodes = (
"648 122 LINE",
"648 14 LINE SMOOTH",
"648 6 OFFCURVE",
"654 0 OFFCURVE",
"663 0 CURVE SMOOTH",
"671 0 OFFCURVE",
"677 6 OFFCURVE",
"677 14 CURVE SMOOTH",
"677 122 LINE",
"735 122 LINE SMOOTH",
"744 122 OFFCURVE",
"750 127 OFFCURVE",
"750 136 CURVE SMOOTH",
"750 144 OFFCURVE",
"744 150 OFFCURVE",
"735 150 CURVE SMOOTH",
"677 150 LINE",
"677 452 LINE SMOOTH",
"677 460 OFFCURVE",
"671 466 OFFCURVE",
"663 466 CURVE SMOOTH",
"658 466 OFFCURVE",
"655 464 OFFCURVE",
"652 462 CURVE",
"432 144 LINE SMOOTH",
"431 142 OFFCURVE",
"430 139 OFFCURVE",
"430 136 CURVE SMOOTH",
"430 127 OFFCURVE",
"436 122 OFFCURVE",
"444 122 CURVE SMOOTH"
);
}
);
width = 781;
}
);
unicode = 00BE;
},
{
glyphname = questiondown;
lastChange = "2016-10-26 00:21:20 +0000";
layers = (
{
layerId = UUID0;
paths = (
{
closed = 1;
nodes = (
"177 -173 OFFCURVE",
"100 -95 OFFCURVE",
"100 -1 CURVE SMOOTH",
"100 46 OFFCURVE",
"117 87 OFFCURVE",
"150 121 CURVE",
"234 199 LINE",
"234 198 LINE",
"279 244 OFFCURVE",
"302 299 OFFCURVE",
"302 363 CURVE SMOOTH",
"302 380 OFFCURVE",
"289 394 OFFCURVE",
"272 394 CURVE SMOOTH",
"255 394 OFFCURVE",
"241 380 OFFCURVE",
"241 363 CURVE SMOOTH",
"241 315 OFFCURVE",
"225 274 OFFCURVE",
"191 241 CURVE",
"107 163 LINE",
"107 164 LINE",
"62 118 OFFCURVE",
"39 63 OFFCURVE",
"39 -1 CURVE SMOOTH",
"39 -128 OFFCURVE",
"143 -234 OFFCURVE",
"272 -234 CURVE SMOOTH",
"398 -234 OFFCURVE",
"505 -131 OFFCURVE",
"505 -1 CURVE SMOOTH",
"505 16 OFFCURVE",
"491 29 OFFCURVE",
"474 29 CURVE SMOOTH",
"457 29 OFFCURVE",
"444 16 OFFCURVE",
"444 -1 CURVE SMOOTH",
"444 -96 OFFCURVE",
"366 -173 OFFCURVE",
"272 -173 CURVE SMOOTH"
);
},
{
closed = 1;
nodes = (
"300 445 OFFCURVE",
"322 467 OFFCURVE",
"322 496 CURVE SMOOTH",
"322 523 OFFCURVE",
"301 546 OFFCURVE",
"271 546 CURVE SMOOTH",
"243 546 OFFCURVE",
"221 524 OFFCURVE",
"221 496 CURVE SMOOTH",
"221 466 OFFCURVE",
"244 445 OFFCURVE",
"271 445 CURVE SMOOTH"
);
}
);
width = 547;
}
);
unicode = 00BF;
},
{
glyphname = AE;
lastChange = "2016-10-26 00:21:20 +0000";
layers = (
{
layerId = UUID0;
paths = (
{
closed = 1;
nodes = (
"439 380 LINE",
"298 380 LINE",
"439 635 LINE"
);
},
{
closed = 1;
nodes = (
"469 781 LINE SMOOTH",
"458 781 OFFCURVE",
"449 777 OFFCURVE",
"444 768 CURVE SMOOTH",
"42 44 LINE",
"40 41 OFFCURVE",
"39 36 OFFCURVE",
"39 30 CURVE SMOOTH",
"39 13 OFFCURVE",
"52 0 OFFCURVE",
"69 0 CURVE SMOOTH",
"80 0 OFFCURVE",
"88 5 OFFCURVE",
"94 14 CURVE",
"265 320 LINE",
"439 320 LINE",
"439 30 LINE SMOOTH",
"439 13 OFFCURVE",
"452 0 OFFCURVE",
"469 0 CURVE SMOOTH",
"790 0 LINE SMOOTH",
"807 0 OFFCURVE",
"820 13 OFFCURVE",
"820 30 CURVE SMOOTH",
"820 46 OFFCURVE",
"807 60 OFFCURVE",
"790 60 CURVE SMOOTH",
"500 60 LINE",
"500 320 LINE",
"710 320 LINE SMOOTH",
"726 320 OFFCURVE",
"740 333 OFFCURVE",
"740 351 CURVE SMOOTH",
"740 368 OFFCURVE",
"726 380 OFFCURVE",
"710 380 CURVE SMOOTH",
"500 380 LINE",
"500 721 LINE",
"790 721 LINE SMOOTH",
"807 721 OFFCURVE",
"820 735 OFFCURVE",
"820 751 CURVE SMOOTH",
"820 768 OFFCURVE",
"807 781 OFFCURVE",
"790 781 CURVE SMOOTH"
);
}
);
width = 859;
}
);
unicode = 00C6;
},
{
glyphname = Eth;
lastChange = "2016-10-26 00:21:20 +0000";
layers = (
{
layerId = UUID0;
paths = (
{
closed = 1;
nodes = (
"30 421 LINE SMOOTH",
"13 421 OFFCURVE",
"0 408 OFFCURVE",
"0 391 CURVE SMOOTH",
"0 374 OFFCURVE",
"13 360 OFFCURVE",
"30 360 CURVE SMOOTH",
"119 360 LINE",
"119 30 LINE SMOOTH",
"119 13 OFFCURVE",
"132 0 OFFCURVE",
"149 0 CURVE SMOOTH",
"310 0 LINE SMOOTH",
"417 0 OFFCURVE",
"509 38 OFFCURVE",
"585 114 CURVE SMOOTH",
"662 191 OFFCURVE",
"700 283 OFFCURVE",
"700 391 CURVE SMOOTH",
"700 499 OFFCURVE",
"662 590 OFFCURVE",
"585 667 CURVE SMOOTH",
"509 743 OFFCURVE",
"417 781 OFFCURVE",
"310 781 CURVE SMOOTH",
"149 781 LINE SMOOTH",
"132 781 OFFCURVE",
"119 768 OFFCURVE",
"119 751 CURVE SMOOTH",
"119 421 LINE"
);
},
{
closed = 1;
nodes = (
"179 721 LINE",
"310 721 LINE SMOOTH",
"490 721 OFFCURVE",
"640 571 OFFCURVE",
"640 391 CURVE SMOOTH",
"640 210 OFFCURVE",
"491 60 OFFCURVE",
"310 60 CURVE SMOOTH",
"179 60 LINE",
"179 360 LINE",
"350 360 LINE SMOOTH",
"367 360 OFFCURVE",
"380 374 OFFCURVE",
"380 391 CURVE SMOOTH",
"380 408 OFFCURVE",
"367 421 OFFCURVE",
"350 421 CURVE SMOOTH",
"179 421 LINE"
);
}
);
width = 742;
}
);
unicode = 00D0;
},
{
glyphname = multiply;
lastChange = "2016-10-26 00:21:20 +0000";
layers = (
{
layerId = UUID0;
paths = (
{
closed = 1;
nodes = (
"48 214 LINE SMOOTH",
"43 208 OFFCURVE",
"41 200 OFFCURVE",
"41 192 CURVE SMOOTH",
"41 175 OFFCURVE",
"54 162 OFFCURVE",
"71 162 CURVE SMOOTH",
"79 162 OFFCURVE",
"86 164 OFFCURVE",
"92 169 CURVE SMOOTH",
"233 311 LINE",
"374 169 LINE SMOOTH",
"379 165 OFFCURVE",
"387 162 OFFCURVE",
"395 162 CURVE SMOOTH",
"412 162 OFFCURVE",
"425 175 OFFCURVE",
"425 192 CURVE SMOOTH",
"425 200 OFFCURVE",
"422 208 OFFCURVE",
"417 214 CURVE",
"276 354 LINE",
"417 495 LINE SMOOTH",
"422 500 OFFCURVE",
"425 509 OFFCURVE",
"425 517 CURVE SMOOTH",
"425 534 OFFCURVE",
"412 547 OFFCURVE",
"395 547 CURVE SMOOTH",
"387 547 OFFCURVE",
"379 544 OFFCURVE",
"373 538 CURVE SMOOTH",
"233 398 LINE",
"93 538 LINE SMOOTH",
"87 544 OFFCURVE",
"79 547 OFFCURVE",
"71 547 CURVE SMOOTH",
"52 547 OFFCURVE",
"41 533 OFFCURVE",
"41 514 CURVE",
"40 506 OFFCURVE",
"43 500 OFFCURVE",
"48 495 CURVE SMOOTH",
"189 354 LINE"
);
}
);
width = 469;
}
);
unicode = 00D7;
},
{
glyphname = Oslash;
lastChange = "2016-10-26 00:21:20 +0000";
layers = (
{
layerId = UUID0;
paths = (
{
closed = 1;
nodes = (
"813 731 LINE",
"817 737 OFFCURVE",
"820 743 OFFCURVE",
"820 751 CURVE SMOOTH",
"820 768 OFFCURVE",
"807 781 OFFCURVE",
"790 781 CURVE SMOOTH",
"782 781 OFFCURVE",
"774 778 OFFCURVE",
"769 773 CURVE SMOOTH",
"683 688 LINE",
"608 750 OFFCURVE",
"523 781 OFFCURVE",
"429 781 CURVE SMOOTH",
"321 781 OFFCURVE",
"229 743 OFFCURVE",
"153 667 CURVE SMOOTH",
"77 590 OFFCURVE",
"39 499 OFFCURVE",
"39 391 CURVE SMOOTH",
"39 296 OFFCURVE",
"70 211 OFFCURVE",
"132 137 CURVE",
"46 51 LINE SMOOTH",
"41 45 OFFCURVE",
"39 39 OFFCURVE",
"39 30 CURVE SMOOTH",
"39 13 OFFCURVE",
"52 0 OFFCURVE",
"69 0 CURVE SMOOTH",
"77 0 OFFCURVE",
"84 2 OFFCURVE",
"90 8 CURVE SMOOTH",
"175 94 LINE",
"250 31 OFFCURVE",
"334 0 OFFCURVE",
"429 0 CURVE SMOOTH",
"537 0 OFFCURVE",
"629 38 OFFCURVE",
"705 114 CURVE SMOOTH",
"782 191 OFFCURVE",
"820 283 OFFCURVE",
"820 391 CURVE SMOOTH",
"820 486 OFFCURVE",
"789 570 OFFCURVE",
"726 645 CURVE"
);
},
{
closed = 1;
nodes = (
"175 179 LINE",
"124 243 OFFCURVE",
"99 314 OFFCURVE",
"99 391 CURVE SMOOTH",
"99 574 OFFCURVE",
"251 721 OFFCURVE",
"429 721 CURVE SMOOTH",
"507 721 OFFCURVE",
"577 696 OFFCURVE",
"641 645 CURVE"
);
},
{
closed = 1;
nodes = (
"684 603 LINE",
"734 539 OFFCURVE",
"760 468 OFFCURVE",
"760 391 CURVE SMOOTH",
"760 209 OFFCURVE",
"610 60 OFFCURVE",
"429 60 CURVE SMOOTH",
"352 60 OFFCURVE",
"282 85 OFFCURVE",
"218 136 CURVE"
);
}
);
width = 859;
}
);
unicode = 00D8;
},
{
glyphname = Thorn;
lastChange = "2016-10-26 00:21:20 +0000";
layers = (
{
layerId = UUID0;
paths = (
{
closed = 1;
nodes = (
"40 30 LINE SMOOTH",
"40 13 OFFCURVE",
"53 0 OFFCURVE",
"70 0 CURVE SMOOTH",
"87 0 OFFCURVE",
"100 13 OFFCURVE",
"100 30 CURVE SMOOTH",
"100 160 LINE",
"351 160 LINE SMOOTH",
"477 160 OFFCURVE",
"581 264 OFFCURVE",
"581 391 CURVE SMOOTH",
"581 518 OFFCURVE",
"476 621 OFFCURVE",
"351 621 CURVE SMOOTH",
"100 621 LINE",
"100 751 LINE SMOOTH",
"100 768 OFFCURVE",
"87 781 OFFCURVE",
"70 781 CURVE SMOOTH",
"53 781 OFFCURVE",
"40 768 OFFCURVE",
"40 751 CURVE SMOOTH"
);
},
{
closed = 1;
nodes = (
"100 220 LINE",
"100 561 LINE",
"351 561 LINE SMOOTH",
"444 561 OFFCURVE",
"521 482 OFFCURVE",
"521 391 CURVE SMOOTH",
"521 299 OFFCURVE",
"446 220 OFFCURVE",
"351 220 CURVE SMOOTH"
);
}
);
width = 625;
}
);
unicode = 00DE;
},
{
glyphname = germandbls;
lastChange = "2016-10-26 00:21:20 +0000";
layers = (
{
layerId = UUID0;
paths = (
{
closed = 1;
nodes = (
"101 598 LINE SMOOTH",
"101 669 OFFCURVE",
"161 729 OFFCURVE",
"232 729 CURVE SMOOTH",
"302 729 OFFCURVE",
"364 669 OFFCURVE",
"364 598 CURVE SMOOTH",
"364 568 OFFCURVE",
"355 541 OFFCURVE",
"337 518 CURVE",
"314 493 OFFCURVE",
"303 464 OFFCURVE",
"303 429 CURVE SMOOTH",
"303 378 OFFCURVE",
"327 339 OFFCURVE",
"375 310 CURVE SMOOTH",
"421 281 OFFCURVE",
"445 241 OFFCURVE",
"445 192 CURVE SMOOTH",
"445 121 OFFCURVE",
"385 61 OFFCURVE",
"313 61 CURVE SMOOTH",
"276 61 OFFCURVE",
"247 74 OFFCURVE",
"221 100 CURVE SMOOTH",
"214 106 OFFCURVE",
"206 109 OFFCURVE",
"197 109 CURVE SMOOTH",
"180 109 OFFCURVE",
"167 96 OFFCURVE",
"167 79 CURVE SMOOTH",
"167 71 OFFCURVE",
"170 63 OFFCURVE",
"177 56 CURVE SMOOTH",
"214 19 OFFCURVE",
"260 0 OFFCURVE",
"313 0 CURVE SMOOTH",
"420 0 OFFCURVE",
"505 87 OFFCURVE",
"505 192 CURVE SMOOTH",
"505 264 OFFCURVE",
"470 327 OFFCURVE",
"399 365 CURVE SMOOTH",
"376 377 OFFCURVE",
"365 398 OFFCURVE",
"365 429 CURVE SMOOTH",
"365 446 OFFCURVE",
"370 462 OFFCURVE",
"380 475 CURVE SMOOTH",
"409 510 OFFCURVE",
"424 550 OFFCURVE",
"424 598 CURVE SMOOTH",
"424 704 OFFCURVE",
"338 790 OFFCURVE",
"232 790 CURVE SMOOTH",
"126 790 OFFCURVE",
"40 704 OFFCURVE",
"40 598 CURVE SMOOTH",
"40 30 LINE SMOOTH",
"40 13 OFFCURVE",
"53 0 OFFCURVE",
"70 0 CURVE SMOOTH",
"87 0 OFFCURVE",
"101 13 OFFCURVE",
"101 30 CURVE SMOOTH"
);
}
);
width = 547;
}
);
unicode = 00DF;
},
{
glyphname = ae;
lastChange = "2016-10-26 00:21:20 +0000";
layers = (
{
layerId = UUID0;
paths = (
{
closed = 1;
nodes = (
"424 486 OFFCURVE",
"521 390 OFFCURVE",
"521 273 CURVE SMOOTH",
"521 157 OFFCURVE",
"424 61 OFFCURVE",
"308 61 CURVE SMOOTH",
"192 61 OFFCURVE",
"95 157 OFFCURVE",
"95 273 CURVE SMOOTH",
"95 390 OFFCURVE",
"192 486 OFFCURVE",
"308 486 CURVE SMOOTH"
);
},
{
closed = 1;
nodes = (
"583 304 LINE",
"605 417 OFFCURVE",
"693 486 OFFCURVE",
"794 486 CURVE SMOOTH",
"892 486 OFFCURVE",
"982 421 OFFCURVE",
"1006 304 CURVE"
);
},
{
closed = 1;
nodes = (
"582 99 LINE",
"647 33 OFFCURVE",
"719 0 OFFCURVE",
"794 0 CURVE SMOOTH",
"862 0 OFFCURVE",
"922 22 OFFCURVE",
"973 66 CURVE SMOOTH",
"978 70 OFFCURVE",
"980 78 OFFCURVE",
"980 87 CURVE SMOOTH",
"980 104 OFFCURVE",
"967 118 OFFCURVE",
"950 118 CURVE SMOOTH",
"943 118 OFFCURVE",
"936 115 OFFCURVE",
"931 111 CURVE SMOOTH",
"893 78 OFFCURVE",
"847 61 OFFCURVE",
"794 61 CURVE SMOOTH",
"695 61 OFFCURVE",
"605 127 OFFCURVE",
"583 243 CURVE",
"1037 243 LINE SMOOTH",
"1054 243 OFFCURVE",
"1068 256 OFFCURVE",
"1068 273 CURVE SMOOTH",
"1068 423 OFFCURVE",
"944 547 OFFCURVE",
"794 547 CURVE SMOOTH",
"692 547 OFFCURVE",
"614 501 OFFCURVE",
"551 401 CURVE",
"487 502 OFFCURVE",
"411 547 OFFCURVE",
"308 547 CURVE SMOOTH",
"158 547 OFFCURVE",
"35 423 OFFCURVE",
"35 273 CURVE SMOOTH",
"35 124 OFFCURVE",
"158 0 OFFCURVE",
"308 0 CURVE SMOOTH",
"384 0 OFFCURVE",
"455 33 OFFCURVE",
"521 99 CURVE",
"521 30 LINE SMOOTH",
"521 13 OFFCURVE",
"534 0 OFFCURVE",
"551 0 CURVE SMOOTH",
"568 0 OFFCURVE",
"582 13 OFFCURVE",
"582 30 CURVE SMOOTH"
);
}
);
width = 1094;
}
);
unicode = 00E6;
},
{
glyphname = eth;
lastChange = "2016-10-26 00:21:20 +0000";
layers = (
{
layerId = UUID0;
paths = (
{
closed = 1;
nodes = (
"429 486 OFFCURVE",
"525 391 OFFCURVE",
"525 273 CURVE SMOOTH",
"525 156 OFFCURVE",
"429 61 OFFCURVE",
"313 61 CURVE SMOOTH",
"196 61 OFFCURVE",
"100 157 OFFCURVE",
"100 273 CURVE SMOOTH",
"100 390 OFFCURVE",
"196 486 OFFCURVE",
"313 486 CURVE SMOOTH"
);
},
{
closed = 1;
nodes = (
"229 658 LINE SMOOTH",
"220 653 OFFCURVE",
"215 642 OFFCURVE",
"215 632 CURVE SMOOTH",
"215 614 OFFCURVE",
"229 602 OFFCURVE",
"245 602 CURVE SMOOTH",
"250 602 OFFCURVE",
"255 603 OFFCURVE",
"260 605 CURVE SMOOTH",
"339 652 LINE",
"409 531 LINE",
"370 542 OFFCURVE",
"339 547 OFFCURVE",
"313 547 CURVE SMOOTH",
"163 547 OFFCURVE",
"39 423 OFFCURVE",
"39 273 CURVE SMOOTH",
"39 124 OFFCURVE",
"163 0 OFFCURVE",
"313 0 CURVE SMOOTH",
"462 0 OFFCURVE",
"586 124 OFFCURVE",
"586 273 CURVE SMOOTH",
"586 320 OFFCURVE",
"574 366 OFFCURVE",
"553 405 CURVE",
"514 473 LINE SMOOTH",
"500 496 OFFCURVE",
"460 566 OFFCURVE",
"393 683 CURVE",
"470 728 LINE SMOOTH",
"479 733 OFFCURVE",
"485 744 OFFCURVE",
"485 754 CURVE SMOOTH",
"485 774 OFFCURVE",
"470 785 OFFCURVE",
"455 785 CURVE SMOOTH",
"449 785 OFFCURVE",
"444 783 OFFCURVE",
"439 781 CURVE SMOOTH",
"362 736 LINE",
"338 776 LINE SMOOTH",
"333 786 OFFCURVE",
"323 790 OFFCURVE",
"313 790 CURVE SMOOTH",
"295 790 OFFCURVE",
"282 777 OFFCURVE",
"282 760 CURVE SMOOTH",
"282 754 OFFCURVE",
"283 748 OFFCURVE",
"287 742 CURVE SMOOTH",
"309 705 LINE"
);
}
);
width = 625;
}
);
unicode = 00F0;
},
{
glyphname = divide;
lastChange = "2016-10-26 00:21:20 +0000";
layers = (
{
layerId = UUID0;
paths = (
{
closed = 1;
nodes = (
"273 529 OFFCURVE",
"256 547 OFFCURVE",
"233 547 CURVE SMOOTH",
"210 547 OFFCURVE",
"192 529 OFFCURVE",
"192 506 CURVE SMOOTH",
"192 483 OFFCURVE",
"210 466 OFFCURVE",
"233 466 CURVE SMOOTH",
"256 466 OFFCURVE",
"273 483 OFFCURVE",
"273 506 CURVE SMOOTH"
);
},
{
closed = 1;
nodes = (
"395 324 LINE SMOOTH",
"412 324 OFFCURVE",
"425 337 OFFCURVE",
"425 354 CURVE SMOOTH",
"425 372 OFFCURVE",
"412 385 OFFCURVE",
"395 385 CURVE SMOOTH",
"71 385 LINE SMOOTH",
"54 385 OFFCURVE",
"41 372 OFFCURVE",
"41 354 CURVE SMOOTH",
"41 337 OFFCURVE",
"54 324 OFFCURVE",
"71 324 CURVE SMOOTH"
);
},
{
closed = 1;
nodes = (
"273 225 OFFCURVE",
"256 243 OFFCURVE",
"233 243 CURVE SMOOTH",
"210 243 OFFCURVE",
"192 225 OFFCURVE",
"192 203 CURVE SMOOTH",
"192 180 OFFCURVE",
"210 162 OFFCURVE",
"233 162 CURVE SMOOTH",
"256 162 OFFCURVE",
"273 180 OFFCURVE",
"273 203 CURVE SMOOTH"
);
}
);
width = 469;
}
);
unicode = 00F7;
},
{
glyphname = oslash;
lastChange = "2016-10-26 00:21:20 +0000";
layers = (
{
layerId = UUID0;
paths = (
{
closed = 1;
nodes = (
"141 146 LINE",
"113 188 OFFCURVE",
"100 230 OFFCURVE",
"100 273 CURVE SMOOTH",
"100 390 OFFCURVE",
"196 486 OFFCURVE",
"313 486 CURVE SMOOTH",
"356 486 OFFCURVE",
"398 472 OFFCURVE",
"440 444 CURVE"
);
},
{
closed = 1;
nodes = (
"483 401 LINE",
"511 359 OFFCURVE",
"525 316 OFFCURVE",
"525 273 CURVE SMOOTH",
"525 156 OFFCURVE",
"429 61 OFFCURVE",
"313 61 CURVE SMOOTH",
"270 61 OFFCURVE",
"227 74 OFFCURVE",
"185 102 CURVE"
);
},
{
closed = 1;
nodes = (
"483 488 LINE",
"432 527 OFFCURVE",
"375 547 OFFCURVE",
"313 547 CURVE SMOOTH",
"163 547 OFFCURVE",
"39 423 OFFCURVE",
"39 273 CURVE SMOOTH",
"39 210 OFFCURVE",
"59 153 OFFCURVE",
"98 103 CURVE",
"47 52 LINE SMOOTH",
"42 46 OFFCURVE",
"39 38 OFFCURVE",
"39 30 CURVE SMOOTH",
"39 13 OFFCURVE",
"52 0 OFFCURVE",
"69 0 CURVE SMOOTH",
"77 0 OFFCURVE",
"85 2 OFFCURVE",
"91 9 CURVE SMOOTH",
"142 59 LINE",
"193 20 OFFCURVE",
"250 0 OFFCURVE",
"313 0 CURVE SMOOTH",
"462 0 OFFCURVE",
"586 124 OFFCURVE",
"586 273 CURVE SMOOTH",
"586 336 OFFCURVE",
"566 393 OFFCURVE",
"527 444 CURVE",
"578 495 LINE SMOOTH",
"583 500 OFFCURVE",
"586 508 OFFCURVE",
"586 517 CURVE SMOOTH",
"586 534 OFFCURVE",
"573 547 OFFCURVE",
"556 547 CURVE SMOOTH",
"546 547 OFFCURVE",
"539 543 OFFCURVE",
"533 537 CURVE SMOOTH"
);
}
);
width = 625;
}
);
unicode = 00F8;
},
{
glyphname = thorn;
lastChange = "2016-10-26 00:21:20 +0000";
layers = (
{
layerId = UUID0;
paths = (
{
closed = 1;
nodes = (
"100 391 OFFCURVE",
"196 487 OFFCURVE",
"313 487 CURVE SMOOTH",
"429 487 OFFCURVE",
"525 392 OFFCURVE",
"525 274 CURVE SMOOTH",
"525 157 OFFCURVE",
"429 62 OFFCURVE",
"313 62 CURVE SMOOTH",
"195 62 OFFCURVE",
"100 158 OFFCURVE",
"100 274 CURVE SMOOTH"
);
},
{
closed = 1;
nodes = (
"100 751 LINE SMOOTH",
"100 768 OFFCURVE",
"86 781 OFFCURVE",
"69 781 CURVE SMOOTH",
"52 781 OFFCURVE",
"39 768 OFFCURVE",
"39 751 CURVE SMOOTH",
"39 -204 LINE SMOOTH",
"39 -221 OFFCURVE",
"52 -234 OFFCURVE",
"69 -234 CURVE SMOOTH",
"86 -234 OFFCURVE",
"100 -221 OFFCURVE",
"100 -204 CURVE SMOOTH",
"100 100 LINE",
"166 34 OFFCURVE",
"237 1 OFFCURVE",
"313 1 CURVE SMOOTH",
"462 1 OFFCURVE",
"586 125 OFFCURVE",
"586 274 CURVE SMOOTH",
"586 424 OFFCURVE",
"462 548 OFFCURVE",
"313 548 CURVE SMOOTH",
"237 548 OFFCURVE",
"166 515 OFFCURVE",
"100 449 CURVE"
);
}
);
width = 625;
}
);
unicode = 00FE;
},
{
glyphname = dotlessi;
lastChange = "2016-10-26 00:21:20 +0000";
layers = (
{
layerId = UUID0;
paths = (
{
closed = 1;
nodes = (
"83 30 LINE SMOOTH",
"83 13 OFFCURVE",
"96 0 OFFCURVE",
"113 0 CURVE SMOOTH",
"130 0 OFFCURVE",
"144 13 OFFCURVE",
"144 30 CURVE SMOOTH",
"144 517 LINE SMOOTH",
"144 534 OFFCURVE",
"130 547 OFFCURVE",
"113 547 CURVE SMOOTH",
"96 547 OFFCURVE",
"83 534 OFFCURVE",
"83 517 CURVE SMOOTH"
);
}
);
width = 234;
}
);
unicode = 0131;
},
{
glyphname = circumflex;
lastChange = "2016-10-26 00:21:20 +0000";
layers = (
{
layerId = UUID0;
paths = (
{
closed = 1;
nodes = (
"208 766 LINE",
"204 768 OFFCURVE",
"199 770 OFFCURVE",
"193 770 CURVE SMOOTH",
"188 770 OFFCURVE",
"182 768 OFFCURVE",
"178 766 CURVE",
"57 685 LINE SMOOTH",
"46 678 OFFCURVE",
"41 668 OFFCURVE",
"41 658 CURVE SMOOTH",
"41 640 OFFCURVE",
"55 628 OFFCURVE",
"73 628 CURVE SMOOTH",
"79 628 OFFCURVE",
"85 630 OFFCURVE",
"91 634 CURVE SMOOTH",
"193 702 LINE",
"295 634 LINE SMOOTH",
"301 630 OFFCURVE",
"306 628 OFFCURVE",
"314 628 CURVE SMOOTH",
"332 628 OFFCURVE",
"345 641 OFFCURVE",
"345 658 CURVE SMOOTH",
"345 668 OFFCURVE",
"340 678 OFFCURVE",
"329 685 CURVE SMOOTH"
);
}
);
width = 391;
}
);
unicode = 02C6;
},
{
glyphname = caron;
lastChange = "2016-10-26 00:21:20 +0000";
layers = (
{
layerId = UUID0;
paths = (
{
closed = 1;
nodes = (
"329 712 LINE SMOOTH",
"340 720 OFFCURVE",
"345 729 OFFCURVE",
"345 739 CURVE SMOOTH",
"345 756 OFFCURVE",
"332 770 OFFCURVE",
"314 770 CURVE SMOOTH",
"307 770 OFFCURVE",
"301 767 OFFCURVE",
"295 763 CURVE SMOOTH",
"193 695 LINE",
"91 763 LINE SMOOTH",
"84 767 OFFCURVE",
"78 770 OFFCURVE",
"72 770 CURVE SMOOTH",
"55 770 OFFCURVE",
"41 756 OFFCURVE",
"41 739 CURVE SMOOTH",
"41 729 OFFCURVE",
"46 719 OFFCURVE",
"57 712 CURVE SMOOTH",
"178 632 LINE",
"182 629 OFFCURVE",
"188 628 OFFCURVE",
"193 628 CURVE SMOOTH",
"199 628 OFFCURVE",
"204 629 OFFCURVE",
"208 632 CURVE"
);
}
);
width = 391;
}
);
unicode = 02C7;
},
{
glyphname = uni02C9;
lastChange = "2016-10-26 00:21:20 +0000";
layers = (
{
layerId = UUID0;
paths = (
{
closed = 1;
nodes = (
"314 625 LINE SMOOTH",
"332 625 OFFCURVE",
"345 639 OFFCURVE",
"345 656 CURVE SMOOTH",
"345 673 OFFCURVE",
"332 687 OFFCURVE",
"314 687 CURVE SMOOTH",
"72 687 LINE SMOOTH",
"55 687 OFFCURVE",
"41 673 OFFCURVE",
"41 656 CURVE SMOOTH",
"41 639 OFFCURVE",
"55 625 OFFCURVE",
"72 625 CURVE SMOOTH"
);
}
);
width = 391;
}
);
unicode = 02C9;
},
{
glyphname = breve;
lastChange = "2016-10-26 00:21:20 +0000";
layers = (
{
layerId = UUID0;
paths = (
{
closed = 1;
nodes = (
"41 678 OFFCURVE",
"110 628 OFFCURVE",
"193 628 CURVE SMOOTH",
"271 628 OFFCURVE",
"341 671 OFFCURVE",
"346 740 CURVE",
"345 756 OFFCURVE",
"332 770 OFFCURVE",
"315 770 CURVE SMOOTH",
"298 770 OFFCURVE",
"285 756 OFFCURVE",
"285 739 CURVE SMOOTH",
"285 708 OFFCURVE",
"240 688 OFFCURVE",
"193 688 CURVE SMOOTH",
"145 688 OFFCURVE",
"102 709 OFFCURVE",
"102 739 CURVE SMOOTH",
"102 756 OFFCURVE",
"89 770 OFFCURVE",
"72 770 CURVE SMOOTH",
"55 770 OFFCURVE",
"41 756 OFFCURVE",
"41 739 CURVE SMOOTH"
);
}
);
width = 391;
}
);
unicode = 02D8;
},
{
glyphname = dotaccent;
lastChange = "2016-10-26 00:21:20 +0000";
layers = (
{
layerId = UUID0;
paths = (
{
closed = 1;
nodes = (
"144 708 OFFCURVE",
"122 729 OFFCURVE",
"94 729 CURVE SMOOTH",
"66 729 OFFCURVE",
"43 708 OFFCURVE",
"43 679 CURVE SMOOTH",
"43 651 OFFCURVE",
"65 628 OFFCURVE",
"94 628 CURVE SMOOTH",
"123 628 OFFCURVE",
"144 651 OFFCURVE",
"144 679 CURVE SMOOTH"
);
}
);
width = 195;
}
);
unicode = 02D9;
},
{
glyphname = ring;
lastChange = "2016-10-26 00:21:20 +0000";
layers = (
{
layerId = UUID0;
paths = (
{
closed = 1;
nodes = (
"226 740 OFFCURVE",
"185 781 OFFCURVE",
"134 781 CURVE SMOOTH",
"85 781 OFFCURVE",
"42 741 OFFCURVE",
"42 689 CURVE SMOOTH",
"42 639 OFFCURVE",
"84 597 OFFCURVE",
"134 597 CURVE SMOOTH",
"186 597 OFFCURVE",
"226 640 OFFCURVE",
"226 689 CURVE SMOOTH"
);
},
{
closed = 1;
nodes = (
"188 660 OFFCURVE",
"164 636 OFFCURVE",
"134 636 CURVE SMOOTH",
"105 636 OFFCURVE",
"81 660 OFFCURVE",
"81 689 CURVE SMOOTH",
"81 719 OFFCURVE",
"105 743 OFFCURVE",
"134 743 CURVE SMOOTH",
"164 743 OFFCURVE",
"188 719 OFFCURVE",
"188 689 CURVE SMOOTH"
);
}
);
width = 273;
}
);
unicode = 02DA;
},
{
glyphname = ogonek;
lastChange = "2016-10-26 00:21:20 +0000";
layers = (
{
layerId = UUID0;
paths = (
{
closed = 1;
nodes = (
"122 2 OFFCURVE",
"109 -12 OFFCURVE",
"89 -28 CURVE SMOOTH",
"58 -53 OFFCURVE",
"42 -83 OFFCURVE",
"42 -119 CURVE SMOOTH",
"42 -181 OFFCURVE",
"93 -230 OFFCURVE",
"153 -230 CURVE SMOOTH",
"175 -230 OFFCURVE",
"195 -224 OFFCURVE",
"214 -211 CURVE SMOOTH",
"255 -183 LINE SMOOTH",
"261 -178 OFFCURVE",
"265 -170 OFFCURVE",
"265 -160 CURVE SMOOTH",
"265 -143 OFFCURVE",
"251 -129 OFFCURVE",
"234 -129 CURVE SMOOTH",
"227 -129 OFFCURVE",
"222 -131 OFFCURVE",
"216 -135 CURVE SMOOTH",
"181 -161 LINE SMOOTH",
"172 -167 OFFCURVE",
"162 -169 OFFCURVE",
"153 -169 CURVE SMOOTH",
"125 -169 OFFCURVE",
"103 -147 OFFCURVE",
"103 -119 CURVE SMOOTH",
"103 -104 OFFCURVE",
"110 -89 OFFCURVE",
"124 -78 CURVE SMOOTH",
"163 -49 OFFCURVE",
"184 -24 OFFCURVE",
"184 2 CURVE SMOOTH",
"184 19 OFFCURVE",
"171 31 OFFCURVE",
"153 31 CURVE SMOOTH",
"141 31 OFFCURVE",
"132 25 OFFCURVE",
"127 16 CURVE"
);
}
);
width = 313;
}
);
unicode = 02DB;
},
{
glyphname = tilde;
lastChange = "2016-10-26 00:21:20 +0000";
layers = (
{
layerId = UUID0;
paths = (
{
closed = 1;
nodes = (
"270 677 OFFCURVE",
"289 684 OFFCURVE",
"310 684 CURVE SMOOTH",
"335 684 OFFCURVE",
"356 674 OFFCURVE",
"374 656 CURVE SMOOTH",
"379 651 OFFCURVE",
"388 648 OFFCURVE",
"396 648 CURVE SMOOTH",
"413 648 OFFCURVE",
"426 661 OFFCURVE",
"426 678 CURVE SMOOTH",
"426 721 OFFCURVE",
"348 744 OFFCURVE",
"310 744 CURVE SMOOTH",
"271 744 OFFCURVE",
"238 731 OFFCURVE",
"208 706 CURVE SMOOTH",
"193 692 OFFCURVE",
"173 686 OFFCURVE",
"152 686 CURVE SMOOTH",
"126 686 OFFCURVE",
"105 695 OFFCURVE",
"87 713 CURVE SMOOTH",
"82 719 OFFCURVE",
"75 722 OFFCURVE",
"66 722 CURVE SMOOTH",
"49 722 OFFCURVE",
"36 708 OFFCURVE",
"36 691 CURVE SMOOTH",
"36 648 OFFCURVE",
"114 625 OFFCURVE",
"152 625 CURVE SMOOTH",
"190 625 OFFCURVE",
"224 638 OFFCURVE",
"252 663 CURVE"
);
}
);
width = 469;
}
);
unicode = 02DC;
},
{
glyphname = hungarumlaut;
lastChange = "2016-10-26 00:21:20 +0000";
layers = (
{
layerId = UUID0;
paths = (
{
closed = 1;
nodes = (
"146 740 LINE SMOOTH",
"147 743 OFFCURVE",
"148 747 OFFCURVE",
"148 751 CURVE SMOOTH",
"148 766 OFFCURVE",
"136 781 OFFCURVE",
"117 781 CURVE SMOOTH",
"105 781 OFFCURVE",
"94 774 OFFCURVE",
"89 762 CURVE",
"43 618 LINE SMOOTH",
"42 616 OFFCURVE",
"42 613 OFFCURVE",
"42 609 CURVE SMOOTH",
"42 596 OFFCURVE",
"51 589 OFFCURVE",
"61 589 CURVE SMOOTH",
"70 589 OFFCURVE",
"77 595 OFFCURVE",
"81 603 CURVE SMOOTH"
);
},
{
closed = 1;
nodes = (
"303 740 LINE SMOOTH",
"304 743 OFFCURVE",
"305 747 OFFCURVE",
"305 751 CURVE SMOOTH",
"305 766 OFFCURVE",
"293 781 OFFCURVE",
"274 781 CURVE SMOOTH",
"262 781 OFFCURVE",
"251 774 OFFCURVE",
"247 762 CURVE",
"200 618 LINE SMOOTH",
"199 616 OFFCURVE",
"199 613 OFFCURVE",
"199 609 CURVE SMOOTH",
"199 596 OFFCURVE",
"208 589 OFFCURVE",
"218 589 CURVE SMOOTH",
"228 589 OFFCURVE",
"234 594 OFFCURVE",
"238 603 CURVE SMOOTH"
);
}
);
width = 352;
}
);
unicode = 02DD;
},
{
glyphname = commaaccent;
lastChange = "2016-10-26 00:21:20 +0000";
layers = (
{
layerId = UUID0;
paths = (
{
closed = 1;
nodes = (
"265 -76 OFFCURVE",
"225 -42 OFFCURVE",
"167 -39 CURVE",
"135 -39 OFFCURVE",
"124 -46 OFFCURVE",
"124 -63 CURVE SMOOTH",
"124 -107 OFFCURVE",
"205 -79 OFFCURVE",
"205 -126 CURVE SMOOTH",
"205 -148 OFFCURVE",
"182 -162 OFFCURVE",
"154 -162 CURVE SMOOTH",
"145 -162 OFFCURVE",
"136 -160 OFFCURVE",
"129 -156 CURVE SMOOTH",
"89 -131 LINE",
"85 -128 OFFCURVE",
"79 -126 OFFCURVE",
"73 -126 CURVE SMOOTH",
"56 -126 OFFCURVE",
"42 -140 OFFCURVE",
"42 -157 CURVE SMOOTH",
"42 -168 OFFCURVE",
"47 -176 OFFCURVE",
"56 -183 CURVE",
"101 -209 LINE",
"118 -218 OFFCURVE",
"136 -223 OFFCURVE",
"154 -223 CURVE SMOOTH",
"214 -223 OFFCURVE",
"265 -181 OFFCURVE",
"265 -126 CURVE SMOOTH"
);
}
);
width = 313;
}
);
},
{
glyphname = endash;
lastChange = "2016-10-26 00:21:20 +0000";
layers = (
{
layerId = UUID0;
paths = (
{
closed = 1;
nodes = (
"396 243 LINE SMOOTH",
"413 243 OFFCURVE",
"426 256 OFFCURVE",
"426 273 CURVE SMOOTH",
"426 291 OFFCURVE",
"413 304 OFFCURVE",
"396 304 CURVE SMOOTH",
"-9 304 LINE SMOOTH",
"-26 304 OFFCURVE",
"-40 291 OFFCURVE",
"-40 273 CURVE SMOOTH",
"-40 256 OFFCURVE",
"-26 243 OFFCURVE",
"-9 243 CURVE SMOOTH"
);
}
);
width = 391;
}
);
unicode = 2013;
},
{
glyphname = emdash;
lastChange = "2016-10-26 00:21:20 +0000";
layers = (
{
layerId = UUID0;
paths = (
{
closed = 1;
nodes = (
"958 243 LINE SMOOTH",
"975 243 OFFCURVE",
"988 256 OFFCURVE",
"988 273 CURVE SMOOTH",
"988 291 OFFCURVE",
"975 304 OFFCURVE",
"958 304 CURVE SMOOTH",
"-15 304 LINE SMOOTH",
"-32 304 OFFCURVE",
"-45 291 OFFCURVE",
"-45 273 CURVE SMOOTH",
"-45 256 OFFCURVE",
"-32 243 OFFCURVE",
"-15 243 CURVE SMOOTH"
);
}
);
width = 938;
}
);
unicode = 2014;
},
{
glyphname = quoteleft;
lastChange = "2016-10-26 00:21:20 +0000";
layers = (
{
layerId = UUID0;
paths = (
{
closed = 1;
nodes = (
"171 514 OFFCURVE",
"170 519 OFFCURVE",
"167 524 CURVE SMOOTH",
"151 558 OFFCURVE",
"143 594 OFFCURVE",
"143 632 CURVE SMOOTH",
"143 671 OFFCURVE",
"152 710 OFFCURVE",
"169 753 CURVE SMOOTH",
"170 756 OFFCURVE",
"171 759 OFFCURVE",
"171 762 CURVE SMOOTH",
"171 773 OFFCURVE",
"162 782 OFFCURVE",
"151 782 CURVE SMOOTH",
"146 782 OFFCURVE",
"141 780 OFFCURVE",
"137 776 CURVE",
"91 719 OFFCURVE",
"63 657 OFFCURVE",
"63 602 CURVE SMOOTH",
"63 557 OFFCURVE",
"84 468 OFFCURVE",
"130 468 CURVE SMOOTH",
"152 468 OFFCURVE",
"171 485 OFFCURVE",
"171 508 CURVE SMOOTH"
);
}
);
width = 234;
}
);
unicode = 2018;
},
{
glyphname = quoteright;
lastChange = "2016-10-26 00:21:20 +0000";
layers = (
{
layerId = UUID0;
paths = (
{
closed = 1;
nodes = (
"63 736 OFFCURVE",
"64 731 OFFCURVE",
"66 726 CURVE SMOOTH",
"83 692 OFFCURVE",
"91 656 OFFCURVE",
"91 618 CURVE SMOOTH",
"91 579 OFFCURVE",
"82 540 OFFCURVE",
"65 497 CURVE SMOOTH",
"63 494 OFFCURVE",
"63 491 OFFCURVE",
"63 488 CURVE SMOOTH",
"63 477 OFFCURVE",
"72 468 OFFCURVE",
"83 468 CURVE SMOOTH",
"88 468 OFFCURVE",
"93 470 OFFCURVE",
"97 474 CURVE",
"143 531 OFFCURVE",
"171 593 OFFCURVE",
"171 648 CURVE SMOOTH",
"171 693 OFFCURVE",
"149 782 OFFCURVE",
"104 782 CURVE SMOOTH",
"82 782 OFFCURVE",
"63 765 OFFCURVE",
"63 742 CURVE SMOOTH"
);
}
);
width = 234;
}
);
unicode = 2019;
},
{
glyphname = quotesinglbase;
lastChange = "2016-10-26 00:21:20 +0000";
layers = (
{
layerId = UUID0;
paths = (
{
closed = 1;
nodes = (
"63 110 OFFCURVE",
"64 105 OFFCURVE",
"66 100 CURVE SMOOTH",
"83 66 OFFCURVE",
"91 30 OFFCURVE",
"91 -8 CURVE SMOOTH",
"91 -47 OFFCURVE",
"82 -86 OFFCURVE",
"65 -129 CURVE SMOOTH",
"63 -132 OFFCURVE",
"63 -135 OFFCURVE",
"63 -138 CURVE SMOOTH",
"63 -149 OFFCURVE",
"72 -158 OFFCURVE",
"83 -158 CURVE SMOOTH",
"88 -158 OFFCURVE",
"93 -156 OFFCURVE",
"97 -152 CURVE",
"143 -95 OFFCURVE",
"171 -33 OFFCURVE",
"171 22 CURVE SMOOTH",
"171 67 OFFCURVE",
"149 156 OFFCURVE",
"104 156 CURVE SMOOTH",
"82 156 OFFCURVE",
"63 139 OFFCURVE",
"63 116 CURVE SMOOTH"
);
}
);
width = 234;
}
);
unicode = 201A;
},
{
glyphname = quotedblleft;
lastChange = "2016-10-26 00:21:20 +0000";
layers = (
{
layerId = UUID0;
paths = (
{
closed = 1;
nodes = (
"147 514 OFFCURVE",
"146 519 OFFCURVE",
"144 524 CURVE SMOOTH",
"127 558 OFFCURVE",
"119 594 OFFCURVE",
"119 632 CURVE SMOOTH",
"119 671 OFFCURVE",
"128 710 OFFCURVE",
"145 753 CURVE SMOOTH",
"146 756 OFFCURVE",
"147 759 OFFCURVE",
"147 762 CURVE SMOOTH",
"147 773 OFFCURVE",
"138 782 OFFCURVE",
"127 782 CURVE SMOOTH",
"122 782 OFFCURVE",
"117 780 OFFCURVE",
"113 776 CURVE",
"67 719 OFFCURVE",
"39 657 OFFCURVE",
"39 602 CURVE SMOOTH",
"39 557 OFFCURVE",
"60 468 OFFCURVE",
"106 468 CURVE SMOOTH",
"128 468 OFFCURVE",
"147 485 OFFCURVE",
"147 508 CURVE SMOOTH"
);
},
{
closed = 1;
nodes = (
"322 514 OFFCURVE",
"321 519 OFFCURVE",
"318 524 CURVE SMOOTH",
"302 558 OFFCURVE",
"293 594 OFFCURVE",
"293 632 CURVE SMOOTH",
"293 671 OFFCURVE",
"303 710 OFFCURVE",
"320 753 CURVE SMOOTH",
"321 756 OFFCURVE",
"322 759 OFFCURVE",
"322 762 CURVE SMOOTH",
"322 773 OFFCURVE",
"313 782 OFFCURVE",
"302 782 CURVE SMOOTH",
"296 782 OFFCURVE",
"292 780 OFFCURVE",
"288 776 CURVE",
"242 719 OFFCURVE",
"214 657 OFFCURVE",
"214 602 CURVE SMOOTH",
"214 557 OFFCURVE",
"235 468 OFFCURVE",
"281 468 CURVE SMOOTH",
"303 468 OFFCURVE",
"322 485 OFFCURVE",
"322 508 CURVE SMOOTH"
);
}
);
width = 371;
}
);
unicode = 201C;
},
{
glyphname = quotedblright;
lastChange = "2016-10-26 00:21:20 +0000";
layers = (
{
layerId = UUID0;
paths = (
{
closed = 1;
nodes = (
"214 736 OFFCURVE",
"215 730 OFFCURVE",
"217 725 CURVE SMOOTH",
"233 691 OFFCURVE",
"242 655 OFFCURVE",
"242 618 CURVE SMOOTH",
"242 579 OFFCURVE",
"233 539 OFFCURVE",
"216 497 CURVE SMOOTH",
"214 493 OFFCURVE",
"214 490 OFFCURVE",
"214 488 CURVE SMOOTH",
"214 477 OFFCURVE",
"223 468 OFFCURVE",
"234 468 CURVE SMOOTH",
"239 468 OFFCURVE",
"244 470 OFFCURVE",
"248 473 CURVE",
"294 530 OFFCURVE",
"322 592 OFFCURVE",
"322 647 CURVE SMOOTH",
"322 693 OFFCURVE",
"300 782 OFFCURVE",
"254 782 CURVE SMOOTH",
"232 782 OFFCURVE",
"214 764 OFFCURVE",
"214 741 CURVE SMOOTH"
);
},
{
closed = 1;
nodes = (
"39 736 OFFCURVE",
"40 730 OFFCURVE",
"42 725 CURVE SMOOTH",
"59 691 OFFCURVE",
"67 655 OFFCURVE",
"67 618 CURVE SMOOTH",
"67 579 OFFCURVE",
"58 539 OFFCURVE",
"41 497 CURVE SMOOTH",
"40 493 OFFCURVE",
"39 490 OFFCURVE",
"39 488 CURVE SMOOTH",
"39 477 OFFCURVE",
"48 468 OFFCURVE",
"59 468 CURVE SMOOTH",
"64 468 OFFCURVE",
"69 470 OFFCURVE",
"73 473 CURVE",
"119 530 OFFCURVE",
"147 592 OFFCURVE",
"147 647 CURVE SMOOTH",
"147 693 OFFCURVE",
"125 782 OFFCURVE",
"80 782 CURVE SMOOTH",
"58 782 OFFCURVE",
"39 764 OFFCURVE",
"39 741 CURVE SMOOTH"
);
}
);
width = 371;
}
);
unicode = 201D;
},
{
glyphname = quotedblbase;
lastChange = "2016-10-26 00:21:20 +0000";
layers = (
{
layerId = UUID0;
paths = (
{
closed = 1;
nodes = (
"214 110 OFFCURVE",
"215 105 OFFCURVE",
"217 100 CURVE SMOOTH",
"233 66 OFFCURVE",
"242 30 OFFCURVE",
"242 -8 CURVE SMOOTH",
"242 -47 OFFCURVE",
"233 -86 OFFCURVE",
"216 -129 CURVE SMOOTH",
"214 -132 OFFCURVE",
"214 -135 OFFCURVE",
"214 -138 CURVE SMOOTH",
"214 -149 OFFCURVE",
"223 -158 OFFCURVE",
"234 -158 CURVE SMOOTH",
"239 -158 OFFCURVE",
"244 -156 OFFCURVE",
"248 -152 CURVE",
"294 -95 OFFCURVE",
"322 -33 OFFCURVE",
"322 22 CURVE SMOOTH",
"322 67 OFFCURVE",
"300 156 OFFCURVE",
"254 156 CURVE SMOOTH",
"232 156 OFFCURVE",
"214 139 OFFCURVE",
"214 116 CURVE SMOOTH"
);
},
{
closed = 1;
nodes = (
"39 110 OFFCURVE",
"40 105 OFFCURVE",
"42 100 CURVE SMOOTH",
"59 66 OFFCURVE",
"67 30 OFFCURVE",
"67 -8 CURVE SMOOTH",
"67 -47 OFFCURVE",
"58 -86 OFFCURVE",
"41 -129 CURVE SMOOTH",
"40 -132 OFFCURVE",
"39 -135 OFFCURVE",
"39 -138 CURVE SMOOTH",
"39 -149 OFFCURVE",
"48 -158 OFFCURVE",
"59 -158 CURVE SMOOTH",
"64 -158 OFFCURVE",
"69 -156 OFFCURVE",
"73 -152 CURVE",
"119 -95 OFFCURVE",
"147 -33 OFFCURVE",
"147 22 CURVE SMOOTH",
"147 67 OFFCURVE",
"125 156 OFFCURVE",
"80 156 CURVE SMOOTH",
"58 156 OFFCURVE",
"39 139 OFFCURVE",
"39 116 CURVE SMOOTH"
);
}
);
width = 371;
}
);
unicode = 201E;
},
{
glyphname = dagger;
lastChange = "2016-10-26 00:21:20 +0000";
layers = (
{
layerId = UUID0;
paths = (
{
closed = 1;
nodes = (
"242 486 LINE",
"242 -205 LINE SMOOTH",
"242 -221 OFFCURVE",
"255 -234 OFFCURVE",
"272 -234 CURVE SMOOTH",
"290 -234 OFFCURVE",
"303 -220 OFFCURVE",
"303 -205 CURVE SMOOTH",
"303 486 LINE",
"475 486 LINE SMOOTH",
"492 486 OFFCURVE",
"505 500 OFFCURVE",
"505 517 CURVE SMOOTH",
"505 534 OFFCURVE",
"492 547 OFFCURVE",
"475 547 CURVE SMOOTH",
"303 547 LINE",
"303 760 LINE SMOOTH",
"303 777 OFFCURVE",
"290 790 OFFCURVE",
"272 790 CURVE SMOOTH",
"255 790 OFFCURVE",
"242 777 OFFCURVE",
"242 760 CURVE SMOOTH",
"242 547 LINE",
"70 547 LINE SMOOTH",
"53 547 OFFCURVE",
"40 534 OFFCURVE",
"40 517 CURVE SMOOTH",
"40 500 OFFCURVE",
"53 486 OFFCURVE",
"70 486 CURVE SMOOTH"
);
}
);
width = 547;
}
);
unicode = 2020;
},
{
glyphname = daggerdbl;
lastChange = "2016-10-26 00:21:20 +0000";
layers = (
{
layerId = UUID0;
paths = (
{
closed = 1;
nodes = (
"242 -205 LINE SMOOTH",
"242 -221 OFFCURVE",
"255 -234 OFFCURVE",
"272 -234 CURVE SMOOTH",
"290 -234 OFFCURVE",
"303 -220 OFFCURVE",
"303 -205 CURVE SMOOTH",
"303 0 LINE",
"475 0 LINE SMOOTH",
"492 0 OFFCURVE",
"505 13 OFFCURVE",
"505 30 CURVE SMOOTH",
"505 47 OFFCURVE",
"492 61 OFFCURVE",
"475 61 CURVE SMOOTH",
"303 61 LINE",
"303 486 LINE",
"475 486 LINE SMOOTH",
"492 486 OFFCURVE",
"505 500 OFFCURVE",
"505 517 CURVE SMOOTH",
"505 534 OFFCURVE",
"492 547 OFFCURVE",
"475 547 CURVE SMOOTH",
"303 547 LINE",
"303 760 LINE SMOOTH",
"303 777 OFFCURVE",
"290 790 OFFCURVE",
"272 790 CURVE SMOOTH",
"255 790 OFFCURVE",
"242 777 OFFCURVE",
"242 760 CURVE SMOOTH",
"242 547 LINE",
"70 547 LINE SMOOTH",
"53 547 OFFCURVE",
"40 534 OFFCURVE",
"40 517 CURVE SMOOTH",
"40 500 OFFCURVE",
"53 486 OFFCURVE",
"70 486 CURVE SMOOTH",
"242 486 LINE",
"242 61 LINE",
"70 61 LINE SMOOTH",
"53 61 OFFCURVE",
"40 47 OFFCURVE",
"40 30 CURVE SMOOTH",
"40 13 OFFCURVE",
"53 0 OFFCURVE",
"70 0 CURVE SMOOTH",
"242 0 LINE"
);
}
);
width = 547;
}
);
unicode = 2021;
},
{
glyphname = bullet;
lastChange = "2016-10-26 00:21:20 +0000";
layers = (
{
layerId = UUID0;
paths = (
{
closed = 1;
nodes = (
"305 455 OFFCURVE",
"253 506 OFFCURVE",
"193 506 CURVE SMOOTH",
"132 506 OFFCURVE",
"82 456 OFFCURVE",
"82 395 CURVE SMOOTH",
"82 334 OFFCURVE",
"130 284 OFFCURVE",
"193 284 CURVE SMOOTH",
"255 284 OFFCURVE",
"305 335 OFFCURVE",
"305 395 CURVE SMOOTH"
);
}
);
width = 391;
}
);
unicode = 2022;
},
{
glyphname = ellipsis;
lastChange = "2016-10-26 00:21:20 +0000";
layers = (
{
layerId = UUID0;
paths = (
{
closed = 1;
nodes = (
"140 79 OFFCURVE",
"118 101 OFFCURVE",
"89 101 CURVE SMOOTH",
"62 101 OFFCURVE",
"39 80 OFFCURVE",
"39 51 CURVE SMOOTH",
"39 22 OFFCURVE",
"61 0 OFFCURVE",
"89 0 CURVE SMOOTH",
"119 0 OFFCURVE",
"140 24 OFFCURVE",
"140 51 CURVE SMOOTH"
);
},
{
closed = 1;
nodes = (
"606 80 OFFCURVE",
"583 101 OFFCURVE",
"556 101 CURVE SMOOTH",
"527 101 OFFCURVE",
"505 79 OFFCURVE",
"505 51 CURVE SMOOTH",
"505 23 OFFCURVE",
"526 0 OFFCURVE",
"556 0 CURVE SMOOTH",
"584 0 OFFCURVE",
"606 22 OFFCURVE",
"606 51 CURVE SMOOTH"
);
},
{
closed = 1;
nodes = (
"373 79 OFFCURVE",
"351 101 OFFCURVE",
"323 101 CURVE SMOOTH",
"295 101 OFFCURVE",
"272 80 OFFCURVE",
"272 51 CURVE SMOOTH",
"272 22 OFFCURVE",
"294 0 OFFCURVE",
"323 0 CURVE SMOOTH",
"352 0 OFFCURVE",
"373 23 OFFCURVE",
"373 51 CURVE SMOOTH"
);
}
);
width = 703;
}
);
unicode = 2026;
},
{
glyphname = guilsinglleft;
lastChange = "2016-10-26 00:21:20 +0000";
layers = (
{
layerId = UUID0;
paths = (
{
closed = 1;
nodes = (
"44 288 LINE SMOOTH",
"42 283 OFFCURVE",
"41 278 OFFCURVE",
"41 273 CURVE SMOOTH",
"41 268 OFFCURVE",
"42 262 OFFCURVE",
"45 256 CURVE SMOOTH",
"164 19 LINE",
"171 6 OFFCURVE",
"178 0 OFFCURVE",
"192 0 CURVE SMOOTH",
"209 0 OFFCURVE",
"223 13 OFFCURVE",
"223 30 CURVE SMOOTH",
"223 35 OFFCURVE",
"222 40 OFFCURVE",
"220 43 CURVE SMOOTH",
"105 273 LINE",
"220 503 LINE SMOOTH",
"222 507 OFFCURVE",
"223 511 OFFCURVE",
"223 516 CURVE SMOOTH",
"223 533 OFFCURVE",
"209 546 OFFCURVE",
"192 546 CURVE SMOOTH",
"180 546 OFFCURVE",
"171 541 OFFCURVE",
"164 527 CURVE SMOOTH"
);
}
);
width = 273;
}
);
unicode = 2039;
},
{
glyphname = guilsinglright;
lastChange = "2016-10-26 00:21:20 +0000";
layers = (
{
layerId = UUID0;
paths = (
{
closed = 1;
nodes = (
"99 527 LINE",
"91 541 OFFCURVE",
"83 546 OFFCURVE",
"71 546 CURVE SMOOTH",
"54 546 OFFCURVE",
"41 533 OFFCURVE",
"41 516 CURVE SMOOTH",
"41 511 OFFCURVE",
"42 507 OFFCURVE",
"43 503 CURVE SMOOTH",
"158 273 LINE",
"43 43 LINE SMOOTH",
"42 40 OFFCURVE",
"41 35 OFFCURVE",
"41 30 CURVE SMOOTH",
"41 13 OFFCURVE",
"54 0 OFFCURVE",
"71 0 CURVE SMOOTH",
"85 0 OFFCURVE",
"92 6 OFFCURVE",
"99 19 CURVE",
"218 256 LINE SMOOTH",
"221 262 OFFCURVE",
"223 268 OFFCURVE",
"223 273 CURVE SMOOTH",
"223 278 OFFCURVE",
"221 283 OFFCURVE",
"219 288 CURVE SMOOTH"
);
}
);
width = 273;
}
);
unicode = 203A;
},
{
glyphname = fraction;
lastChange = "2016-10-26 00:21:20 +0000";
layers = (
{
layerId = UUID0;
paths = (
{
closed = 1;
nodes = (
"469 790 OFFCURVE",
"461 786 OFFCURVE",
"454 779 CURVE",
"-194 51 LINE",
"-199 44 OFFCURVE",
"-201 38 OFFCURVE",
"-201 30 CURVE SMOOTH",
"-201 13 OFFCURVE",
"-188 0 OFFCURVE",
"-171 0 CURVE SMOOTH",
"-162 0 OFFCURVE",
"-153 4 OFFCURVE",
"-147 11 CURVE SMOOTH",
"502 741 LINE",
"506 747 OFFCURVE",
"508 752 OFFCURVE",
"508 760 CURVE SMOOTH",
"508 777 OFFCURVE",
"495 790 OFFCURVE",
"478 790 CURVE SMOOTH"
);
}
);
width = 313;
}
);
unicode = 2044;
},
{
glyphname = franc;
lastChange = "2016-10-26 00:21:20 +0000";
layers = (
{
layerId = UUID0;
paths = (
{
closed = 1;
nodes = (
"68 223 LINE SMOOTH",
"51 223 OFFCURVE",
"38 209 OFFCURVE",
"38 192 CURVE SMOOTH",
"38 175 OFFCURVE",
"51 162 OFFCURVE",
"68 162 CURVE SMOOTH",
"160 162 LINE",
"160 30 LINE SMOOTH",
"160 13 OFFCURVE",
"173 0 OFFCURVE",
"190 0 CURVE SMOOTH",
"207 0 OFFCURVE",
"220 13 OFFCURVE",
"220 30 CURVE SMOOTH",
"220 162 LINE",
"312 162 LINE SMOOTH",
"329 162 OFFCURVE",
"342 175 OFFCURVE",
"342 192 CURVE SMOOTH",
"342 209 OFFCURVE",
"329 223 OFFCURVE",
"312 223 CURVE SMOOTH",
"220 223 LINE",
"220 365 LINE",
"554 365 LINE SMOOTH",
"571 365 OFFCURVE",
"585 378 OFFCURVE",
"585 395 CURVE SMOOTH",
"585 412 OFFCURVE",
"571 425 OFFCURVE",
"554 425 CURVE SMOOTH",
"220 425 LINE",
"220 729 LINE",
"676 729 LINE SMOOTH",
"693 729 OFFCURVE",
"707 743 OFFCURVE",
"707 760 CURVE SMOOTH",
"707 777 OFFCURVE",
"693 790 OFFCURVE",
"676 790 CURVE SMOOTH",
"190 790 LINE SMOOTH",
"173 790 OFFCURVE",
"160 777 OFFCURVE",
"160 760 CURVE SMOOTH",
"160 223 LINE"
);
}
);
width = 742;
}
);
unicode = 20A3;
},
{
glyphname = lira;
lastChange = "2016-10-26 00:21:20 +0000";
layers = (
{
layerId = UUID0;
paths = (
{
closed = 1;
nodes = (
"70 451 LINE SMOOTH",
"53 451 OFFCURVE",
"40 438 OFFCURVE",
"40 420 CURVE SMOOTH",
"40 403 OFFCURVE",
"53 390 OFFCURVE",
"70 390 CURVE SMOOTH",
"130 390 LINE",
"133 366 OFFCURVE",
"135 342 OFFCURVE",
"136 319 CURVE",
"70 319 LINE SMOOTH",
"53 319 OFFCURVE",
"40 306 OFFCURVE",
"40 289 CURVE SMOOTH",
"40 271 OFFCURVE",
"53 258 OFFCURVE",
"70 258 CURVE SMOOTH",
"135 258 LINE",
"130 177 OFFCURVE",
"112 105 OFFCURVE",
"83 43 CURVE",
"82 39 OFFCURVE",
"81 35 OFFCURVE",
"81 30 CURVE SMOOTH",
"81 13 OFFCURVE",
"94 0 OFFCURVE",
"111 0 CURVE SMOOTH",
"395 0 LINE SMOOTH",
"405 0 OFFCURVE",
"418 6 OFFCURVE",
"423 18 CURVE",
"462 97 LINE SMOOTH",
"464 101 OFFCURVE",
"465 106 OFFCURVE",
"465 111 CURVE SMOOTH",
"465 128 OFFCURVE",
"452 142 OFFCURVE",
"435 142 CURVE SMOOTH",
"423 142 OFFCURVE",
"414 137 OFFCURVE",
"408 126 CURVE",
"375 61 LINE",
"155 61 LINE",
"179 124 OFFCURVE",
"193 188 OFFCURVE",
"197 258 CURVE",
"354 258 LINE SMOOTH",
"371 258 OFFCURVE",
"384 271 OFFCURVE",
"384 289 CURVE SMOOTH",
"384 306 OFFCURVE",
"371 319 OFFCURVE",
"354 319 CURVE SMOOTH",
"198 319 LINE",
"196 343 OFFCURVE",
"194 366 OFFCURVE",
"191 390 CURVE",
"354 390 LINE SMOOTH",
"371 390 OFFCURVE",
"384 403 OFFCURVE",
"384 420 CURVE SMOOTH",
"384 438 OFFCURVE",
"371 451 OFFCURVE",
"354 451 CURVE SMOOTH",
"181 451 LINE",
"167 520 OFFCURVE",
"141 563 OFFCURVE",
"141 598 CURVE SMOOTH",
"141 669 OFFCURVE",
"202 729 OFFCURVE",
"273 729 CURVE SMOOTH",
"322 729 OFFCURVE",
"356 707 OFFCURVE",
"389 664 CURVE SMOOTH",
"394 657 OFFCURVE",
"401 654 OFFCURVE",
"410 654 CURVE SMOOTH",
"427 654 OFFCURVE",
"440 667 OFFCURVE",
"440 685 CURVE SMOOTH",
"440 702 OFFCURVE",
"424 719 OFFCURVE",
"409 734 CURVE SMOOTH",
"372 771 OFFCURVE",
"327 790 OFFCURVE",
"273 790 CURVE SMOOTH",
"166 790 OFFCURVE",
"81 703 OFFCURVE",
"81 598 CURVE SMOOTH",
"81 551 OFFCURVE",
"106 499 OFFCURVE",
"119 451 CURVE"
);
}
);
width = 508;
}
);
unicode = 20A4;
},
{
glyphname = peseta;
lastChange = "2016-10-26 00:21:20 +0000";
layers = (
{
layerId = UUID0;
paths = (
{
closed = 1;
nodes = (
"208 729 LINE SMOOTH",
"301 729 OFFCURVE",
"382 642 OFFCURVE",
"382 537 CURVE SMOOTH",
"382 433 OFFCURVE",
"304 344 OFFCURVE",
"208 344 CURVE SMOOTH",
"88 344 LINE",
"88 729 LINE"
);
},
{
closed = 1;
nodes = (
"573 453 OFFCURVE",
"663 486 OFFCURVE",
"729 486 CURVE SMOOTH",
"795 486 OFFCURVE",
"849 459 OFFCURVE",
"895 409 CURVE SMOOTH",
"900 403 OFFCURVE",
"905 401 OFFCURVE",
"914 401 CURVE SMOOTH",
"931 401 OFFCURVE",
"945 415 OFFCURVE",
"945 432 CURVE SMOOTH",
"945 447 OFFCURVE",
"932 458 OFFCURVE",
"923 467 CURVE SMOOTH",
"871 519 OFFCURVE",
"808 545 OFFCURVE",
"734 547 CURVE",
"461 547 LINE",
"461 760 LINE SMOOTH",
"461 777 OFFCURVE",
"448 790 OFFCURVE",
"431 790 CURVE SMOOTH",
"414 790 OFFCURVE",
"400 777 OFFCURVE",
"400 760 CURVE SMOOTH",
"400 678 LINE",
"337 752 OFFCURVE",
"273 790 OFFCURVE",
"208 790 CURVE SMOOTH",
"62 790 LINE SMOOTH",
"47 790 OFFCURVE",
"36 777 OFFCURVE",
"36 760 CURVE SMOOTH",
"36 30 LINE SMOOTH",
"36 13 OFFCURVE",
"47 0 OFFCURVE",
"62 0 CURVE SMOOTH",
"77 0 OFFCURVE",
"88 13 OFFCURVE",
"88 30 CURVE SMOOTH",
"88 284 LINE",
"208 284 LINE SMOOTH",
"273 284 OFFCURVE",
"337 321 OFFCURVE",
"400 396 CURVE",
"400 192 LINE SMOOTH",
"400 64 OFFCURVE",
"464 0 OFFCURVE",
"593 0 CURVE SMOOTH",
"729 0 LINE SMOOTH",
"832 0 OFFCURVE",
"947 59 OFFCURVE",
"947 152 CURVE SMOOTH",
"947 205 OFFCURVE",
"911 245 OFFCURVE",
"854 264 CURVE SMOOTH",
"604 346 LINE",
"584 354 OFFCURVE",
"575 368 OFFCURVE",
"573 388 CURVE"
);
},
{
closed = 1;
nodes = (
"593 61 LINE SMOOTH",
"505 61 OFFCURVE",
"461 104 OFFCURVE",
"461 192 CURVE SMOOTH",
"461 486 LINE",
"555 486 LINE",
"526 453 OFFCURVE",
"512 422 OFFCURVE",
"512 395 CURVE SMOOTH",
"512 346 OFFCURVE",
"542 302 OFFCURVE",
"605 283 CURVE",
"854 201 LINE",
"874 193 OFFCURVE",
"886 180 OFFCURVE",
"886 159 CURVE SMOOTH",
"886 93 OFFCURVE",
"795 61 OFFCURVE",
"729 61 CURVE SMOOTH"
);
}
);
width = 977;
}
);
unicode = 20A7;
},
{
glyphname = Euro;
lastChange = "2016-10-26 00:21:20 +0000";
layers = (
{
layerId = UUID0;
paths = (
{
closed = 1;
nodes = (
"117 506 LINE",
"173 650 OFFCURVE",
"296 729 OFFCURVE",
"433 729 CURVE SMOOTH",
"513 729 OFFCURVE",
"581 706 OFFCURVE",
"637 660 CURVE",
"646 652 OFFCURVE",
"654 648 OFFCURVE",
"662 648 CURVE SMOOTH",
"679 648 OFFCURVE",
"692 662 OFFCURVE",
"692 679 CURVE SMOOTH",
"692 687 OFFCURVE",
"689 695 OFFCURVE",
"683 700 CURVE SMOOTH",
"611 760 OFFCURVE",
"527 790 OFFCURVE",
"433 790 CURVE SMOOTH",
"324 790 OFFCURVE",
"231 751 OFFCURVE",
"153 674 CURVE SMOOTH",
"77 597 OFFCURVE",
"38 504 OFFCURVE",
"38 395 CURVE SMOOTH",
"38 179 OFFCURVE",
"217 0 OFFCURVE",
"433 0 CURVE SMOOTH",
"524 0 OFFCURVE",
"608 31 OFFCURVE",
"682 88 CURVE",
"687 93 OFFCURVE",
"689 100 OFFCURVE",
"689 108 CURVE SMOOTH",
"689 125 OFFCURVE",
"676 139 OFFCURVE",
"659 139 CURVE SMOOTH",
"652 139 OFFCURVE",
"646 137 OFFCURVE",
"642 134 CURVE",
"582 85 OFFCURVE",
"513 61 OFFCURVE",
"433 61 CURVE SMOOTH",
"297 61 OFFCURVE",
"174 139 OFFCURVE",
"117 284 CURVE",
"595 284 LINE SMOOTH",
"612 284 OFFCURVE",
"625 297 OFFCURVE",
"625 314 CURVE SMOOTH",
"625 331 OFFCURVE",
"612 344 OFFCURVE",
"595 344 CURVE SMOOTH",
"102 344 LINE",
"100 360 OFFCURVE",
"99 377 OFFCURVE",
"99 395 CURVE SMOOTH",
"99 411 OFFCURVE",
"100 428 OFFCURVE",
"102 446 CURVE",
"595 446 LINE SMOOTH",
"612 446 OFFCURVE",
"625 459 OFFCURVE",
"625 476 CURVE SMOOTH",
"625 493 OFFCURVE",
"612 506 OFFCURVE",
"595 506 CURVE SMOOTH"
);
}
);
width = 723;
}
);
unicode = 20AC;
},
{
glyphname = afii61352;
lastChange = "2016-10-26 00:21:20 +0000";
layers = (
{
layerId = UUID0;
paths = (
{
closed = 1;
nodes = (
"95 670 LINE",
"609 9 LINE",
"616 3 OFFCURVE",
"623 0 OFFCURVE",
"631 0 CURVE SMOOTH",
"648 0 OFFCURVE",
"662 13 OFFCURVE",
"662 30 CURVE SMOOTH",
"662 760 LINE SMOOTH",
"662 777 OFFCURVE",
"648 790 OFFCURVE",
"631 790 CURVE SMOOTH",
"614 790 OFFCURVE",
"601 777 OFFCURVE",
"601 760 CURVE SMOOTH",
"601 119 LINE",
"87 779 LINE SMOOTH",
"82 787 OFFCURVE",
"73 790 OFFCURVE",
"64 790 CURVE SMOOTH",
"47 790 OFFCURVE",
"34 777 OFFCURVE",
"34 760 CURVE SMOOTH",
"34 30 LINE SMOOTH",
"34 13 OFFCURVE",
"47 0 OFFCURVE",
"64 0 CURVE SMOOTH",
"82 0 OFFCURVE",
"95 13 OFFCURVE",
"95 30 CURVE SMOOTH"
);
},
{
closed = 1;
nodes = (
"1148 703 OFFCURVE",
"1063 790 OFFCURVE",
"956 790 CURVE SMOOTH",
"849 790 OFFCURVE",
"763 703 OFFCURVE",
"763 598 CURVE SMOOTH",
"763 491 OFFCURVE",
"850 405 OFFCURVE",
"956 405 CURVE SMOOTH",
"1061 405 OFFCURVE",
"1148 491 OFFCURVE",
"1148 598 CURVE SMOOTH"
);
},
{
closed = 1;
nodes = (
"1026 729 OFFCURVE",
"1087 669 OFFCURVE",
"1087 598 CURVE SMOOTH",
"1087 526 OFFCURVE",
"1027 466 OFFCURVE",
"956 466 CURVE SMOOTH",
"883 466 OFFCURVE",
"824 525 OFFCURVE",
"824 598 CURVE SMOOTH",
"824 669 OFFCURVE",
"884 729 OFFCURVE",
"956 729 CURVE SMOOTH"
);
},
{
closed = 1;
nodes = (
"1118 284 LINE SMOOTH",
"1135 284 OFFCURVE",
"1148 297 OFFCURVE",
"1148 314 CURVE SMOOTH",
"1148 331 OFFCURVE",
"1135 344 OFFCURVE",
"1118 344 CURVE SMOOTH",
"793 344 LINE SMOOTH",
"776 344 OFFCURVE",
"763 331 OFFCURVE",
"763 314 CURVE SMOOTH",
"763 297 OFFCURVE",
"776 284 OFFCURVE",
"793 284 CURVE SMOOTH"
);
}
);
width = 1172;
}
);
unicode = 2116;
},
{
glyphname = partialdiff;
lastChange = "2016-10-26 00:21:20 +0000";
layers = (
{
layerId = UUID0;
paths = (
{
closed = 1;
nodes = (
"429 486 OFFCURVE",
"525 391 OFFCURVE",
"525 273 CURVE SMOOTH",
"525 156 OFFCURVE",
"429 61 OFFCURVE",
"313 61 CURVE SMOOTH",
"196 61 OFFCURVE",
"100 157 OFFCURVE",
"100 273 CURVE SMOOTH",
"100 390 OFFCURVE",
"196 486 OFFCURVE",
"313 486 CURVE SMOOTH"
);
},
{
closed = 1;
nodes = (
"586 436 LINE SMOOTH",
"586 629 OFFCURVE",
"425 790 OFFCURVE",
"231 790 CURVE SMOOTH",
"179 790 OFFCURVE",
"95 782 OFFCURVE",
"95 743 CURVE SMOOTH",
"95 726 OFFCURVE",
"108 712 OFFCURVE",
"125 712 CURVE SMOOTH",
"129 712 OFFCURVE",
"134 713 OFFCURVE",
"138 715 CURVE SMOOTH",
"168 725 OFFCURVE",
"199 729 OFFCURVE",
"231 729 CURVE SMOOTH",
"376 729 OFFCURVE",
"504 629 OFFCURVE",
"526 447 CURVE",
"459 514 OFFCURVE",
"388 547 OFFCURVE",
"313 547 CURVE SMOOTH",
"163 547 OFFCURVE",
"39 423 OFFCURVE",
"39 273 CURVE SMOOTH",
"39 124 OFFCURVE",
"163 0 OFFCURVE",
"313 0 CURVE SMOOTH",
"462 0 OFFCURVE",
"586 124 OFFCURVE",
"586 273 CURVE SMOOTH"
);
}
);
width = 625;
}
);
unicode = 2202;
},
{
glyphname = increment;
lastChange = "2016-10-26 00:21:20 +0000";
layers = (
{
layerId = UUID0;
paths = (
{
closed = 1;
nodes = (
"636 0 LINE SMOOTH",
"653 0 OFFCURVE",
"666 13 OFFCURVE",
"666 30 CURVE SMOOTH",
"666 36 OFFCURVE",
"665 42 OFFCURVE",
"662 49 CURVE SMOOTH",
"380 771 LINE SMOOTH",
"375 784 OFFCURVE",
"363 790 OFFCURVE",
"352 790 CURVE SMOOTH",
"340 790 OFFCURVE",
"329 785 OFFCURVE",
"325 771 CURVE",
"42 49 LINE SMOOTH",
"40 42 OFFCURVE",
"38 37 OFFCURVE",
"38 30 CURVE SMOOTH",
"38 13 OFFCURVE",
"52 0 OFFCURVE",
"69 0 CURVE SMOOTH"
);
},
{
closed = 1;
nodes = (
"113 61 LINE",
"352 676 LINE",
"591 61 LINE"
);
}
);
width = 703;
}
);
unicode = 2206;
},
{
glyphname = product;
lastChange = "2016-10-26 00:21:20 +0000";
layers = (
{
layerId = UUID0;
paths = (
{
closed = 1;
nodes = (
"69 782 LINE SMOOTH",
"52 782 OFFCURVE",
"38 769 OFFCURVE",
"38 752 CURVE SMOOTH",
"38 -205 LINE SMOOTH",
"38 -222 OFFCURVE",
"52 -235 OFFCURVE",
"69 -235 CURVE SMOOTH",
"86 -235 OFFCURVE",
"99 -222 OFFCURVE",
"99 -205 CURVE SMOOTH",
"99 721 LINE",
"605 721 LINE",
"605 -205 LINE SMOOTH",
"605 -222 OFFCURVE",
"619 -235 OFFCURVE",
"636 -235 CURVE SMOOTH",
"653 -235 OFFCURVE",
"666 -222 OFFCURVE",
"666 -205 CURVE SMOOTH",
"666 752 LINE SMOOTH",
"666 769 OFFCURVE",
"653 782 OFFCURVE",
"636 782 CURVE SMOOTH"
);
}
);
width = 703;
}
);
unicode = 220F;
},
{
glyphname = summation;
lastChange = "2016-10-26 00:21:20 +0000";
layers = (
{
layerId = UUID0;
paths = (
{
closed = 1;
nodes = (
"133 -174 LINE",
"497 254 LINE SMOOTH",
"501 259 OFFCURVE",
"504 266 OFFCURVE",
"504 273 CURVE SMOOTH",
"504 281 OFFCURVE",
"501 288 OFFCURVE",
"497 293 CURVE SMOOTH",
"133 720 LINE",
"636 720 LINE SMOOTH",
"653 720 OFFCURVE",
"666 734 OFFCURVE",
"666 751 CURVE SMOOTH",
"666 768 OFFCURVE",
"653 781 OFFCURVE",
"636 781 CURVE SMOOTH",
"69 781 LINE SMOOTH",
"52 781 OFFCURVE",
"38 768 OFFCURVE",
"38 751 CURVE SMOOTH",
"38 744 OFFCURVE",
"41 737 OFFCURVE",
"45 731 CURVE SMOOTH",
"434 273 LINE",
"45 -185 LINE SMOOTH",
"41 -190 OFFCURVE",
"38 -199 OFFCURVE",
"38 -205 CURVE SMOOTH",
"38 -222 OFFCURVE",
"50 -235 OFFCURVE",
"75 -235 CURVE SMOOTH",
"636 -235 LINE SMOOTH",
"653 -235 OFFCURVE",
"666 -222 OFFCURVE",
"666 -205 CURVE SMOOTH",
"666 -188 OFFCURVE",
"653 -174 OFFCURVE",
"636 -174 CURVE SMOOTH"
);
}
);
width = 703;
}
);
unicode = 2211;
},
{
glyphname = minus;
lastChange = "2016-10-26 00:21:20 +0000";
layers = (
{
layerId = UUID0;
paths = (
{
closed = 1;
nodes = (
"475 324 LINE SMOOTH",
"492 324 OFFCURVE",
"505 337 OFFCURVE",
"505 354 CURVE SMOOTH",
"505 372 OFFCURVE",
"492 385 OFFCURVE",
"475 385 CURVE SMOOTH",
"70 385 LINE SMOOTH",
"53 385 OFFCURVE",
"40 372 OFFCURVE",
"40 354 CURVE SMOOTH",
"40 337 OFFCURVE",
"53 324 OFFCURVE",
"70 324 CURVE SMOOTH"
);
}
);
width = 547;
}
);
unicode = 2212;
},
{
glyphname = radical;
lastChange = "2016-10-26 00:21:20 +0000";
layers = (
{
layerId = UUID0;
paths = (
{
closed = 1;
nodes = (
"635 871 LINE SMOOTH",
"623 871 OFFCURVE",
"614 867 OFFCURVE",
"607 852 CURVE",
"230 99 LINE",
"96 366 LINE",
"89 379 OFFCURVE",
"83 385 OFFCURVE",
"68 385 CURVE SMOOTH",
"51 385 OFFCURVE",
"38 372 OFFCURVE",
"38 354 CURVE SMOOTH",
"38 349 OFFCURVE",
"39 344 OFFCURVE",
"41 340 CURVE",
"204 16 LINE SMOOTH",
"208 7 OFFCURVE",
"217 0 OFFCURVE",
"230 0 CURVE SMOOTH",
"241 0 OFFCURVE",
"250 5 OFFCURVE",
"257 17 CURVE",
"654 810 LINE",
"716 810 LINE SMOOTH",
"733 810 OFFCURVE",
"747 823 OFFCURVE",
"747 840 CURVE SMOOTH",
"747 857 OFFCURVE",
"733 871 OFFCURVE",
"716 871 CURVE SMOOTH"
);
}
);
width = 781;
}
);
unicode = 221A;
},
{
glyphname = infinity;
lastChange = "2016-10-26 00:21:20 +0000";
layers = (
{
layerId = UUID0;
paths = (
{
closed = 1;
nodes = (
"301 486 OFFCURVE",
"362 425 OFFCURVE",
"362 354 CURVE SMOOTH",
"362 283 OFFCURVE",
"302 223 OFFCURVE",
"230 223 CURVE SMOOTH",
"158 223 OFFCURVE",
"98 282 OFFCURVE",
"98 354 CURVE SMOOTH",
"98 426 OFFCURVE",
"158 486 OFFCURVE",
"230 486 CURVE SMOOTH"
);
},
{
closed = 1;
nodes = (
"626 486 OFFCURVE",
"686 425 OFFCURVE",
"686 354 CURVE SMOOTH",
"686 283 OFFCURVE",
"626 223 OFFCURVE",
"554 223 CURVE SMOOTH",
"482 223 OFFCURVE",
"422 282 OFFCURVE",
"422 354 CURVE SMOOTH",
"422 426 OFFCURVE",
"482 486 OFFCURVE",
"554 486 CURVE SMOOTH"
);
},
{
closed = 1;
nodes = (
"375 228 OFFCURVE",
"384 238 OFFCURVE",
"393 249 CURVE",
"435 191 OFFCURVE",
"487 162 OFFCURVE",
"554 162 CURVE SMOOTH",
"659 162 OFFCURVE",
"747 248 OFFCURVE",
"747 354 CURVE SMOOTH",
"747 461 OFFCURVE",
"659 547 OFFCURVE",
"554 547 CURVE SMOOTH",
"490 547 OFFCURVE",
"427 517 OFFCURVE",
"392 459 CURVE",
"356 517 OFFCURVE",
"293 547 OFFCURVE",
"230 547 CURVE SMOOTH",
"124 547 OFFCURVE",
"38 460 OFFCURVE",
"38 354 CURVE SMOOTH",
"38 249 OFFCURVE",
"124 162 OFFCURVE",
"230 162 CURVE SMOOTH",
"283 162 OFFCURVE",
"329 181 OFFCURVE",
"366 218 CURVE SMOOTH"
);
}
);
width = 781;
}
);
unicode = 221E;
},
{
glyphname = integral;
lastChange = "2016-10-26 00:21:20 +0000";
layers = (
{
layerId = UUID0;
paths = (
{
closed = 1;
nodes = (
"489 775 OFFCURVE",
"503 788 OFFCURVE",
"503 809 CURVE SMOOTH",
"503 853 OFFCURVE",
"455 904 OFFCURVE",
"392 906 CURVE",
"335 906 OFFCURVE",
"290 861 OFFCURVE",
"282 808 CURVE",
"202 -5 LINE",
"198 -33 OFFCURVE",
"180 -50 OFFCURVE",
"149 -50 CURVE SMOOTH",
"124 -50 OFFCURVE",
"104 -30 OFFCURVE",
"101 -5 CURVE",
"100 9 OFFCURVE",
"86 20 OFFCURVE",
"71 20 CURVE SMOOTH",
"54 20 OFFCURVE",
"41 8 OFFCURVE",
"41 -14 CURVE SMOOTH",
"41 -67 OFFCURVE",
"103 -111 OFFCURVE",
"152 -111 CURVE SMOOTH",
"204 -111 OFFCURVE",
"253 -70 OFFCURVE",
"262 -12 CURVE",
"342 801 LINE",
"347 831 OFFCURVE",
"368 845 OFFCURVE",
"395 845 CURVE SMOOTH",
"415 845 OFFCURVE",
"435 833 OFFCURVE",
"443 805 CURVE",
"447 785 OFFCURVE",
"457 775 OFFCURVE",
"473 775 CURVE SMOOTH"
);
}
);
width = 547;
}
);
unicode = 222B;
},
{
glyphname = uniF001;
lastChange = "2016-10-26 00:21:20 +0000";
layers = (
{
layerId = UUID0;
paths = (
{
closed = 1;
nodes = (
"445 30 LINE SMOOTH",
"445 13 OFFCURVE",
"458 0 OFFCURVE",
"475 0 CURVE SMOOTH",
"492 0 OFFCURVE",
"505 13 OFFCURVE",
"505 30 CURVE SMOOTH",
"505 517 LINE SMOOTH",
"505 534 OFFCURVE",
"492 547 OFFCURVE",
"475 547 CURVE SMOOTH",
"458 547 OFFCURVE",
"445 534 OFFCURVE",
"445 517 CURVE SMOOTH"
);
},
{
closed = 1;
nodes = (
"401 729 OFFCURVE",
"435 712 OFFCURVE",
"435 679 CURVE SMOOTH",
"435 656 OFFCURVE",
"452 638 OFFCURVE",
"475 638 CURVE SMOOTH",
"498 638 OFFCURVE",
"516 656 OFFCURVE",
"516 679 CURVE SMOOTH",
"516 753 OFFCURVE",
"455 790 OFFCURVE",
"333 790 CURVE SMOOTH",
"191 790 OFFCURVE",
"121 712 OFFCURVE",
"121 557 CURVE SMOOTH",
"121 517 LINE",
"70 517 LINE SMOOTH",
"53 517 OFFCURVE",
"40 503 OFFCURVE",
"40 486 CURVE SMOOTH",
"40 469 OFFCURVE",
"53 456 OFFCURVE",
"70 456 CURVE SMOOTH",
"121 456 LINE",
"121 30 LINE SMOOTH",
"121 13 OFFCURVE",
"134 0 OFFCURVE",
"151 0 CURVE SMOOTH",
"168 0 OFFCURVE",
"182 13 OFFCURVE",
"182 30 CURVE SMOOTH",
"182 456 LINE",
"313 456 LINE SMOOTH",
"331 456 OFFCURVE",
"344 469 OFFCURVE",
"344 486 CURVE SMOOTH",
"344 503 OFFCURVE",
"331 517 OFFCURVE",
"313 517 CURVE SMOOTH",
"182 517 LINE",
"182 557 LINE SMOOTH",
"182 672 OFFCURVE",
"232 729 OFFCURVE",
"333 729 CURVE SMOOTH"
);
}
);
width = 547;
}
);
unicode = F001;
},
{
glyphname = uniF002;
lastChange = "2016-10-26 00:21:20 +0000";
layers = (
{
layerId = UUID0;
paths = (
{
closed = 1;
nodes = (
"404 30 LINE SMOOTH",
"404 13 OFFCURVE",
"417 0 OFFCURVE",
"434 0 CURVE SMOOTH",
"515 0 LINE SMOOTH",
"532 0 OFFCURVE",
"546 13 OFFCURVE",
"546 30 CURVE SMOOTH",
"546 47 OFFCURVE",
"532 61 OFFCURVE",
"515 61 CURVE SMOOTH",
"465 61 LINE",
"465 679 LINE SMOOTH",
"465 753 OFFCURVE",
"428 790 OFFCURVE",
"354 790 CURVE SMOOTH",
"198 790 OFFCURVE",
"121 712 OFFCURVE",
"121 557 CURVE SMOOTH",
"121 517 LINE",
"70 517 LINE SMOOTH",
"53 517 OFFCURVE",
"40 503 OFFCURVE",
"40 486 CURVE SMOOTH",
"40 469 OFFCURVE",
"53 456 OFFCURVE",
"70 456 CURVE SMOOTH",
"121 456 LINE",
"121 30 LINE SMOOTH",
"121 13 OFFCURVE",
"134 0 OFFCURVE",
"151 0 CURVE SMOOTH",
"168 0 OFFCURVE",
"181 13 OFFCURVE",
"181 30 CURVE SMOOTH",
"181 456 LINE",
"313 456 LINE SMOOTH",
"331 456 OFFCURVE",
"344 469 OFFCURVE",
"344 486 CURVE SMOOTH",
"344 503 OFFCURVE",
"331 517 OFFCURVE",
"313 517 CURVE SMOOTH",
"181 517 LINE",
"181 557 LINE SMOOTH",
"181 672 OFFCURVE",
"239 729 OFFCURVE",
"354 729 CURVE SMOOTH",
"387 729 OFFCURVE",
"404 712 OFFCURVE",
"404 679 CURVE SMOOTH"
);
}
);
width = 586;
}
);
unicode = F002;
},
{
glyphname = dslash;
lastChange = "2016-10-26 00:21:20 +0000";
layers = (
{
layerId = UUID0;
paths = (
{
closed = 1;
nodes = (
"524 157 OFFCURVE",
"428 61 OFFCURVE",
"312 61 CURVE SMOOTH",
"195 61 OFFCURVE",
"99 156 OFFCURVE",
"99 273 CURVE SMOOTH",
"99 391 OFFCURVE",
"195 486 OFFCURVE",
"312 486 CURVE SMOOTH",
"428 486 OFFCURVE",
"524 390 OFFCURVE",
"524 273 CURVE SMOOTH"
);
},
{
closed = 1;
nodes = (
"352 709 LINE SMOOTH",
"335 709 OFFCURVE",
"322 696 OFFCURVE",
"322 679 CURVE SMOOTH",
"322 662 OFFCURVE",
"335 648 OFFCURVE",
"352 648 CURVE SMOOTH",
"524 648 LINE",
"524 448 LINE",
"505 467 LINE SMOOTH",
"452 520 OFFCURVE",
"387 547 OFFCURVE",
"312 547 CURVE SMOOTH",
"162 547 OFFCURVE",
"38 423 OFFCURVE",
"38 273 CURVE SMOOTH",
"38 124 OFFCURVE",
"162 0 OFFCURVE",
"312 0 CURVE SMOOTH",
"461 0 OFFCURVE",
"585 122 OFFCURVE",
"585 273 CURVE SMOOTH",
"585 648 LINE",
"636 648 LINE SMOOTH",
"653 648 OFFCURVE",
"666 662 OFFCURVE",
"666 679 CURVE SMOOTH",
"666 696 OFFCURVE",
"653 709 OFFCURVE",
"636 709 CURVE SMOOTH",
"585 709 LINE",
"585 761 LINE SMOOTH",
"585 778 OFFCURVE",
"572 791 OFFCURVE",
"555 791 CURVE SMOOTH",
"538 791 OFFCURVE",
"524 778 OFFCURVE",
"524 761 CURVE SMOOTH",
"524 709 LINE"
);
}
);
width = 703;
}
);
unicode = 0111;
},
{
glyphname = Hbar;
lastChange = "2016-10-26 00:21:20 +0000";
layers = (
{
layerId = UUID0;
paths = (
{
closed = 1;
nodes = (
"69 641 LINE SMOOTH",
"52 641 OFFCURVE",
"39 628 OFFCURVE",
"39 611 CURVE SMOOTH",
"39 594 OFFCURVE",
"52 581 OFFCURVE",
"69 581 CURVE SMOOTH",
"119 581 LINE",
"119 30 LINE SMOOTH",
"119 13 OFFCURVE",
"132 0 OFFCURVE",
"149 0 CURVE SMOOTH",
"167 0 OFFCURVE",
"179 13 OFFCURVE",
"179 30 CURVE SMOOTH",
"179 360 LINE",
"600 360 LINE",
"600 30 LINE SMOOTH",
"600 13 OFFCURVE",
"613 0 OFFCURVE",
"630 0 CURVE SMOOTH",
"646 0 OFFCURVE",
"660 13 OFFCURVE",
"660 30 CURVE SMOOTH",
"660 581 LINE",
"710 581 LINE SMOOTH",
"728 581 OFFCURVE",
"740 594 OFFCURVE",
"740 611 CURVE SMOOTH",
"740 628 OFFCURVE",
"728 641 OFFCURVE",
"710 641 CURVE SMOOTH",
"660 641 LINE",
"660 751 LINE SMOOTH",
"660 768 OFFCURVE",
"646 781 OFFCURVE",
"630 781 CURVE SMOOTH",
"613 781 OFFCURVE",
"600 768 OFFCURVE",
"600 751 CURVE SMOOTH",
"600 641 LINE",
"179 641 LINE",
"179 751 LINE SMOOTH",
"179 768 OFFCURVE",
"167 781 OFFCURVE",
"149 781 CURVE SMOOTH",
"132 781 OFFCURVE",
"119 768 OFFCURVE",
"119 751 CURVE SMOOTH",
"119 641 LINE"
);
},
{
closed = 1;
nodes = (
"600 581 LINE",
"600 421 LINE",
"179 421 LINE",
"179 581 LINE"
);
}
);
width = 781;
}
);
unicode = 0126;
},
{
glyphname = hbar;
lastChange = "2016-10-26 00:21:20 +0000";
layers = (
{
layerId = UUID0;
paths = (
{
closed = 1;
nodes = (
"49 701 LINE SMOOTH",
"32 701 OFFCURVE",
"19 688 OFFCURVE",
"19 671 CURVE SMOOTH",
"19 654 OFFCURVE",
"32 640 OFFCURVE",
"49 640 CURVE SMOOTH",
"100 640 LINE",
"100 30 LINE SMOOTH",
"100 13 OFFCURVE",
"113 0 OFFCURVE",
"130 0 CURVE SMOOTH",
"147 0 OFFCURVE",
"161 13 OFFCURVE",
"161 30 CURVE SMOOTH",
"161 293 LINE SMOOTH",
"161 400 OFFCURVE",
"250 486 OFFCURVE",
"353 486 CURVE SMOOTH",
"456 486 OFFCURVE",
"545 401 OFFCURVE",
"545 293 CURVE SMOOTH",
"545 30 LINE SMOOTH",
"545 13 OFFCURVE",
"559 0 OFFCURVE",
"576 0 CURVE SMOOTH",
"593 0 OFFCURVE",
"606 13 OFFCURVE",
"606 30 CURVE SMOOTH",
"606 293 LINE SMOOTH",
"606 433 OFFCURVE",
"491 547 OFFCURVE",
"353 547 CURVE SMOOTH",
"285 547 OFFCURVE",
"221 518 OFFCURVE",
"161 460 CURVE",
"161 640 LINE",
"333 640 LINE SMOOTH",
"350 640 OFFCURVE",
"363 654 OFFCURVE",
"363 671 CURVE SMOOTH",
"363 688 OFFCURVE",
"350 701 OFFCURVE",
"333 701 CURVE SMOOTH",
"161 701 LINE",
"161 752 LINE SMOOTH",
"161 769 OFFCURVE",
"147 782 OFFCURVE",
"130 782 CURVE SMOOTH",
"113 782 OFFCURVE",
"100 769 OFFCURVE",
"100 752 CURVE SMOOTH",
"100 701 LINE"
);
}
);
width = 645;
}
);
unicode = 0127;
},
{
glyphname = jcircumflex;
lastChange = "2016-10-26 00:21:20 +0000";
layers = (
{
layerId = UUID0;
paths = (
{
closed = 1;
nodes = (
"203 -1 LINE SMOOTH",
"203 -95 OFFCURVE",
"125 -173 OFFCURVE",
"31 -173 CURVE SMOOTH",
"14 -173 OFFCURVE",
"0 -187 OFFCURVE",
"0 -204 CURVE SMOOTH",
"0 -221 OFFCURVE",
"14 -234 OFFCURVE",
"31 -234 CURVE SMOOTH",
"159 -234 OFFCURVE",
"264 -129 OFFCURVE",
"264 -1 CURVE SMOOTH",
"264 517 LINE SMOOTH",
"264 534 OFFCURVE",
"250 547 OFFCURVE",
"233 547 CURVE SMOOTH",
"216 547 OFFCURVE",
"203 534 OFFCURVE",
"203 517 CURVE SMOOTH"
);
},
{
closed = 1;
nodes = (
"250 746 LINE",
"250 746 LINE",
"245 748 OFFCURVE",
"239 750 OFFCURVE",
"234 750 CURVE SMOOTH",
"229 750 OFFCURVE",
"224 748 OFFCURVE",
"218 746 CURVE",
"219 746 LINE",
"178 718 OFFCURVE",
"138 692 OFFCURVE",
"97 665 CURVE",
"91 660 LINE SMOOTH",
"85 654 OFFCURVE",
"82 646 OFFCURVE",
"82 638 CURVE SMOOTH",
"82 619 OFFCURVE",
"97 607 OFFCURVE",
"115 607 CURVE SMOOTH",
"122 607 OFFCURVE",
"127 611 OFFCURVE",
"132 614 CURVE SMOOTH",
"234 682 LINE",
"336 614 LINE SMOOTH",
"341 610 OFFCURVE",
"347 607 OFFCURVE",
"355 607 CURVE SMOOTH",
"373 607 OFFCURVE",
"386 621 OFFCURVE",
"386 638 CURVE SMOOTH",
"386 648 OFFCURVE",
"380 659 OFFCURVE",
"370 665 CURVE SMOOTH"
);
}
);
width = 371;
}
);
unicode = 0135;
},
{
glyphname = kgreenlandic;
lastChange = "2016-10-26 00:21:20 +0000";
layers = (
{
layerId = UUID0;
paths = (
{
closed = 1;
nodes = (
"101 516 LINE SMOOTH",
"101 533 OFFCURVE",
"87 546 OFFCURVE",
"70 546 CURVE SMOOTH",
"53 546 OFFCURVE",
"40 533 OFFCURVE",
"40 516 CURVE SMOOTH",
"40 30 LINE SMOOTH",
"40 13 OFFCURVE",
"53 0 OFFCURVE",
"70 0 CURVE SMOOTH",
"87 0 OFFCURVE",
"101 13 OFFCURVE",
"101 30 CURVE SMOOTH",
"101 237 LINE",
"196 299 LINE",
"453 10 LINE SMOOTH",
"459 3 OFFCURVE",
"467 0 OFFCURVE",
"475 0 CURVE SMOOTH",
"492 0 OFFCURVE",
"505 13 OFFCURVE",
"505 30 CURVE SMOOTH",
"505 39 OFFCURVE",
"502 46 OFFCURVE",
"497 52 CURVE SMOOTH",
"249 332 LINE",
"496 494 LINE SMOOTH",
"502 498 OFFCURVE",
"505 506 OFFCURVE",
"505 517 CURVE SMOOTH",
"505 534 OFFCURVE",
"492 547 OFFCURVE",
"475 547 CURVE SMOOTH",
"469 547 OFFCURVE",
"463 545 OFFCURVE",
"459 542 CURVE SMOOTH",
"101 310 LINE"
);
}
);
width = 547;
}
);
unicode = 0138;
},
{
glyphname = Lslash;
lastChange = "2016-10-26 00:21:20 +0000";
layers = (
{
layerId = UUID0;
paths = (
{
closed = 1;
nodes = (
"21 307 LINE SMOOTH",
"16 301 OFFCURVE",
"13 294 OFFCURVE",
"13 286 CURVE SMOOTH",
"13 268 OFFCURVE",
"27 255 OFFCURVE",
"42 255 CURVE SMOOTH",
"51 255 OFFCURVE",
"58 258 OFFCURVE",
"63 264 CURVE",
"120 320 LINE",
"120 30 LINE SMOOTH",
"120 13 OFFCURVE",
"133 0 OFFCURVE",
"150 0 CURVE SMOOTH",
"591 0 LINE SMOOTH",
"608 0 OFFCURVE",
"621 13 OFFCURVE",
"621 30 CURVE SMOOTH",
"621 46 OFFCURVE",
"608 60 OFFCURVE",
"591 60 CURVE SMOOTH",
"180 60 LINE",
"180 379 LINE",
"292 490 LINE SMOOTH",
"298 496 OFFCURVE",
"301 503 OFFCURVE",
"301 511 CURVE SMOOTH",
"301 527 OFFCURVE",
"287 542 OFFCURVE",
"271 542 CURVE SMOOTH",
"262 542 OFFCURVE",
"255 538 OFFCURVE",
"250 532 CURVE SMOOTH",
"180 464 LINE",
"180 751 LINE SMOOTH",
"180 768 OFFCURVE",
"167 781 OFFCURVE",
"150 781 CURVE SMOOTH",
"133 781 OFFCURVE",
"120 768 OFFCURVE",
"120 751 CURVE SMOOTH",
"120 405 LINE"
);
}
);
width = 664;
}
);
unicode = 0141;
},
{
glyphname = lslash;
lastChange = "2016-10-26 00:21:20 +0000";
layers = (
{
layerId = UUID0;
paths = (
{
closed = 1;
nodes = (
"22 310 LINE SMOOTH",
"17 305 OFFCURVE",
"14 296 OFFCURVE",
"14 289 CURVE SMOOTH",
"14 269 OFFCURVE",
"30 258 OFFCURVE",
"46 258 CURVE SMOOTH",
"53 258 OFFCURVE",
"59 261 OFFCURVE",
"65 267 CURVE SMOOTH",
"123 324 LINE",
"123 30 LINE SMOOTH",
"123 13 OFFCURVE",
"136 0 OFFCURVE",
"153 0 CURVE SMOOTH",
"234 0 LINE SMOOTH",
"251 0 OFFCURVE",
"265 13 OFFCURVE",
"265 30 CURVE SMOOTH",
"265 47 OFFCURVE",
"251 61 OFFCURVE",
"234 61 CURVE SMOOTH",
"184 61 LINE",
"184 383 LINE",
"296 495 LINE SMOOTH",
"302 501 OFFCURVE",
"305 509 OFFCURVE",
"305 517 CURVE SMOOTH",
"305 533 OFFCURVE",
"291 547 OFFCURVE",
"275 547 CURVE SMOOTH",
"266 547 OFFCURVE",
"259 544 OFFCURVE",
"253 538 CURVE",
"184 469 LINE",
"184 760 LINE SMOOTH",
"184 777 OFFCURVE",
"170 790 OFFCURVE",
"153 790 CURVE SMOOTH",
"136 790 OFFCURVE",
"123 777 OFFCURVE",
"123 760 CURVE SMOOTH",
"123 409 LINE"
);
}
);
width = 352;
}
);
unicode = 0142;
},
{
glyphname = Eng;
lastChange = "2016-10-26 00:21:20 +0000";
layers = (
{
layerId = UUID0;
paths = (
{
closed = 1;
nodes = (
"100 471 LINE SMOOTH",
"100 608 OFFCURVE",
"214 721 OFFCURVE",
"350 721 CURVE SMOOTH",
"488 721 OFFCURVE",
"601 607 OFFCURVE",
"601 471 CURVE SMOOTH",
"601 230 LINE SMOOTH",
"601 138 OFFCURVE",
"524 60 OFFCURVE",
"430 60 CURVE SMOOTH",
"383 60 OFFCURVE",
"344 77 OFFCURVE",
"310 111 CURVE SMOOTH",
"305 116 OFFCURVE",
"296 119 OFFCURVE",
"289 119 CURVE SMOOTH",
"271 119 OFFCURVE",
"259 105 OFFCURVE",
"259 89 CURVE SMOOTH",
"259 81 OFFCURVE",
"262 74 OFFCURVE",
"268 68 CURVE SMOOTH",
"312 22 OFFCURVE",
"366 0 OFFCURVE",
"430 0 CURVE SMOOTH",
"559 0 OFFCURVE",
"661 104 OFFCURVE",
"661 230 CURVE SMOOTH",
"661 471 LINE SMOOTH",
"661 640 OFFCURVE",
"520 781 OFFCURVE",
"350 781 CURVE SMOOTH",
"246 781 OFFCURVE",
"173 738 OFFCURVE",
"100 657 CURVE",
"100 751 LINE SMOOTH",
"100 768 OFFCURVE",
"87 781 OFFCURVE",
"70 781 CURVE SMOOTH",
"53 781 OFFCURVE",
"40 768 OFFCURVE",
"40 751 CURVE SMOOTH",
"40 30 LINE SMOOTH",
"40 13 OFFCURVE",
"53 0 OFFCURVE",
"70 0 CURVE SMOOTH",
"87 0 OFFCURVE",
"100 13 OFFCURVE",
"100 30 CURVE SMOOTH"
);
}
);
width = 703;
}
);
unicode = 014A;
},
{
glyphname = eng;
lastChange = "2016-10-26 00:21:20 +0000";
layers = (
{
layerId = UUID0;
paths = (
{
closed = 1;
nodes = (
"485 -83 LINE SMOOTH",
"485 -132 OFFCURVE",
"443 -173 OFFCURVE",
"394 -173 CURVE SMOOTH",
"374 -173 OFFCURVE",
"357 -163 OFFCURVE",
"342 -163 CURVE SMOOTH",
"325 -163 OFFCURVE",
"312 -175 OFFCURVE",
"312 -192 CURVE SMOOTH",
"312 -226 OFFCURVE",
"360 -234 OFFCURVE",
"394 -234 CURVE SMOOTH",
"478 -234 OFFCURVE",
"546 -165 OFFCURVE",
"546 -83 CURVE SMOOTH",
"546 293 LINE SMOOTH",
"546 431 OFFCURVE",
"432 547 OFFCURVE",
"292 547 CURVE SMOOTH",
"224 547 OFFCURVE",
"160 518 OFFCURVE",
"100 460 CURVE",
"100 517 LINE SMOOTH",
"100 534 OFFCURVE",
"87 547 OFFCURVE",
"70 547 CURVE SMOOTH",
"53 547 OFFCURVE",
"40 534 OFFCURVE",
"40 517 CURVE SMOOTH",
"40 30 LINE SMOOTH",
"40 13 OFFCURVE",
"53 0 OFFCURVE",
"70 0 CURVE SMOOTH",
"87 0 OFFCURVE",
"100 13 OFFCURVE",
"100 30 CURVE SMOOTH",
"100 293 LINE SMOOTH",
"100 400 OFFCURVE",
"189 486 OFFCURVE",
"292 486 CURVE SMOOTH",
"395 486 OFFCURVE",
"485 401 OFFCURVE",
"485 293 CURVE SMOOTH"
);
}
);
width = 586;
}
);
unicode = 014B;
},
{
glyphname = OE;
lastChange = "2016-10-26 00:21:20 +0000";
layers = (
{
layerId = UUID0;
paths = (
{
closed = 1;
nodes = (
"478 721 LINE",
"478 60 LINE",
"428 60 LINE SMOOTH",
"247 60 OFFCURVE",
"98 208 OFFCURVE",
"98 391 CURVE SMOOTH",
"98 573 OFFCURVE",
"249 721 OFFCURVE",
"428 721 CURVE SMOOTH"
);
},
{
closed = 1;
nodes = (
"989 0 LINE SMOOTH",
"1006 0 OFFCURVE",
"1019 13 OFFCURVE",
"1019 30 CURVE SMOOTH",
"1019 46 OFFCURVE",
"1006 60 OFFCURVE",
"989 60 CURVE SMOOTH",
"538 60 LINE",
"538 360 LINE",
"869 360 LINE SMOOTH",
"886 360 OFFCURVE",
"899 374 OFFCURVE",
"899 391 CURVE SMOOTH",
"899 408 OFFCURVE",
"886 421 OFFCURVE",
"869 421 CURVE SMOOTH",
"538 421 LINE",
"538 721 LINE",
"989 721 LINE SMOOTH",
"1006 721 OFFCURVE",
"1020 735 OFFCURVE",
"1020 751 CURVE SMOOTH",
"1020 768 OFFCURVE",
"1006 781 OFFCURVE",
"989 781 CURVE SMOOTH",
"428 781 LINE SMOOTH",
"320 781 OFFCURVE",
"228 743 OFFCURVE",
"152 667 CURVE SMOOTH",
"76 590 OFFCURVE",
"38 499 OFFCURVE",
"38 391 CURVE SMOOTH",
"38 179 OFFCURVE",
"214 0 OFFCURVE",
"428 0 CURVE SMOOTH"
);
}
);
width = 1055;
}
);
unicode = 0152;
},
{
glyphname = oe;
lastChange = "2016-10-26 00:21:20 +0000";
layers = (
{
layerId = UUID0;
paths = (
{
closed = 1;
nodes = (
"424 486 OFFCURVE",
"521 390 OFFCURVE",
"521 273 CURVE SMOOTH",
"521 157 OFFCURVE",
"424 61 OFFCURVE",
"308 61 CURVE SMOOTH",
"192 61 OFFCURVE",
"95 157 OFFCURVE",
"95 273 CURVE SMOOTH",
"95 390 OFFCURVE",
"192 486 OFFCURVE",
"308 486 CURVE SMOOTH"
);
},
{
closed = 1;
nodes = (
"583 304 LINE",
"605 417 OFFCURVE",
"693 486 OFFCURVE",
"794 486 CURVE SMOOTH",
"892 486 OFFCURVE",
"982 421 OFFCURVE",
"1006 304 CURVE"
);
},
{
closed = 1;
nodes = (
"521 100 OFFCURVE",
"539 122 OFFCURVE",
"553 146 CURVE",
"604 49 OFFCURVE",
"694 0 OFFCURVE",
"794 0 CURVE SMOOTH",
"862 0 OFFCURVE",
"921 22 OFFCURVE",
"971 65 CURVE SMOOTH",
"978 71 OFFCURVE",
"980 79 OFFCURVE",
"980 87 CURVE SMOOTH",
"980 104 OFFCURVE",
"967 118 OFFCURVE",
"950 118 CURVE SMOOTH",
"943 118 OFFCURVE",
"936 115 OFFCURVE",
"931 111 CURVE SMOOTH",
"893 78 OFFCURVE",
"847 61 OFFCURVE",
"794 61 CURVE SMOOTH",
"695 61 OFFCURVE",
"605 127 OFFCURVE",
"583 243 CURVE",
"1037 243 LINE SMOOTH",
"1054 243 OFFCURVE",
"1068 256 OFFCURVE",
"1068 273 CURVE SMOOTH",
"1068 423 OFFCURVE",
"944 547 OFFCURVE",
"794 547 CURVE SMOOTH",
"694 547 OFFCURVE",
"608 500 OFFCURVE",
"552 400 CURVE",
"488 502 OFFCURVE",
"411 547 OFFCURVE",
"308 547 CURVE SMOOTH",
"158 547 OFFCURVE",
"35 423 OFFCURVE",
"35 273 CURVE SMOOTH",
"35 124 OFFCURVE",
"158 0 OFFCURVE",
"308 0 CURVE SMOOTH",
"384 0 OFFCURVE",
"448 27 OFFCURVE",
"501 80 CURVE SMOOTH"
);
}
);
width = 1094;
}
);
unicode = 0153;
},
{
glyphname = Tbar;
lastChange = "2016-10-26 00:21:20 +0000";
layers = (
{
layerId = UUID0;
paths = (
{
closed = 1;
nodes = (
"130 380 LINE SMOOTH",
"114 380 OFFCURVE",
"100 368 OFFCURVE",
"100 351 CURVE SMOOTH",
"100 333 OFFCURVE",
"114 320 OFFCURVE",
"130 320 CURVE SMOOTH",
"300 320 LINE",
"300 30 LINE SMOOTH",
"300 13 OFFCURVE",
"313 0 OFFCURVE",
"331 0 CURVE SMOOTH",
"348 0 OFFCURVE",
"360 13 OFFCURVE",
"360 30 CURVE SMOOTH",
"360 320 LINE",
"531 320 LINE SMOOTH",
"548 320 OFFCURVE",
"561 333 OFFCURVE",
"561 351 CURVE SMOOTH",
"561 368 OFFCURVE",
"548 380 OFFCURVE",
"531 380 CURVE SMOOTH",
"360 380 LINE",
"360 721 LINE",
"591 721 LINE SMOOTH",
"608 721 OFFCURVE",
"621 735 OFFCURVE",
"621 751 CURVE SMOOTH",
"621 768 OFFCURVE",
"608 781 OFFCURVE",
"591 781 CURVE SMOOTH",
"70 781 LINE SMOOTH",
"54 781 OFFCURVE",
"40 768 OFFCURVE",
"40 751 CURVE SMOOTH",
"40 735 OFFCURVE",
"54 721 OFFCURVE",
"70 721 CURVE SMOOTH",
"300 721 LINE",
"300 380 LINE"
);
}
);
width = 664;
}
);
unicode = 0166;
},
{
glyphname = tbar;
lastChange = "2016-10-26 00:21:20 +0000";
layers = (
{
layerId = UUID0;
paths = (
{
closed = 1;
nodes = (
"274 284 LINE SMOOTH",
"291 284 OFFCURVE",
"305 297 OFFCURVE",
"305 314 CURVE SMOOTH",
"305 331 OFFCURVE",
"291 344 OFFCURVE",
"274 344 CURVE SMOOTH",
"183 344 LINE",
"183 486 LINE",
"274 486 LINE SMOOTH",
"292 486 OFFCURVE",
"305 500 OFFCURVE",
"305 517 CURVE SMOOTH",
"305 534 OFFCURVE",
"292 547 OFFCURVE",
"274 547 CURVE SMOOTH",
"183 547 LINE",
"183 760 LINE SMOOTH",
"183 777 OFFCURVE",
"169 790 OFFCURVE",
"152 790 CURVE SMOOTH",
"135 790 OFFCURVE",
"122 777 OFFCURVE",
"122 760 CURVE SMOOTH",
"122 547 LINE",
"72 547 LINE SMOOTH",
"55 547 OFFCURVE",
"41 534 OFFCURVE",
"41 517 CURVE SMOOTH",
"41 500 OFFCURVE",
"55 486 OFFCURVE",
"72 486 CURVE SMOOTH",
"122 486 LINE",
"122 344 LINE",
"71 344 LINE SMOOTH",
"54 344 OFFCURVE",
"41 331 OFFCURVE",
"41 314 CURVE SMOOTH",
"41 297 OFFCURVE",
"54 284 OFFCURVE",
"71 284 CURVE SMOOTH",
"122 284 LINE",
"122 192 LINE SMOOTH",
"122 64 OFFCURVE",
"186 0 OFFCURVE",
"314 0 CURVE SMOOTH",
"332 0 OFFCURVE",
"345 13 OFFCURVE",
"345 30 CURVE SMOOTH",
"345 47 OFFCURVE",
"332 61 OFFCURVE",
"314 61 CURVE SMOOTH",
"227 61 OFFCURVE",
"183 104 OFFCURVE",
"183 192 CURVE SMOOTH",
"183 284 LINE"
);
}
);
width = 391;
}
);
unicode = 0167;
},
{
glyphname = longs;
lastChange = "2016-10-26 00:21:20 +0000";
layers = (
{
layerId = UUID0;
paths = (
{
closed = 1;
nodes = (
"119 781 OFFCURVE",
"42 704 OFFCURVE",
"42 548 CURVE SMOOTH",
"42 30 LINE SMOOTH",
"42 13 OFFCURVE",
"55 0 OFFCURVE",
"72 0 CURVE SMOOTH",
"89 0 OFFCURVE",
"102 13 OFFCURVE",
"102 30 CURVE SMOOTH",
"102 548 LINE SMOOTH",
"102 663 OFFCURVE",
"160 720 OFFCURVE",
"274 720 CURVE SMOOTH",
"292 720 OFFCURVE",
"305 734 OFFCURVE",
"305 751 CURVE SMOOTH",
"305 768 OFFCURVE",
"292 781 OFFCURVE",
"274 781 CURVE SMOOTH"
);
}
);
width = 313;
}
);
unicode = 017F;
},
{
glyphname = florin;
lastChange = "2016-10-26 00:21:20 +0000";
layers = (
{
layerId = UUID0;
paths = (
{
closed = 1;
nodes = (
"203 -1 LINE SMOOTH",
"203 -116 OFFCURVE",
"145 -173 OFFCURVE",
"30 -173 CURVE SMOOTH",
"13 -173 OFFCURVE",
"0 -187 OFFCURVE",
"0 -204 CURVE SMOOTH",
"0 -221 OFFCURVE",
"13 -234 OFFCURVE",
"30 -234 CURVE SMOOTH",
"185 -234 OFFCURVE",
"264 -157 OFFCURVE",
"264 -1 CURVE SMOOTH",
"264 456 LINE",
"396 456 LINE SMOOTH",
"413 456 OFFCURVE",
"426 469 OFFCURVE",
"426 486 CURVE SMOOTH",
"426 503 OFFCURVE",
"413 517 OFFCURVE",
"396 517 CURVE SMOOTH",
"263 517 LINE",
"263 548 LINE SMOOTH",
"263 663 OFFCURVE",
"321 720 OFFCURVE",
"436 720 CURVE SMOOTH",
"453 720 OFFCURVE",
"466 734 OFFCURVE",
"466 751 CURVE SMOOTH",
"466 768 OFFCURVE",
"453 781 OFFCURVE",
"436 781 CURVE SMOOTH",
"280 781 OFFCURVE",
"203 704 OFFCURVE",
"203 548 CURVE SMOOTH",
"203 517 LINE",
"152 517 LINE SMOOTH",
"135 517 OFFCURVE",
"122 503 OFFCURVE",
"122 486 CURVE SMOOTH",
"122 469 OFFCURVE",
"135 456 OFFCURVE",
"152 456 CURVE SMOOTH",
"203 456 LINE"
);
}
);
width = 469;
}
);
unicode = 0192;
},
{
glyphname = Aringacute;
lastChange = "2016-10-26 00:21:20 +0000";
layers = (
{
layerId = UUID0;
paths = (
{
closed = 1;
nodes = (
"223 340 LINE",
"350 668 LINE",
"478 340 LINE"
);
},
{
closed = 1;
nodes = (
"403 813 OFFCURVE",
"379 789 OFFCURVE",
"350 789 CURVE SMOOTH",
"320 789 OFFCURVE",
"296 813 OFFCURVE",
"296 842 CURVE SMOOTH",
"296 871 OFFCURVE",
"320 895 OFFCURVE",
"350 895 CURVE SMOOTH",
"379 895 OFFCURVE",
"403 871 OFFCURVE",
"403 842 CURVE SMOOTH"
);
},
{
closed = 1;
nodes = (
"287 966 LINE",
"282 959 OFFCURVE",
"279 953 OFFCURVE",
"279 946 CURVE SMOOTH",
"279 935 OFFCURVE",
"286 923 OFFCURVE",
"297 918 CURVE",
"274 898 OFFCURVE",
"259 867 OFFCURVE",
"259 842 CURVE SMOOTH",
"259 805 OFFCURVE",
"275 776 OFFCURVE",
"320 755 CURVE",
"42 43 LINE SMOOTH",
"41 39 OFFCURVE",
"40 35 OFFCURVE",
"40 30 CURVE SMOOTH",
"40 13 OFFCURVE",
"53 0 OFFCURVE",
"70 0 CURVE SMOOTH",
"82 0 OFFCURVE",
"93 7 OFFCURVE",
"98 19 CURVE SMOOTH",
"200 280 LINE",
"501 280 LINE",
"603 19 LINE SMOOTH",
"607 7 OFFCURVE",
"617 0 OFFCURVE",
"631 0 CURVE SMOOTH",
"647 0 OFFCURVE",
"661 13 OFFCURVE",
"661 30 CURVE SMOOTH",
"661 35 OFFCURVE",
"660 39 OFFCURVE",
"658 43 CURVE SMOOTH",
"381 756 LINE",
"423 774 OFFCURVE",
"440 807 OFFCURVE",
"440 842 CURVE SMOOTH",
"440 894 OFFCURVE",
"398 932 OFFCURVE",
"348 932 CURVE SMOOTH",
"345 932 OFFCURVE",
"342 931 OFFCURVE",
"338 931 CURVE",
"372 965 LINE SMOOTH",
"377 970 OFFCURVE",
"380 978 OFFCURVE",
"380 986 CURVE SMOOTH",
"380 1003 OFFCURVE",
"367 1016 OFFCURVE",
"350 1016 CURVE SMOOTH",
"342 1016 OFFCURVE",
"334 1013 OFFCURVE",
"329 1007 CURVE SMOOTH"
);
}
);
width = 703;
}
);
unicode = 01FA;
},
{
glyphname = dieresistonos;
lastChange = "2016-10-26 00:21:20 +0000";
layers = (
{
layerId = UUID0;
paths = (
{
closed = 1;
nodes = (
"327 730 LINE SMOOTH",
"332 735 OFFCURVE",
"334 743 OFFCURVE",
"334 751 CURVE SMOOTH",
"334 769 OFFCURVE",
"321 782 OFFCURVE",
"304 782 CURVE SMOOTH",
"296 782 OFFCURVE",
"289 779 OFFCURVE",
"283 773 CURVE SMOOTH",
"160 650 LINE SMOOTH",
"155 645 OFFCURVE",
"152 638 OFFCURVE",
"152 630 CURVE SMOOTH",
"152 613 OFFCURVE",
"166 599 OFFCURVE",
"183 599 CURVE SMOOTH",
"190 599 OFFCURVE",
"197 602 OFFCURVE",
"204 607 CURVE"
);
},
{
closed = 1;
nodes = (
"111 692 OFFCURVE",
"94 711 OFFCURVE",
"71 711 CURVE SMOOTH",
"48 711 OFFCURVE",
"30 692 OFFCURVE",
"30 670 CURVE SMOOTH",
"30 647 OFFCURVE",
"48 630 OFFCURVE",
"71 630 CURVE SMOOTH",
"94 630 OFFCURVE",
"111 647 OFFCURVE",
"111 670 CURVE SMOOTH"
);
},
{
closed = 1;
nodes = (
"436 692 OFFCURVE",
"417 711 OFFCURVE",
"395 711 CURVE SMOOTH",
"372 711 OFFCURVE",
"354 692 OFFCURVE",
"354 670 CURVE SMOOTH",
"354 647 OFFCURVE",
"372 630 OFFCURVE",
"395 630 CURVE SMOOTH",
"417 630 OFFCURVE",
"436 647 OFFCURVE",
"436 670 CURVE SMOOTH"
);
}
);
width = 469;
}
);
unicode = 0385;
},
{
glyphname = Alphatonos;
lastChange = "2016-10-26 00:21:20 +0000";
layers = (
{
layerId = UUID0;
paths = (
{
closed = 1;
nodes = (
"251 729 LINE SMOOTH",
"257 735 OFFCURVE",
"260 743 OFFCURVE",
"260 750 CURVE SMOOTH",
"260 768 OFFCURVE",
"247 781 OFFCURVE",
"229 781 CURVE SMOOTH",
"221 781 OFFCURVE",
"213 778 OFFCURVE",
"208 772 CURVE SMOOTH",
"84 649 LINE",
"80 644 OFFCURVE",
"78 637 OFFCURVE",
"78 629 CURVE SMOOTH",
"78 612 OFFCURVE",
"91 598 OFFCURVE",
"108 598 CURVE SMOOTH",
"116 598 OFFCURVE",
"123 601 OFFCURVE",
"128 606 CURVE SMOOTH"
);
},
{
closed = 1;
nodes = (
"500 280 LINE",
"602 19 LINE",
"608 5 OFFCURVE",
"617 0 OFFCURVE",
"630 0 CURVE SMOOTH",
"646 0 OFFCURVE",
"660 13 OFFCURVE",
"660 30 CURVE SMOOTH",
"660 35 OFFCURVE",
"659 39 OFFCURVE",
"657 43 CURVE SMOOTH",
"379 760 LINE SMOOTH",
"374 774 OFFCURVE",
"363 781 OFFCURVE",
"350 781 CURVE SMOOTH",
"335 781 OFFCURVE",
"326 773 OFFCURVE",
"321 760 CURVE SMOOTH",
"42 43 LINE SMOOTH",
"40 39 OFFCURVE",
"39 35 OFFCURVE",
"39 30 CURVE SMOOTH",
"39 13 OFFCURVE",
"52 0 OFFCURVE",
"69 0 CURVE SMOOTH",
"82 0 OFFCURVE",
"92 5 OFFCURVE",
"97 19 CURVE SMOOTH",
"199 280 LINE"
);
},
{
closed = 1;
nodes = (
"223 340 LINE",
"350 668 LINE",
"477 340 LINE"
);
}
);
width = 703;
}
);
unicode = 0386;
},
{
glyphname = Epsilontonos;
lastChange = "2016-10-26 00:21:20 +0000";
layers = (
{
layerId = UUID0;
paths = (
{
closed = 1;
nodes = (
"154 729 LINE SMOOTH",
"160 735 OFFCURVE",
"162 743 OFFCURVE",
"162 750 CURVE SMOOTH",
"162 768 OFFCURVE",
"149 781 OFFCURVE",
"132 781 CURVE SMOOTH",
"123 781 OFFCURVE",
"116 778 OFFCURVE",
"110 772 CURVE SMOOTH",
"-13 649 LINE",
"-18 644 OFFCURVE",
"-20 637 OFFCURVE",
"-20 629 CURVE SMOOTH",
"-20 612 OFFCURVE",
"-7 598 OFFCURVE",
"10 598 CURVE SMOOTH",
"19 598 OFFCURVE",
"25 601 OFFCURVE",
"31 606 CURVE SMOOTH"
);
},
{
closed = 1;
nodes = (
"250 781 LINE SMOOTH",
"233 781 OFFCURVE",
"220 768 OFFCURVE",
"220 751 CURVE SMOOTH",
"220 30 LINE SMOOTH",
"220 13 OFFCURVE",
"233 0 OFFCURVE",
"250 0 CURVE SMOOTH",
"731 0 LINE SMOOTH",
"747 0 OFFCURVE",
"761 13 OFFCURVE",
"761 30 CURVE SMOOTH",
"761 46 OFFCURVE",
"747 60 OFFCURVE",
"731 60 CURVE SMOOTH",
"280 60 LINE",
"280 360 LINE",
"610 360 LINE SMOOTH",
"627 360 OFFCURVE",
"641 374 OFFCURVE",
"641 391 CURVE SMOOTH",
"641 408 OFFCURVE",
"627 421 OFFCURVE",
"610 421 CURVE SMOOTH",
"280 421 LINE",
"280 721 LINE",
"731 721 LINE SMOOTH",
"747 721 OFFCURVE",
"761 735 OFFCURVE",
"761 751 CURVE SMOOTH",
"761 768 OFFCURVE",
"747 781 OFFCURVE",
"731 781 CURVE SMOOTH"
);
}
);
width = 801;
}
);
unicode = 0388;
},
{
glyphname = Etatonos;
lastChange = "2016-10-26 00:21:20 +0000";
layers = (
{
layerId = UUID0;
paths = (
{
closed = 1;
nodes = (
"154 729 LINE SMOOTH",
"160 735 OFFCURVE",
"162 743 OFFCURVE",
"162 750 CURVE SMOOTH",
"162 768 OFFCURVE",
"149 781 OFFCURVE",
"132 781 CURVE SMOOTH",
"123 781 OFFCURVE",
"116 778 OFFCURVE",
"110 772 CURVE SMOOTH",
"-13 649 LINE",
"-18 644 OFFCURVE",
"-20 637 OFFCURVE",
"-20 629 CURVE SMOOTH",
"-20 612 OFFCURVE",
"-7 598 OFFCURVE",
"10 598 CURVE SMOOTH",
"19 598 OFFCURVE",
"25 601 OFFCURVE",
"31 606 CURVE SMOOTH"
);
},
{
closed = 1;
nodes = (
"220 30 LINE SMOOTH",
"220 13 OFFCURVE",
"233 0 OFFCURVE",
"250 0 CURVE SMOOTH",
"267 0 OFFCURVE",
"280 13 OFFCURVE",
"280 30 CURVE SMOOTH",
"280 360 LINE",
"701 360 LINE",
"701 30 LINE SMOOTH",
"701 13 OFFCURVE",
"714 0 OFFCURVE",
"731 0 CURVE SMOOTH",
"747 0 OFFCURVE",
"761 13 OFFCURVE",
"761 30 CURVE SMOOTH",
"761 751 LINE SMOOTH",
"761 768 OFFCURVE",
"747 781 OFFCURVE",
"731 781 CURVE SMOOTH",
"714 781 OFFCURVE",
"701 768 OFFCURVE",
"701 751 CURVE SMOOTH",
"701 421 LINE",
"280 421 LINE",
"280 751 LINE SMOOTH",
"280 768 OFFCURVE",
"267 781 OFFCURVE",
"250 781 CURVE SMOOTH",
"233 781 OFFCURVE",
"220 768 OFFCURVE",
"220 751 CURVE SMOOTH"
);
}
);
width = 801;
}
);
unicode = 0389;
},
